<?xml version="1.0" encoding="UTF-8"?>
<!DOCTYPE svg PUBLIC "-//W3C//DTD SVG 1.1//EN" "http://www.w3.org/Graphics/SVG/1.1/DTD/svg11.dtd">
<svg version="1.2" width="779.83mm" height="231.6mm" viewBox="2385 7655 77983 23160" preserveAspectRatio="xMidYMid" fill-rule="evenodd" stroke-width="28.222" stroke-linejoin="round" xmlns="http://www.w3.org/2000/svg" xmlns:ooo="http://xml.openoffice.org/svg/export" xmlns:xlink="http://www.w3.org/1999/xlink" xmlns:presentation="http://sun.com/xmlns/staroffice/presentation" xmlns:smil="http://www.w3.org/2001/SMIL20/" xmlns:anim="urn:oasis:names:tc:opendocument:xmlns:animation:1.0" xml:space="preserve">
 <defs class="ClipPathGroup">
  <clipPath id="presentation_clip_path" clipPathUnits="userSpaceOnUse">
   <rect x="2385" y="7655" width="77983" height="23160"/>
  </clipPath>
  <clipPath id="presentation_clip_path_shrink" clipPathUnits="userSpaceOnUse">
   <rect x="2462" y="7678" width="77828" height="23114"/>
  </clipPath>
 </defs>
 <defs class="TextShapeIndex">
  <g ooo:slide="id1" ooo:id-list="id3 id4 id5 id6 id7 id8 id9 id10 id11 id12 id13 id14 id15 id16 id17 id18 id19 id20"/>
 </defs>
 <defs class="EmbeddedBulletChars">
  <g id="bullet-char-template(57356)" transform="scale(0.00048828125,-0.00048828125)">
   <path d="M 580,1141 L 1163,571 580,0 -4,571 580,1141 Z"/>
  </g>
  <g id="bullet-char-template(57354)" transform="scale(0.00048828125,-0.00048828125)">
   <path d="M 8,1128 L 1137,1128 1137,0 8,0 8,1128 Z"/>
  </g>
  <g id="bullet-char-template(10146)" transform="scale(0.00048828125,-0.00048828125)">
   <path d="M 174,0 L 602,739 174,1481 1456,739 174,0 Z M 1358,739 L 309,1346 659,739 1358,739 Z"/>
  </g>
  <g id="bullet-char-template(10132)" transform="scale(0.00048828125,-0.00048828125)">
   <path d="M 2015,739 L 1276,0 717,0 1260,543 174,543 174,936 1260,936 717,1481 1274,1481 2015,739 Z"/>
  </g>
  <g id="bullet-char-template(10007)" transform="scale(0.00048828125,-0.00048828125)">
   <path d="M 0,-2 C -7,14 -16,27 -25,37 L 356,567 C 262,823 215,952 215,954 215,979 228,992 255,992 264,992 276,990 289,987 310,991 331,999 354,1012 L 381,999 492,748 772,1049 836,1024 860,1049 C 881,1039 901,1025 922,1006 886,937 835,863 770,784 769,783 710,716 594,584 L 774,223 C 774,196 753,168 711,139 L 727,119 C 717,90 699,76 672,76 641,76 570,178 457,381 L 164,-76 C 142,-110 111,-127 72,-127 30,-127 9,-110 8,-76 1,-67 -2,-52 -2,-32 -2,-23 -1,-13 0,-2 Z"/>
  </g>
  <g id="bullet-char-template(10004)" transform="scale(0.00048828125,-0.00048828125)">
   <path d="M 285,-33 C 182,-33 111,30 74,156 52,228 41,333 41,471 41,549 55,616 82,672 116,743 169,778 240,778 293,778 328,747 346,684 L 369,508 C 377,444 397,411 428,410 L 1163,1116 C 1174,1127 1196,1133 1229,1133 1271,1133 1292,1118 1292,1087 L 1292,965 C 1292,929 1282,901 1262,881 L 442,47 C 390,-6 338,-33 285,-33 Z"/>
  </g>
  <g id="bullet-char-template(9679)" transform="scale(0.00048828125,-0.00048828125)">
   <path d="M 813,0 C 632,0 489,54 383,161 276,268 223,411 223,592 223,773 276,916 383,1023 489,1130 632,1184 813,1184 992,1184 1136,1130 1245,1023 1353,916 1407,772 1407,592 1407,412 1353,268 1245,161 1136,54 992,0 813,0 Z"/>
  </g>
  <g id="bullet-char-template(8226)" transform="scale(0.00048828125,-0.00048828125)">
   <path d="M 346,457 C 273,457 209,483 155,535 101,586 74,649 74,723 74,796 101,859 155,911 209,963 273,989 346,989 419,989 480,963 531,910 582,859 608,796 608,723 608,648 583,586 532,535 482,483 420,457 346,457 Z"/>
  </g>
  <g id="bullet-char-template(8211)" transform="scale(0.00048828125,-0.00048828125)">
   <path d="M -4,459 L 1135,459 1135,606 -4,606 -4,459 Z"/>
  </g>
  <g id="bullet-char-template(61548)" transform="scale(0.00048828125,-0.00048828125)">
   <path d="M 173,740 C 173,903 231,1043 346,1159 462,1274 601,1332 765,1332 928,1332 1067,1274 1183,1159 1299,1043 1357,903 1357,740 1357,577 1299,437 1183,322 1067,206 928,148 765,148 601,148 462,206 346,322 231,437 173,577 173,740 Z"/>
  </g>
 </defs>
 <defs class="TextEmbeddedBitmaps"/>
 <g class="SlideGroup">
  <g>
   <g id="container-id1">
    <g id="id1" class="Slide" clip-path="url(#presentation_clip_path)">
     <g class="Page">
      <g class="com.sun.star.drawing.ClosedBezierShape">
       <g id="id3">
        <rect class="BoundingBox" stroke="none" fill="none" x="2384" y="7655" width="45127" height="23091"/>
        <path fill="rgb(51,204,204)" stroke="none" d="M 2385,12318 L 2385,7655 23562,7655 23562,12318 16566,12318 16623,30739 9886,30739 9837,12318 2385,12318 Z M 24939,7655 L 31771,7655 C 31803,12320 31788,16985 31788,21650 31849,23762 32214,25546 34955,25970 38915,26443 40534,24410 40626,21218 L 40669,7655 47475,7655 47510,21948 C 47402,24003 46566,26255 44954,27795 40540,31870 29662,31902 26238,26767 25223,25244 24896,23433 24896,21695 24896,17015 24939,12335 24939,7655 Z"/>
       </g>
      </g>
      <g class="com.sun.star.drawing.PolyPolygonShape">
       <g id="id4">
        <rect class="BoundingBox" stroke="none" fill="none" x="12058" y="12190" width="14574" height="11655"/>
        <path fill="rgb(0,0,0)" stroke="none" d="M 20134,23844 L 18270,23844 12059,12190 14213,12190 19296,21587 24422,12190 26631,12190 20134,23844 Z"/>
       </g>
      </g>
      <g class="com.sun.star.drawing.ClosedBezierShape">
       <g id="id5">
        <rect class="BoundingBox" stroke="none" fill="none" x="31228" y="11902" width="10082" height="12358"/>
        <path fill="rgb(0,0,0)" stroke="none" d="M 31228,20243 L 33323,20243 C 33323,23592 39071,23531 39071,20872 39071,17610 31908,19330 31908,15207 31908,11118 40778,10516 41048,15145 L 38869,15145 C 38652,12697 34072,12902 34072,15124 34072,16539 35859,16919 36941,17158 38960,17608 41309,18217 41309,20745 41309,25271 31450,25757 31228,20243 Z"/>
       </g>
      </g>
      <g class="com.sun.star.drawing.PolyPolygonShape">
       <g id="id6">
        <rect class="BoundingBox" stroke="none" fill="none" x="27054" y="12128" width="2039" height="11712"/>
        <path fill="rgb(0,0,0)" stroke="none" d="M 27055,23839 L 27055,12128 29092,12128 29092,23839 27055,23839 Z"/>
       </g>
      </g>
      <g class="com.sun.star.drawing.PolyPolygonShape">
       <g id="id7">
        <rect class="BoundingBox" stroke="none" fill="none" x="27072" y="8928" width="2039" height="2419"/>
        <path fill="rgb(0,0,0)" stroke="none" d="M 29110,11346 L 27073,11346 27073,8929 29110,8929 29110,11346 Z"/>
       </g>
      </g>
      <g class="com.sun.star.drawing.ClosedBezierShape">
       <g id="id8">
        <rect class="BoundingBox" stroke="none" fill="none" x="67019" y="11958" width="13271" height="11966"/>
        <path fill="rgb(0,0,0)" stroke="none" d="M 67019,12213 L 68996,12213 68996,13546 C 71766,11183 78878,11214 80053,15309 80211,15872 80289,16704 80289,17805 L 80289,23923 78283,23923 78283,17369 C 78283,15984 77923,14982 77208,14357 75268,12672 69869,13097 69149,16097 69045,16504 68996,17216 68996,18230 L 68996,23923 67019,23923 67019,12213 Z"/>
       </g>
      </g>
      <g class="com.sun.star.drawing.PolyPolygonShape">
       <g id="id9">
        <rect class="BoundingBox" stroke="none" fill="none" x="43773" y="12210" width="2038" height="11713"/>
        <path fill="rgb(0,0,0)" stroke="none" d="M 43773,23922 L 43773,12211 45810,12211 45810,23922 43773,23922 Z"/>
       </g>
      </g>
      <g class="com.sun.star.drawing.PolyPolygonShape">
       <g id="id10">
        <rect class="BoundingBox" stroke="none" fill="none" x="43755" y="8927" width="2038" height="2418"/>
        <path fill="rgb(0,0,0)" stroke="none" d="M 45792,11344 L 43755,11344 43755,8927 45792,8927 45792,11344 Z"/>
       </g>
      </g>
      <g class="com.sun.star.drawing.ClosedBezierShape">
       <g id="id11">
        <rect class="BoundingBox" stroke="none" fill="none" x="46574" y="11775" width="20242" height="10465"/>
        <path fill="rgb(0,0,0)" stroke="none" d="M 66750,16162 C 63766,13284 60404,11431 56212,11830 49315,12282 46696,14476 46579,17261 46462,20045 49094,21281 52139,22239 49442,20571 48327,16904 54015,15728 48421,16374 52196,22194 56341,22175 60487,22155 65251,17181 59509,15082 61858,15588 65156,17185 66815,18554 64193,15051 59671,13004 53949,13640 57279,12131 61697,13360 66750,16162 Z"/>
       </g>
      </g>
      <g class="com.sun.star.drawing.ClosedBezierShape">
       <g id="id12">
        <rect class="BoundingBox" stroke="none" fill="none" x="48902" y="21909" width="7178" height="2547"/>
        <path fill="rgb(0,0,0)" stroke="none" d="M 56079,24237 C 53212,23723 50879,23254 48902,21909 50287,24243 52797,24835 56079,24237 Z"/>
       </g>
      </g>
      <g class="com.sun.star.drawing.ClosedBezierShape">
       <g id="id13">
        <rect class="BoundingBox" stroke="none" fill="none" x="56272" y="17449" width="1554" height="1619"/>
        <path fill="rgb(255,255,255)" stroke="none" d="M 57825,18258 C 57825,18406 57792,18533 57721,18662 57649,18791 57560,18883 57436,18958 57313,19032 57191,19066 57048,19066 56905,19066 56784,19032 56660,18958 56536,18883 56447,18791 56376,18662 56305,18533 56272,18406 56272,18258 56272,18109 56305,17982 56376,17853 56447,17724 56536,17632 56660,17557 56784,17483 56905,17449 57048,17449 57191,17449 57313,17483 57436,17557 57560,17632 57649,17724 57721,17853 57792,17982 57825,18109 57825,18258 Z"/>
       </g>
      </g>
      <g class="com.sun.star.drawing.PolyPolygonShape">
       <g id="id14">
        <rect class="BoundingBox" stroke="none" fill="none" x="52792" y="24851" width="3284" height="4607"/>
        <path fill="rgb(51,204,204)" stroke="none" d="M 53694,27583 L 53694,29456 52792,29456 52792,24851 53694,24851 53694,26716 55174,26716 55174,24851 56075,24851 56075,29456 55174,29456 55174,27583 53694,27583 Z"/>
       </g>
      </g>
      <g class="com.sun.star.drawing.ClosedBezierShape">
       <g id="id15">
        <rect class="BoundingBox" stroke="none" fill="none" x="56605" y="25888" width="3672" height="3648"/>
        <path fill="rgb(51,204,204)" stroke="none" d="M 57434,27687 C 57434,27980 57531,28225 57727,28423 57921,28620 58158,28718 58439,28718 58694,28718 58918,28619 59113,28422 59306,28223 59403,27991 59403,27725 59403,27442 59306,27200 59110,26997 58916,26793 58687,26691 58426,26691 58153,26691 57919,26787 57724,26980 57531,27174 57434,27409 57434,27687 Z M 59495,29456 L 59495,29028 C 59398,29201 59262,29329 59086,29411 58910,29493 58684,29534 58410,29534 57896,29534 57466,29358 57122,29008 56778,28657 56605,28221 56605,27700 56605,27455 56648,27223 56735,27004 56821,26785 56944,26592 57105,26426 57277,26242 57470,26107 57680,26020 57891,25932 58128,25888 58391,25888 58644,25888 58862,25930 59045,26014 59227,26098 59374,26226 59485,26397 L 59485,25977 60276,25977 60276,29456 59495,29456 Z"/>
       </g>
      </g>
      <g class="com.sun.star.drawing.ClosedBezierShape">
       <g id="id16">
        <rect class="BoundingBox" stroke="none" fill="none" x="60990" y="25907" width="5304" height="3549"/>
        <path fill="rgb(51,204,204)" stroke="none" d="M 61781,25976 L 61781,26371 C 61899,26214 62035,26097 62187,26020 62340,25945 62514,25907 62711,25907 62991,25907 63231,25957 63429,26056 63629,26154 63801,26310 63943,26520 64080,26314 64235,26160 64405,26059 64576,25958 64765,25907 64971,25907 65397,25907 65724,26041 65952,26309 66180,26576 66293,26959 66293,27459 L 66293,29455 65496,29455 65496,27915 C 65496,27443 65445,27121 65340,26952 65235,26782 65055,26697 64797,26697 64529,26697 64338,26792 64224,26983 64108,27174 64051,27501 64051,27966 L 64051,29455 63248,29455 63248,27915 C 63248,27444 63195,27125 63088,26953 62981,26782 62796,26697 62530,26697 62260,26697 62066,26792 61948,26983 61831,27174 61771,27501 61771,27966 L 61771,29455 60990,29455 60990,25976 61781,25976 Z"/>
       </g>
      </g>
      <g class="com.sun.star.drawing.ClosedBezierShape">
       <g id="id17">
        <rect class="BoundingBox" stroke="none" fill="none" x="66939" y="24851" width="3672" height="4697"/>
        <path fill="rgb(51,204,204)" stroke="none" d="M 67767,27732 C 67767,28015 67861,28254 68049,28450 68236,28646 68463,28744 68729,28744 69030,28744 69280,28647 69479,28452 69676,28257 69776,28013 69776,27719 69776,27439 69678,27198 69480,26995 69283,26793 69045,26691 68767,26691 68484,26691 68247,26791 68055,26990 67863,27190 67767,27437 67767,27732 Z M 67736,26255 C 67886,26131 68048,26039 68222,25982 68397,25924 68598,25895 68824,25895 69056,25895 69274,25934 69478,26011 69683,26090 69864,26204 70022,26354 70210,26526 70354,26730 70457,26966 70559,27201 70610,27448 70610,27707 70610,27986 70554,28248 70441,28496 70328,28743 70168,28958 69959,29139 69805,29272 69631,29374 69437,29443 69243,29513 69036,29547 68817,29547 68611,29547 68419,29516 68242,29455 68065,29392 67895,29298 67736,29171 L 67736,29456 66939,29456 66939,24851 67736,24851 67736,26255 Z"/>
       </g>
      </g>
      <g class="com.sun.star.drawing.ClosedBezierShape">
       <g id="id18">
        <rect class="BoundingBox" stroke="none" fill="none" x="71141" y="25977" width="3091" height="3573"/>
        <path fill="rgb(51,204,204)" stroke="none" d="M 73427,29456 L 73427,29079 C 73310,29238 73174,29356 73021,29432 72868,29509 72693,29548 72498,29548 72062,29548 71726,29414 71492,29146 71258,28879 71141,28493 71141,27991 L 71141,25977 71960,25977 71960,27539 C 71960,28010 72014,28331 72121,28504 72229,28677 72415,28763 72678,28763 72948,28763 73141,28666 73258,28472 73376,28278 73434,27949 73434,27485 L 73434,25977 74231,25977 74231,29456 73427,29456 Z"/>
       </g>
      </g>
      <g class="com.sun.star.drawing.ClosedBezierShape">
       <g id="id19">
        <rect class="BoundingBox" stroke="none" fill="none" x="74909" y="25925" width="1656" height="3532"/>
        <path fill="rgb(51,204,204)" stroke="none" d="M 76564,26682 C 76250,26706 76031,26790 75907,26929 75782,27068 75720,27319 75720,27681 L 75720,29456 74910,29456 74910,25977 75669,25977 75669,26378 C 75791,26222 75925,26107 76071,26035 76217,25963 76381,25926 76564,25926 L 76564,26682 Z"/>
       </g>
      </g>
      <g class="com.sun.star.drawing.ClosedBezierShape">
       <g id="id20">
        <rect class="BoundingBox" stroke="none" fill="none" x="76677" y="25888" width="3693" height="4928"/>
        <path fill="rgb(51,204,204)" stroke="none" d="M 79643,25977 L 80368,25977 80368,28880 C 80368,29482 80207,29956 79885,30299 79563,30644 79123,30815 78562,30815 78142,30815 77791,30717 77508,30520 77225,30322 77018,30030 76885,29642 L 77667,29642 C 77751,29799 77871,29921 78027,30009 78184,30098 78358,30142 78549,30142 78872,30142 79134,30037 79335,29827 79536,29617 79637,29341 79637,28997 L 79637,28962 C 79481,29124 79303,29247 79103,29330 78902,29413 78683,29455 78445,29455 78213,29455 77993,29415 77786,29336 77577,29255 77394,29140 77234,28990 77060,28826 76924,28630 76826,28402 76727,28174 76677,27943 76677,27707 76677,27179 76843,26745 77177,26402 77509,26060 77932,25888 78445,25888 78678,25888 78894,25929 79092,26011 79288,26093 79473,26220 79643,26391 L 79643,25977 Z M 77480,27656 C 77480,27959 77582,28213 77786,28418 77989,28622 78239,28725 78537,28725 78809,28725 79049,28621 79256,28415 79463,28209 79568,27968 79568,27694 79568,27397 79465,27143 79260,26933 79056,26723 78812,26619 78530,26619 78239,26619 77992,26719 77787,26919 77583,27120 77480,27365 77480,27656 Z"/>
       </g>
      </g>
     </g>
    </g>
   </g>
  </g>
 </g>
</svg>