<?xml version="1.0" encoding="utf-8" standalone="no"?>
<!DOCTYPE svg PUBLIC "-//W3C//DTD SVG 1.1//EN"
  "http://www.w3.org/Graphics/SVG/1.1/DTD/svg11.dtd">
<!-- Created with matplotlib (http://matplotlib.org/) -->
<svg height="965pt" version="1.1" viewBox="0 0 1843 965" width="1843pt" xmlns="http://www.w3.org/2000/svg" xmlns:xlink="http://www.w3.org/1999/xlink">
 <defs>
  <style type="text/css">
*{stroke-linecap:butt;stroke-linejoin:round;}
  </style>
 </defs>
 <g id="figure_1">
  <g id="patch_1">
   <path d="M 0 965.52 
L 1843.2 965.52 
L 1843.2 0 
L 0 0 
z
" style="fill:#ffffff;"/>
  </g>
  <g id="axes_1">
   <g id="patch_2">
    <path d="M 230.4 453.7944 
L 879.709091 453.7944 
L 879.709091 115.8624 
L 230.4 115.8624 
z
" style="fill:#ffffff;"/>
   </g>
   <g id="matplotlib.axis_1">
    <g id="xtick_1">
     <g id="line2d_1">
      <defs>
       <path d="M 0 0 
L 0 3.5 
" id="m1c3a2cb512" style="stroke:#000000;stroke-width:0.8;"/>
      </defs>
      <g>
       <use style="stroke:#000000;stroke-width:0.8;" x="259.91405" xlink:href="#m1c3a2cb512" y="453.7944"/>
      </g>
     </g>
     <g id="text_1">
      <!-- −100 -->
      <defs>
       <path d="M 10.59375 35.5 
L 73.1875 35.5 
L 73.1875 27.203125 
L 10.59375 27.203125 
z
" id="DejaVuSans-2212"/>
       <path d="M 12.40625 8.296875 
L 28.515625 8.296875 
L 28.515625 63.921875 
L 10.984375 60.40625 
L 10.984375 69.390625 
L 28.421875 72.90625 
L 38.28125 72.90625 
L 38.28125 8.296875 
L 54.390625 8.296875 
L 54.390625 0 
L 12.40625 0 
z
" id="DejaVuSans-31"/>
       <path d="M 31.78125 66.40625 
Q 24.171875 66.40625 20.328125 58.90625 
Q 16.5 51.421875 16.5 36.375 
Q 16.5 21.390625 20.328125 13.890625 
Q 24.171875 6.390625 31.78125 6.390625 
Q 39.453125 6.390625 43.28125 13.890625 
Q 47.125 21.390625 47.125 36.375 
Q 47.125 51.421875 43.28125 58.90625 
Q 39.453125 66.40625 31.78125 66.40625 
z
M 31.78125 74.21875 
Q 44.046875 74.21875 50.515625 64.515625 
Q 56.984375 54.828125 56.984375 36.375 
Q 56.984375 17.96875 50.515625 8.265625 
Q 44.046875 -1.421875 31.78125 -1.421875 
Q 19.53125 -1.421875 13.0625 8.265625 
Q 6.59375 17.96875 6.59375 36.375 
Q 6.59375 54.828125 13.0625 64.515625 
Q 19.53125 74.21875 31.78125 74.21875 
z
" id="DejaVuSans-30"/>
      </defs>
      <g transform="translate(246.180456 468.392837)scale(0.1 -0.1)">
       <use xlink:href="#DejaVuSans-2212"/>
       <use x="83.789062" xlink:href="#DejaVuSans-31"/>
       <use x="147.412109" xlink:href="#DejaVuSans-30"/>
       <use x="211.035156" xlink:href="#DejaVuSans-30"/>
      </g>
     </g>
    </g>
    <g id="xtick_2">
     <g id="line2d_2">
      <g>
       <use style="stroke:#000000;stroke-width:0.8;" x="333.699174" xlink:href="#m1c3a2cb512" y="453.7944"/>
      </g>
     </g>
     <g id="text_2">
      <!-- −75 -->
      <defs>
       <path d="M 8.203125 72.90625 
L 55.078125 72.90625 
L 55.078125 68.703125 
L 28.609375 0 
L 18.3125 0 
L 43.21875 64.59375 
L 8.203125 64.59375 
z
" id="DejaVuSans-37"/>
       <path d="M 10.796875 72.90625 
L 49.515625 72.90625 
L 49.515625 64.59375 
L 19.828125 64.59375 
L 19.828125 46.734375 
Q 21.96875 47.46875 24.109375 47.828125 
Q 26.265625 48.1875 28.421875 48.1875 
Q 40.625 48.1875 47.75 41.5 
Q 54.890625 34.8125 54.890625 23.390625 
Q 54.890625 11.625 47.5625 5.09375 
Q 40.234375 -1.421875 26.90625 -1.421875 
Q 22.3125 -1.421875 17.546875 -0.640625 
Q 12.796875 0.140625 7.71875 1.703125 
L 7.71875 11.625 
Q 12.109375 9.234375 16.796875 8.0625 
Q 21.484375 6.890625 26.703125 6.890625 
Q 35.15625 6.890625 40.078125 11.328125 
Q 45.015625 15.765625 45.015625 23.390625 
Q 45.015625 31 40.078125 35.4375 
Q 35.15625 39.890625 26.703125 39.890625 
Q 22.75 39.890625 18.8125 39.015625 
Q 14.890625 38.140625 10.796875 36.28125 
z
" id="DejaVuSans-35"/>
      </defs>
      <g transform="translate(323.14683 468.392837)scale(0.1 -0.1)">
       <use xlink:href="#DejaVuSans-2212"/>
       <use x="83.789062" xlink:href="#DejaVuSans-37"/>
       <use x="147.412109" xlink:href="#DejaVuSans-35"/>
      </g>
     </g>
    </g>
    <g id="xtick_3">
     <g id="line2d_3">
      <g>
       <use style="stroke:#000000;stroke-width:0.8;" x="407.484298" xlink:href="#m1c3a2cb512" y="453.7944"/>
      </g>
     </g>
     <g id="text_3">
      <!-- −50 -->
      <g transform="translate(396.931954 468.392837)scale(0.1 -0.1)">
       <use xlink:href="#DejaVuSans-2212"/>
       <use x="83.789062" xlink:href="#DejaVuSans-35"/>
       <use x="147.412109" xlink:href="#DejaVuSans-30"/>
      </g>
     </g>
    </g>
    <g id="xtick_4">
     <g id="line2d_4">
      <g>
       <use style="stroke:#000000;stroke-width:0.8;" x="481.269421" xlink:href="#m1c3a2cb512" y="453.7944"/>
      </g>
     </g>
     <g id="text_4">
      <!-- −25 -->
      <defs>
       <path d="M 19.1875 8.296875 
L 53.609375 8.296875 
L 53.609375 0 
L 7.328125 0 
L 7.328125 8.296875 
Q 12.9375 14.109375 22.625 23.890625 
Q 32.328125 33.6875 34.8125 36.53125 
Q 39.546875 41.84375 41.421875 45.53125 
Q 43.3125 49.21875 43.3125 52.78125 
Q 43.3125 58.59375 39.234375 62.25 
Q 35.15625 65.921875 28.609375 65.921875 
Q 23.96875 65.921875 18.8125 64.3125 
Q 13.671875 62.703125 7.8125 59.421875 
L 7.8125 69.390625 
Q 13.765625 71.78125 18.9375 73 
Q 24.125 74.21875 28.421875 74.21875 
Q 39.75 74.21875 46.484375 68.546875 
Q 53.21875 62.890625 53.21875 53.421875 
Q 53.21875 48.921875 51.53125 44.890625 
Q 49.859375 40.875 45.40625 35.40625 
Q 44.1875 33.984375 37.640625 27.21875 
Q 31.109375 20.453125 19.1875 8.296875 
z
" id="DejaVuSans-32"/>
      </defs>
      <g transform="translate(470.717078 468.392837)scale(0.1 -0.1)">
       <use xlink:href="#DejaVuSans-2212"/>
       <use x="83.789062" xlink:href="#DejaVuSans-32"/>
       <use x="147.412109" xlink:href="#DejaVuSans-35"/>
      </g>
     </g>
    </g>
    <g id="xtick_5">
     <g id="line2d_5">
      <g>
       <use style="stroke:#000000;stroke-width:0.8;" x="555.054545" xlink:href="#m1c3a2cb512" y="453.7944"/>
      </g>
     </g>
     <g id="text_5">
      <!-- 0 -->
      <g transform="translate(551.873295 468.392837)scale(0.1 -0.1)">
       <use xlink:href="#DejaVuSans-30"/>
      </g>
     </g>
    </g>
    <g id="xtick_6">
     <g id="line2d_6">
      <g>
       <use style="stroke:#000000;stroke-width:0.8;" x="628.839669" xlink:href="#m1c3a2cb512" y="453.7944"/>
      </g>
     </g>
     <g id="text_6">
      <!-- 25 -->
      <g transform="translate(622.477169 468.392837)scale(0.1 -0.1)">
       <use xlink:href="#DejaVuSans-32"/>
       <use x="63.623047" xlink:href="#DejaVuSans-35"/>
      </g>
     </g>
    </g>
    <g id="xtick_7">
     <g id="line2d_7">
      <g>
       <use style="stroke:#000000;stroke-width:0.8;" x="702.624793" xlink:href="#m1c3a2cb512" y="453.7944"/>
      </g>
     </g>
     <g id="text_7">
      <!-- 50 -->
      <g transform="translate(696.262293 468.392837)scale(0.1 -0.1)">
       <use xlink:href="#DejaVuSans-35"/>
       <use x="63.623047" xlink:href="#DejaVuSans-30"/>
      </g>
     </g>
    </g>
    <g id="xtick_8">
     <g id="line2d_8">
      <g>
       <use style="stroke:#000000;stroke-width:0.8;" x="776.409917" xlink:href="#m1c3a2cb512" y="453.7944"/>
      </g>
     </g>
     <g id="text_8">
      <!-- 75 -->
      <g transform="translate(770.047417 468.392837)scale(0.1 -0.1)">
       <use xlink:href="#DejaVuSans-37"/>
       <use x="63.623047" xlink:href="#DejaVuSans-35"/>
      </g>
     </g>
    </g>
    <g id="xtick_9">
     <g id="line2d_9">
      <g>
       <use style="stroke:#000000;stroke-width:0.8;" x="850.195041" xlink:href="#m1c3a2cb512" y="453.7944"/>
      </g>
     </g>
     <g id="text_9">
      <!-- 100 -->
      <g transform="translate(840.651291 468.392837)scale(0.1 -0.1)">
       <use xlink:href="#DejaVuSans-31"/>
       <use x="63.623047" xlink:href="#DejaVuSans-30"/>
       <use x="127.246094" xlink:href="#DejaVuSans-30"/>
      </g>
     </g>
    </g>
   </g>
   <g id="matplotlib.axis_2">
    <g id="ytick_1">
     <g id="line2d_10">
      <defs>
       <path d="M 0 0 
L -3.5 0 
" id="m2db3a01a81" style="stroke:#000000;stroke-width:0.8;"/>
      </defs>
      <g>
       <use style="stroke:#000000;stroke-width:0.8;" x="230.4" xlink:href="#m2db3a01a81" y="438.433855"/>
      </g>
     </g>
     <g id="text_10">
      <!-- 0.0 -->
      <defs>
       <path d="M 10.6875 12.40625 
L 21 12.40625 
L 21 0 
L 10.6875 0 
z
" id="DejaVuSans-2e"/>
      </defs>
      <g transform="translate(207.496875 442.233073)scale(0.1 -0.1)">
       <use xlink:href="#DejaVuSans-30"/>
       <use x="63.623047" xlink:href="#DejaVuSans-2e"/>
       <use x="95.410156" xlink:href="#DejaVuSans-30"/>
      </g>
     </g>
    </g>
    <g id="ytick_2">
     <g id="line2d_11">
      <g>
       <use style="stroke:#000000;stroke-width:0.8;" x="230.4" xlink:href="#m2db3a01a81" y="376.991673"/>
      </g>
     </g>
     <g id="text_11">
      <!-- 0.2 -->
      <g transform="translate(207.496875 380.790891)scale(0.1 -0.1)">
       <use xlink:href="#DejaVuSans-30"/>
       <use x="63.623047" xlink:href="#DejaVuSans-2e"/>
       <use x="95.410156" xlink:href="#DejaVuSans-32"/>
      </g>
     </g>
    </g>
    <g id="ytick_3">
     <g id="line2d_12">
      <g>
       <use style="stroke:#000000;stroke-width:0.8;" x="230.4" xlink:href="#m2db3a01a81" y="315.549491"/>
      </g>
     </g>
     <g id="text_12">
      <!-- 0.4 -->
      <defs>
       <path d="M 37.796875 64.3125 
L 12.890625 25.390625 
L 37.796875 25.390625 
z
M 35.203125 72.90625 
L 47.609375 72.90625 
L 47.609375 25.390625 
L 58.015625 25.390625 
L 58.015625 17.1875 
L 47.609375 17.1875 
L 47.609375 0 
L 37.796875 0 
L 37.796875 17.1875 
L 4.890625 17.1875 
L 4.890625 26.703125 
z
" id="DejaVuSans-34"/>
      </defs>
      <g transform="translate(207.496875 319.34871)scale(0.1 -0.1)">
       <use xlink:href="#DejaVuSans-30"/>
       <use x="63.623047" xlink:href="#DejaVuSans-2e"/>
       <use x="95.410156" xlink:href="#DejaVuSans-34"/>
      </g>
     </g>
    </g>
    <g id="ytick_4">
     <g id="line2d_13">
      <g>
       <use style="stroke:#000000;stroke-width:0.8;" x="230.4" xlink:href="#m2db3a01a81" y="254.107309"/>
      </g>
     </g>
     <g id="text_13">
      <!-- 0.6 -->
      <defs>
       <path d="M 33.015625 40.375 
Q 26.375 40.375 22.484375 35.828125 
Q 18.609375 31.296875 18.609375 23.390625 
Q 18.609375 15.53125 22.484375 10.953125 
Q 26.375 6.390625 33.015625 6.390625 
Q 39.65625 6.390625 43.53125 10.953125 
Q 47.40625 15.53125 47.40625 23.390625 
Q 47.40625 31.296875 43.53125 35.828125 
Q 39.65625 40.375 33.015625 40.375 
z
M 52.59375 71.296875 
L 52.59375 62.3125 
Q 48.875 64.0625 45.09375 64.984375 
Q 41.3125 65.921875 37.59375 65.921875 
Q 27.828125 65.921875 22.671875 59.328125 
Q 17.53125 52.734375 16.796875 39.40625 
Q 19.671875 43.65625 24.015625 45.921875 
Q 28.375 48.1875 33.59375 48.1875 
Q 44.578125 48.1875 50.953125 41.515625 
Q 57.328125 34.859375 57.328125 23.390625 
Q 57.328125 12.15625 50.6875 5.359375 
Q 44.046875 -1.421875 33.015625 -1.421875 
Q 20.359375 -1.421875 13.671875 8.265625 
Q 6.984375 17.96875 6.984375 36.375 
Q 6.984375 53.65625 15.1875 63.9375 
Q 23.390625 74.21875 37.203125 74.21875 
Q 40.921875 74.21875 44.703125 73.484375 
Q 48.484375 72.75 52.59375 71.296875 
z
" id="DejaVuSans-36"/>
      </defs>
      <g transform="translate(207.496875 257.906528)scale(0.1 -0.1)">
       <use xlink:href="#DejaVuSans-30"/>
       <use x="63.623047" xlink:href="#DejaVuSans-2e"/>
       <use x="95.410156" xlink:href="#DejaVuSans-36"/>
      </g>
     </g>
    </g>
    <g id="ytick_5">
     <g id="line2d_14">
      <g>
       <use style="stroke:#000000;stroke-width:0.8;" x="230.4" xlink:href="#m2db3a01a81" y="192.665127"/>
      </g>
     </g>
     <g id="text_14">
      <!-- 0.8 -->
      <defs>
       <path d="M 31.78125 34.625 
Q 24.75 34.625 20.71875 30.859375 
Q 16.703125 27.09375 16.703125 20.515625 
Q 16.703125 13.921875 20.71875 10.15625 
Q 24.75 6.390625 31.78125 6.390625 
Q 38.8125 6.390625 42.859375 10.171875 
Q 46.921875 13.96875 46.921875 20.515625 
Q 46.921875 27.09375 42.890625 30.859375 
Q 38.875 34.625 31.78125 34.625 
z
M 21.921875 38.8125 
Q 15.578125 40.375 12.03125 44.71875 
Q 8.5 49.078125 8.5 55.328125 
Q 8.5 64.0625 14.71875 69.140625 
Q 20.953125 74.21875 31.78125 74.21875 
Q 42.671875 74.21875 48.875 69.140625 
Q 55.078125 64.0625 55.078125 55.328125 
Q 55.078125 49.078125 51.53125 44.71875 
Q 48 40.375 41.703125 38.8125 
Q 48.828125 37.15625 52.796875 32.3125 
Q 56.78125 27.484375 56.78125 20.515625 
Q 56.78125 9.90625 50.3125 4.234375 
Q 43.84375 -1.421875 31.78125 -1.421875 
Q 19.734375 -1.421875 13.25 4.234375 
Q 6.78125 9.90625 6.78125 20.515625 
Q 6.78125 27.484375 10.78125 32.3125 
Q 14.796875 37.15625 21.921875 38.8125 
z
M 18.3125 54.390625 
Q 18.3125 48.734375 21.84375 45.5625 
Q 25.390625 42.390625 31.78125 42.390625 
Q 38.140625 42.390625 41.71875 45.5625 
Q 45.3125 48.734375 45.3125 54.390625 
Q 45.3125 60.0625 41.71875 63.234375 
Q 38.140625 66.40625 31.78125 66.40625 
Q 25.390625 66.40625 21.84375 63.234375 
Q 18.3125 60.0625 18.3125 54.390625 
z
" id="DejaVuSans-38"/>
      </defs>
      <g transform="translate(207.496875 196.464346)scale(0.1 -0.1)">
       <use xlink:href="#DejaVuSans-30"/>
       <use x="63.623047" xlink:href="#DejaVuSans-2e"/>
       <use x="95.410156" xlink:href="#DejaVuSans-38"/>
      </g>
     </g>
    </g>
    <g id="ytick_6">
     <g id="line2d_15">
      <g>
       <use style="stroke:#000000;stroke-width:0.8;" x="230.4" xlink:href="#m2db3a01a81" y="131.222945"/>
      </g>
     </g>
     <g id="text_15">
      <!-- 1.0 -->
      <g transform="translate(207.496875 135.022164)scale(0.1 -0.1)">
       <use xlink:href="#DejaVuSans-31"/>
       <use x="63.623047" xlink:href="#DejaVuSans-2e"/>
       <use x="95.410156" xlink:href="#DejaVuSans-30"/>
      </g>
     </g>
    </g>
   </g>
   <g id="line2d_16">
    <path clip-path="url(#pc80e5031eb)" d="M 259.91405 438.433855 
L 476.389864 438.370061 
L 478.75571 438.345201 
L 483.487402 438.344955 
L 489.402018 438.302892 
L 495.316633 438.252104 
L 496.499556 438.148387 
L 498.865403 438.207242 
L 503.597095 437.96639 
L 507.145864 437.792622 
L 511.877557 437.478674 
L 514.243403 437.307048 
L 518.975391 436.765911 
L 521.341237 436.568356 
L 522.52416 436.567161 
L 523.707083 436.305359 
L 533.170379 435.230996 
L 534.353303 434.967379 
L 535.536226 434.405244 
L 537.902101 433.64631 
L 540.267948 433.531199 
L 542.633794 433.471815 
L 543.816717 433.320329 
L 544.99967 432.372522 
L 546.182593 430.484189 
L 547.365516 430.089115 
L 548.548439 430.373593 
L 549.731362 431.015725 
L 550.914285 432.37713 
L 552.097208 433.983382 
L 553.280149 436.18049 
L 554.463081 437.651536 
L 555.64601 399.803619 
L 556.828942 437.058911 
L 558.011883 435.656063 
L 559.194776 434.074009 
L 560.377699 432.953058 
L 561.560652 431.997694 
L 562.743575 431.532699 
L 563.926498 431.542346 
L 565.109421 433.527143 
L 566.292374 433.969957 
L 567.475268 433.736968 
L 571.024066 433.411294 
L 572.20699 433.50868 
L 573.389942 433.972261 
L 575.755788 435.198524 
L 576.938711 435.470732 
L 579.304558 435.48275 
L 580.487481 435.494396 
L 581.670433 435.666929 
L 584.03628 436.148881 
L 587.584931 436.549054 
L 588.767854 436.545844 
L 589.950777 436.75056 
L 593.499842 437.093152 
L 594.68247 437.247123 
L 597.048611 437.319806 
L 599.414457 437.659766 
L 602.963226 437.869671 
L 607.694919 438.08772 
L 613.609534 438.108712 
L 614.792458 438.253709 
L 617.158304 438.179543 
L 623.072919 438.286964 
L 626.621689 438.266468 
L 650.280151 438.40311 
L 652.645997 438.355285 
L 655.011843 438.416774 
L 658.560612 438.368949 
L 663.292305 438.413358 
L 673.938908 438.433855 
L 850.195041 438.433855 
L 850.195041 438.433855 
" style="fill:none;stroke:#1f77b4;stroke-linecap:square;stroke-width:1.5;"/>
   </g>
   <g id="line2d_17">
    <path clip-path="url(#pc80e5031eb)" d="M 555.054545 131.222945 
" style="fill:none;stroke:#ff7f0e;stroke-linecap:square;stroke-width:1.5;"/>
   </g>
   <g id="patch_3">
    <path d="M 230.4 453.7944 
L 230.4 115.8624 
" style="fill:none;stroke:#000000;stroke-linecap:square;stroke-linejoin:miter;stroke-width:0.8;"/>
   </g>
   <g id="patch_4">
    <path d="M 879.709091 453.7944 
L 879.709091 115.8624 
" style="fill:none;stroke:#000000;stroke-linecap:square;stroke-linejoin:miter;stroke-width:0.8;"/>
   </g>
   <g id="patch_5">
    <path d="M 230.4 453.7944 
L 879.709091 453.7944 
" style="fill:none;stroke:#000000;stroke-linecap:square;stroke-linejoin:miter;stroke-width:0.8;"/>
   </g>
   <g id="patch_6">
    <path d="M 230.4 115.8624 
L 879.709091 115.8624 
" style="fill:none;stroke:#000000;stroke-linecap:square;stroke-linejoin:miter;stroke-width:0.8;"/>
   </g>
   <g id="text_16">
    <!-- Left Leg before calib -->
    <defs>
     <path d="M 9.8125 72.90625 
L 19.671875 72.90625 
L 19.671875 8.296875 
L 55.171875 8.296875 
L 55.171875 0 
L 9.8125 0 
z
" id="DejaVuSans-4c"/>
     <path d="M 56.203125 29.59375 
L 56.203125 25.203125 
L 14.890625 25.203125 
Q 15.484375 15.921875 20.484375 11.0625 
Q 25.484375 6.203125 34.421875 6.203125 
Q 39.59375 6.203125 44.453125 7.46875 
Q 49.3125 8.734375 54.109375 11.28125 
L 54.109375 2.78125 
Q 49.265625 0.734375 44.1875 -0.34375 
Q 39.109375 -1.421875 33.890625 -1.421875 
Q 20.796875 -1.421875 13.15625 6.1875 
Q 5.515625 13.8125 5.515625 26.8125 
Q 5.515625 40.234375 12.765625 48.109375 
Q 20.015625 56 32.328125 56 
Q 43.359375 56 49.78125 48.890625 
Q 56.203125 41.796875 56.203125 29.59375 
z
M 47.21875 32.234375 
Q 47.125 39.59375 43.09375 43.984375 
Q 39.0625 48.390625 32.421875 48.390625 
Q 24.90625 48.390625 20.390625 44.140625 
Q 15.875 39.890625 15.1875 32.171875 
z
" id="DejaVuSans-65"/>
     <path d="M 37.109375 75.984375 
L 37.109375 68.5 
L 28.515625 68.5 
Q 23.6875 68.5 21.796875 66.546875 
Q 19.921875 64.59375 19.921875 59.515625 
L 19.921875 54.6875 
L 34.71875 54.6875 
L 34.71875 47.703125 
L 19.921875 47.703125 
L 19.921875 0 
L 10.890625 0 
L 10.890625 47.703125 
L 2.296875 47.703125 
L 2.296875 54.6875 
L 10.890625 54.6875 
L 10.890625 58.5 
Q 10.890625 67.625 15.140625 71.796875 
Q 19.390625 75.984375 28.609375 75.984375 
z
" id="DejaVuSans-66"/>
     <path d="M 18.3125 70.21875 
L 18.3125 54.6875 
L 36.8125 54.6875 
L 36.8125 47.703125 
L 18.3125 47.703125 
L 18.3125 18.015625 
Q 18.3125 11.328125 20.140625 9.421875 
Q 21.96875 7.515625 27.59375 7.515625 
L 36.8125 7.515625 
L 36.8125 0 
L 27.59375 0 
Q 17.1875 0 13.234375 3.875 
Q 9.28125 7.765625 9.28125 18.015625 
L 9.28125 47.703125 
L 2.6875 47.703125 
L 2.6875 54.6875 
L 9.28125 54.6875 
L 9.28125 70.21875 
z
" id="DejaVuSans-74"/>
     <path id="DejaVuSans-20"/>
     <path d="M 45.40625 27.984375 
Q 45.40625 37.75 41.375 43.109375 
Q 37.359375 48.484375 30.078125 48.484375 
Q 22.859375 48.484375 18.828125 43.109375 
Q 14.796875 37.75 14.796875 27.984375 
Q 14.796875 18.265625 18.828125 12.890625 
Q 22.859375 7.515625 30.078125 7.515625 
Q 37.359375 7.515625 41.375 12.890625 
Q 45.40625 18.265625 45.40625 27.984375 
z
M 54.390625 6.78125 
Q 54.390625 -7.171875 48.1875 -13.984375 
Q 42 -20.796875 29.203125 -20.796875 
Q 24.46875 -20.796875 20.265625 -20.09375 
Q 16.0625 -19.390625 12.109375 -17.921875 
L 12.109375 -9.1875 
Q 16.0625 -11.328125 19.921875 -12.34375 
Q 23.78125 -13.375 27.78125 -13.375 
Q 36.625 -13.375 41.015625 -8.765625 
Q 45.40625 -4.15625 45.40625 5.171875 
L 45.40625 9.625 
Q 42.625 4.78125 38.28125 2.390625 
Q 33.9375 0 27.875 0 
Q 17.828125 0 11.671875 7.65625 
Q 5.515625 15.328125 5.515625 27.984375 
Q 5.515625 40.671875 11.671875 48.328125 
Q 17.828125 56 27.875 56 
Q 33.9375 56 38.28125 53.609375 
Q 42.625 51.21875 45.40625 46.390625 
L 45.40625 54.6875 
L 54.390625 54.6875 
z
" id="DejaVuSans-67"/>
     <path d="M 48.6875 27.296875 
Q 48.6875 37.203125 44.609375 42.84375 
Q 40.53125 48.484375 33.40625 48.484375 
Q 26.265625 48.484375 22.1875 42.84375 
Q 18.109375 37.203125 18.109375 27.296875 
Q 18.109375 17.390625 22.1875 11.75 
Q 26.265625 6.109375 33.40625 6.109375 
Q 40.53125 6.109375 44.609375 11.75 
Q 48.6875 17.390625 48.6875 27.296875 
z
M 18.109375 46.390625 
Q 20.953125 51.265625 25.265625 53.625 
Q 29.59375 56 35.59375 56 
Q 45.5625 56 51.78125 48.09375 
Q 58.015625 40.1875 58.015625 27.296875 
Q 58.015625 14.40625 51.78125 6.484375 
Q 45.5625 -1.421875 35.59375 -1.421875 
Q 29.59375 -1.421875 25.265625 0.953125 
Q 20.953125 3.328125 18.109375 8.203125 
L 18.109375 0 
L 9.078125 0 
L 9.078125 75.984375 
L 18.109375 75.984375 
z
" id="DejaVuSans-62"/>
     <path d="M 30.609375 48.390625 
Q 23.390625 48.390625 19.1875 42.75 
Q 14.984375 37.109375 14.984375 27.296875 
Q 14.984375 17.484375 19.15625 11.84375 
Q 23.34375 6.203125 30.609375 6.203125 
Q 37.796875 6.203125 41.984375 11.859375 
Q 46.1875 17.53125 46.1875 27.296875 
Q 46.1875 37.015625 41.984375 42.703125 
Q 37.796875 48.390625 30.609375 48.390625 
z
M 30.609375 56 
Q 42.328125 56 49.015625 48.375 
Q 55.71875 40.765625 55.71875 27.296875 
Q 55.71875 13.875 49.015625 6.21875 
Q 42.328125 -1.421875 30.609375 -1.421875 
Q 18.84375 -1.421875 12.171875 6.21875 
Q 5.515625 13.875 5.515625 27.296875 
Q 5.515625 40.765625 12.171875 48.375 
Q 18.84375 56 30.609375 56 
z
" id="DejaVuSans-6f"/>
     <path d="M 41.109375 46.296875 
Q 39.59375 47.171875 37.8125 47.578125 
Q 36.03125 48 33.890625 48 
Q 26.265625 48 22.1875 43.046875 
Q 18.109375 38.09375 18.109375 28.8125 
L 18.109375 0 
L 9.078125 0 
L 9.078125 54.6875 
L 18.109375 54.6875 
L 18.109375 46.1875 
Q 20.953125 51.171875 25.484375 53.578125 
Q 30.03125 56 36.53125 56 
Q 37.453125 56 38.578125 55.875 
Q 39.703125 55.765625 41.0625 55.515625 
z
" id="DejaVuSans-72"/>
     <path d="M 48.78125 52.59375 
L 48.78125 44.1875 
Q 44.96875 46.296875 41.140625 47.34375 
Q 37.3125 48.390625 33.40625 48.390625 
Q 24.65625 48.390625 19.8125 42.84375 
Q 14.984375 37.3125 14.984375 27.296875 
Q 14.984375 17.28125 19.8125 11.734375 
Q 24.65625 6.203125 33.40625 6.203125 
Q 37.3125 6.203125 41.140625 7.25 
Q 44.96875 8.296875 48.78125 10.40625 
L 48.78125 2.09375 
Q 45.015625 0.34375 40.984375 -0.53125 
Q 36.96875 -1.421875 32.421875 -1.421875 
Q 20.0625 -1.421875 12.78125 6.34375 
Q 5.515625 14.109375 5.515625 27.296875 
Q 5.515625 40.671875 12.859375 48.328125 
Q 20.21875 56 33.015625 56 
Q 37.15625 56 41.109375 55.140625 
Q 45.0625 54.296875 48.78125 52.59375 
z
" id="DejaVuSans-63"/>
     <path d="M 34.28125 27.484375 
Q 23.390625 27.484375 19.1875 25 
Q 14.984375 22.515625 14.984375 16.5 
Q 14.984375 11.71875 18.140625 8.90625 
Q 21.296875 6.109375 26.703125 6.109375 
Q 34.1875 6.109375 38.703125 11.40625 
Q 43.21875 16.703125 43.21875 25.484375 
L 43.21875 27.484375 
z
M 52.203125 31.203125 
L 52.203125 0 
L 43.21875 0 
L 43.21875 8.296875 
Q 40.140625 3.328125 35.546875 0.953125 
Q 30.953125 -1.421875 24.3125 -1.421875 
Q 15.921875 -1.421875 10.953125 3.296875 
Q 6 8.015625 6 15.921875 
Q 6 25.140625 12.171875 29.828125 
Q 18.359375 34.515625 30.609375 34.515625 
L 43.21875 34.515625 
L 43.21875 35.40625 
Q 43.21875 41.609375 39.140625 45 
Q 35.0625 48.390625 27.6875 48.390625 
Q 23 48.390625 18.546875 47.265625 
Q 14.109375 46.140625 10.015625 43.890625 
L 10.015625 52.203125 
Q 14.9375 54.109375 19.578125 55.046875 
Q 24.21875 56 28.609375 56 
Q 40.484375 56 46.34375 49.84375 
Q 52.203125 43.703125 52.203125 31.203125 
z
" id="DejaVuSans-61"/>
     <path d="M 9.421875 75.984375 
L 18.40625 75.984375 
L 18.40625 0 
L 9.421875 0 
z
" id="DejaVuSans-6c"/>
     <path d="M 9.421875 54.6875 
L 18.40625 54.6875 
L 18.40625 0 
L 9.421875 0 
z
M 9.421875 75.984375 
L 18.40625 75.984375 
L 18.40625 64.59375 
L 9.421875 64.59375 
z
" id="DejaVuSans-69"/>
    </defs>
    <g transform="translate(493.433608 109.8624)scale(0.12 -0.12)">
     <use xlink:href="#DejaVuSans-4c"/>
     <use x="55.697266" xlink:href="#DejaVuSans-65"/>
     <use x="117.220703" xlink:href="#DejaVuSans-66"/>
     <use x="152.410156" xlink:href="#DejaVuSans-74"/>
     <use x="191.619141" xlink:href="#DejaVuSans-20"/>
     <use x="223.40625" xlink:href="#DejaVuSans-4c"/>
     <use x="279.103516" xlink:href="#DejaVuSans-65"/>
     <use x="340.626953" xlink:href="#DejaVuSans-67"/>
     <use x="404.103516" xlink:href="#DejaVuSans-20"/>
     <use x="435.890625" xlink:href="#DejaVuSans-62"/>
     <use x="499.367188" xlink:href="#DejaVuSans-65"/>
     <use x="560.890625" xlink:href="#DejaVuSans-66"/>
     <use x="596.095703" xlink:href="#DejaVuSans-6f"/>
     <use x="657.277344" xlink:href="#DejaVuSans-72"/>
     <use x="698.359375" xlink:href="#DejaVuSans-65"/>
     <use x="759.882812" xlink:href="#DejaVuSans-20"/>
     <use x="791.669922" xlink:href="#DejaVuSans-63"/>
     <use x="846.650391" xlink:href="#DejaVuSans-61"/>
     <use x="907.929688" xlink:href="#DejaVuSans-6c"/>
     <use x="935.712891" xlink:href="#DejaVuSans-69"/>
     <use x="963.496094" xlink:href="#DejaVuSans-62"/>
    </g>
   </g>
  </g>
  <g id="axes_2">
   <g id="patch_7">
    <path d="M 1009.570909 453.7944 
L 1658.88 453.7944 
L 1658.88 115.8624 
L 1009.570909 115.8624 
z
" style="fill:#ffffff;"/>
   </g>
   <g id="matplotlib.axis_3">
    <g id="xtick_10">
     <g id="line2d_18">
      <g>
       <use style="stroke:#000000;stroke-width:0.8;" x="1039.084959" xlink:href="#m1c3a2cb512" y="453.7944"/>
      </g>
     </g>
     <g id="text_17">
      <!-- −100 -->
      <g transform="translate(1025.351365 468.392837)scale(0.1 -0.1)">
       <use xlink:href="#DejaVuSans-2212"/>
       <use x="83.789062" xlink:href="#DejaVuSans-31"/>
       <use x="147.412109" xlink:href="#DejaVuSans-30"/>
       <use x="211.035156" xlink:href="#DejaVuSans-30"/>
      </g>
     </g>
    </g>
    <g id="xtick_11">
     <g id="line2d_19">
      <g>
       <use style="stroke:#000000;stroke-width:0.8;" x="1112.870083" xlink:href="#m1c3a2cb512" y="453.7944"/>
      </g>
     </g>
     <g id="text_18">
      <!-- −75 -->
      <g transform="translate(1102.317739 468.392837)scale(0.1 -0.1)">
       <use xlink:href="#DejaVuSans-2212"/>
       <use x="83.789062" xlink:href="#DejaVuSans-37"/>
       <use x="147.412109" xlink:href="#DejaVuSans-35"/>
      </g>
     </g>
    </g>
    <g id="xtick_12">
     <g id="line2d_20">
      <g>
       <use style="stroke:#000000;stroke-width:0.8;" x="1186.655207" xlink:href="#m1c3a2cb512" y="453.7944"/>
      </g>
     </g>
     <g id="text_19">
      <!-- −50 -->
      <g transform="translate(1176.102863 468.392837)scale(0.1 -0.1)">
       <use xlink:href="#DejaVuSans-2212"/>
       <use x="83.789062" xlink:href="#DejaVuSans-35"/>
       <use x="147.412109" xlink:href="#DejaVuSans-30"/>
      </g>
     </g>
    </g>
    <g id="xtick_13">
     <g id="line2d_21">
      <g>
       <use style="stroke:#000000;stroke-width:0.8;" x="1260.440331" xlink:href="#m1c3a2cb512" y="453.7944"/>
      </g>
     </g>
     <g id="text_20">
      <!-- −25 -->
      <g transform="translate(1249.887987 468.392837)scale(0.1 -0.1)">
       <use xlink:href="#DejaVuSans-2212"/>
       <use x="83.789062" xlink:href="#DejaVuSans-32"/>
       <use x="147.412109" xlink:href="#DejaVuSans-35"/>
      </g>
     </g>
    </g>
    <g id="xtick_14">
     <g id="line2d_22">
      <g>
       <use style="stroke:#000000;stroke-width:0.8;" x="1334.225455" xlink:href="#m1c3a2cb512" y="453.7944"/>
      </g>
     </g>
     <g id="text_21">
      <!-- 0 -->
      <g transform="translate(1331.044205 468.392837)scale(0.1 -0.1)">
       <use xlink:href="#DejaVuSans-30"/>
      </g>
     </g>
    </g>
    <g id="xtick_15">
     <g id="line2d_23">
      <g>
       <use style="stroke:#000000;stroke-width:0.8;" x="1408.010579" xlink:href="#m1c3a2cb512" y="453.7944"/>
      </g>
     </g>
     <g id="text_22">
      <!-- 25 -->
      <g transform="translate(1401.648079 468.392837)scale(0.1 -0.1)">
       <use xlink:href="#DejaVuSans-32"/>
       <use x="63.623047" xlink:href="#DejaVuSans-35"/>
      </g>
     </g>
    </g>
    <g id="xtick_16">
     <g id="line2d_24">
      <g>
       <use style="stroke:#000000;stroke-width:0.8;" x="1481.795702" xlink:href="#m1c3a2cb512" y="453.7944"/>
      </g>
     </g>
     <g id="text_23">
      <!-- 50 -->
      <g transform="translate(1475.433202 468.392837)scale(0.1 -0.1)">
       <use xlink:href="#DejaVuSans-35"/>
       <use x="63.623047" xlink:href="#DejaVuSans-30"/>
      </g>
     </g>
    </g>
    <g id="xtick_17">
     <g id="line2d_25">
      <g>
       <use style="stroke:#000000;stroke-width:0.8;" x="1555.580826" xlink:href="#m1c3a2cb512" y="453.7944"/>
      </g>
     </g>
     <g id="text_24">
      <!-- 75 -->
      <g transform="translate(1549.218326 468.392837)scale(0.1 -0.1)">
       <use xlink:href="#DejaVuSans-37"/>
       <use x="63.623047" xlink:href="#DejaVuSans-35"/>
      </g>
     </g>
    </g>
    <g id="xtick_18">
     <g id="line2d_26">
      <g>
       <use style="stroke:#000000;stroke-width:0.8;" x="1629.36595" xlink:href="#m1c3a2cb512" y="453.7944"/>
      </g>
     </g>
     <g id="text_25">
      <!-- 100 -->
      <g transform="translate(1619.8222 468.392837)scale(0.1 -0.1)">
       <use xlink:href="#DejaVuSans-31"/>
       <use x="63.623047" xlink:href="#DejaVuSans-30"/>
       <use x="127.246094" xlink:href="#DejaVuSans-30"/>
      </g>
     </g>
    </g>
   </g>
   <g id="matplotlib.axis_4">
    <g id="ytick_7">
     <g id="line2d_27">
      <g>
       <use style="stroke:#000000;stroke-width:0.8;" x="1009.570909" xlink:href="#m2db3a01a81" y="438.433855"/>
      </g>
     </g>
     <g id="text_26">
      <!-- 0.0 -->
      <g transform="translate(986.667784 442.233073)scale(0.1 -0.1)">
       <use xlink:href="#DejaVuSans-30"/>
       <use x="63.623047" xlink:href="#DejaVuSans-2e"/>
       <use x="95.410156" xlink:href="#DejaVuSans-30"/>
      </g>
     </g>
    </g>
    <g id="ytick_8">
     <g id="line2d_28">
      <g>
       <use style="stroke:#000000;stroke-width:0.8;" x="1009.570909" xlink:href="#m2db3a01a81" y="376.991673"/>
      </g>
     </g>
     <g id="text_27">
      <!-- 0.2 -->
      <g transform="translate(986.667784 380.790891)scale(0.1 -0.1)">
       <use xlink:href="#DejaVuSans-30"/>
       <use x="63.623047" xlink:href="#DejaVuSans-2e"/>
       <use x="95.410156" xlink:href="#DejaVuSans-32"/>
      </g>
     </g>
    </g>
    <g id="ytick_9">
     <g id="line2d_29">
      <g>
       <use style="stroke:#000000;stroke-width:0.8;" x="1009.570909" xlink:href="#m2db3a01a81" y="315.549491"/>
      </g>
     </g>
     <g id="text_28">
      <!-- 0.4 -->
      <g transform="translate(986.667784 319.34871)scale(0.1 -0.1)">
       <use xlink:href="#DejaVuSans-30"/>
       <use x="63.623047" xlink:href="#DejaVuSans-2e"/>
       <use x="95.410156" xlink:href="#DejaVuSans-34"/>
      </g>
     </g>
    </g>
    <g id="ytick_10">
     <g id="line2d_30">
      <g>
       <use style="stroke:#000000;stroke-width:0.8;" x="1009.570909" xlink:href="#m2db3a01a81" y="254.107309"/>
      </g>
     </g>
     <g id="text_29">
      <!-- 0.6 -->
      <g transform="translate(986.667784 257.906528)scale(0.1 -0.1)">
       <use xlink:href="#DejaVuSans-30"/>
       <use x="63.623047" xlink:href="#DejaVuSans-2e"/>
       <use x="95.410156" xlink:href="#DejaVuSans-36"/>
      </g>
     </g>
    </g>
    <g id="ytick_11">
     <g id="line2d_31">
      <g>
       <use style="stroke:#000000;stroke-width:0.8;" x="1009.570909" xlink:href="#m2db3a01a81" y="192.665127"/>
      </g>
     </g>
     <g id="text_30">
      <!-- 0.8 -->
      <g transform="translate(986.667784 196.464346)scale(0.1 -0.1)">
       <use xlink:href="#DejaVuSans-30"/>
       <use x="63.623047" xlink:href="#DejaVuSans-2e"/>
       <use x="95.410156" xlink:href="#DejaVuSans-38"/>
      </g>
     </g>
    </g>
    <g id="ytick_12">
     <g id="line2d_32">
      <g>
       <use style="stroke:#000000;stroke-width:0.8;" x="1009.570909" xlink:href="#m2db3a01a81" y="131.222945"/>
      </g>
     </g>
     <g id="text_31">
      <!-- 1.0 -->
      <g transform="translate(986.667784 135.022164)scale(0.1 -0.1)">
       <use xlink:href="#DejaVuSans-31"/>
       <use x="63.623047" xlink:href="#DejaVuSans-2e"/>
       <use x="95.410156" xlink:href="#DejaVuSans-30"/>
      </g>
     </g>
    </g>
   </g>
   <g id="line2d_33">
    <path clip-path="url(#p8d759b26a2)" d="M 1039.084959 438.433855 
L 1185.768014 438.355285 
L 1189.316784 438.300628 
L 1198.780168 438.225475 
L 1204.694784 438.071751 
L 1214.158169 438.232307 
L 1216.524015 437.921445 
L 1223.621849 437.88387 
L 1230.719388 437.658408 
L 1235.45108 437.678905 
L 1237.816926 437.678905 
L 1243.731542 437.733561 
L 1247.280311 437.560866 
L 1248.463234 437.608281 
L 1249.646157 437.506373 
L 1252.012003 437.484849 
L 1253.194927 437.436159 
L 1254.37785 437.225597 
L 1256.743696 437.232061 
L 1259.109542 437.362816 
L 1261.475388 437.379402 
L 1266.207081 437.444184 
L 1267.390004 437.359523 
L 1268.572927 437.427598 
L 1272.121696 437.390434 
L 1273.304619 437.468675 
L 1274.487542 437.325938 
L 1275.670466 437.027136 
L 1279.219235 436.905846 
L 1280.402158 436.757064 
L 1281.585081 436.488798 
L 1285.13385 436.433073 
L 1286.316774 436.588113 
L 1289.865543 436.369812 
L 1293.414312 436.573542 
L 1294.597235 436.326145 
L 1295.780158 436.559014 
L 1296.963082 436.666722 
L 1298.1463 436.92453 
L 1304.060915 437.272066 
L 1305.24372 436.903253 
L 1307.609567 435.694378 
L 1308.792519 435.407391 
L 1313.524212 435.84983 
L 1314.707135 435.736073 
L 1319.438857 436.955771 
L 1321.804703 437.389322 
L 1324.170579 437.706398 
L 1333.63399 438.358825 
L 1334.816919 400.327106 
L 1335.999851 438.331373 
L 1339.548609 438.03644 
L 1344.28033 437.506744 
L 1345.463283 437.38397 
L 1350.194976 436.398748 
L 1352.560851 435.600501 
L 1356.109621 435.238615 
L 1357.292544 434.957917 
L 1358.475467 435.041447 
L 1359.65839 434.983753 
L 1360.841343 435.253546 
L 1363.207189 436.92128 
L 1364.389994 437.465544 
L 1377.402443 436.833737 
L 1378.585366 436.870326 
L 1379.768289 436.714506 
L 1380.951212 436.728622 
L 1382.134136 436.613836 
L 1383.317059 436.713725 
L 1384.499982 436.661496 
L 1385.682905 436.494355 
L 1386.865828 436.688454 
L 1390.414597 436.886667 
L 1392.780444 437.243296 
L 1398.695059 437.290996 
L 1401.060905 437.155836 
L 1402.243828 437.043888 
L 1408.158444 437.082084 
L 1411.707213 437.049651 
L 1412.890136 437.115173 
L 1415.255983 436.986762 
L 1416.438906 437.259799 
L 1417.621829 437.120854 
L 1418.804752 437.313386 
L 1419.987675 437.281531 
L 1422.353521 437.493325 
L 1425.902291 437.485341 
L 1431.816906 437.522547 
L 1432.999829 437.459001 
L 1435.365675 437.550371 
L 1436.548598 437.437763 
L 1437.731522 437.638283 
L 1438.914445 437.461471 
L 1444.82906 437.713353 
L 1446.011983 437.60511 
L 1447.195202 437.787108 
L 1449.561048 437.851973 
L 1455.475663 438.042695 
L 1462.573202 437.999234 
L 1463.756125 438.078912 
L 1464.939048 438.035451 
L 1466.121971 438.107888 
L 1467.304894 438.031829 
L 1468.487818 438.129619 
L 1469.670741 438.057183 
L 1470.853664 438.180325 
L 1472.036587 438.07529 
L 1473.21951 438.220165 
L 1474.402433 438.183947 
L 1475.585356 438.270871 
L 1477.951202 438.274493 
L 1481.499972 438.372283 
L 1489.780433 438.433855 
L 1629.36595 438.433855 
L 1629.36595 438.433855 
" style="fill:none;stroke:#1f77b4;stroke-linecap:square;stroke-width:1.5;"/>
   </g>
   <g id="line2d_34">
    <path clip-path="url(#p8d759b26a2)" d="M 1334.225455 131.222945 
" style="fill:none;stroke:#ff7f0e;stroke-linecap:square;stroke-width:1.5;"/>
   </g>
   <g id="patch_8">
    <path d="M 1009.570909 453.7944 
L 1009.570909 115.8624 
" style="fill:none;stroke:#000000;stroke-linecap:square;stroke-linejoin:miter;stroke-width:0.8;"/>
   </g>
   <g id="patch_9">
    <path d="M 1658.88 453.7944 
L 1658.88 115.8624 
" style="fill:none;stroke:#000000;stroke-linecap:square;stroke-linejoin:miter;stroke-width:0.8;"/>
   </g>
   <g id="patch_10">
    <path d="M 1009.570909 453.7944 
L 1658.88 453.7944 
" style="fill:none;stroke:#000000;stroke-linecap:square;stroke-linejoin:miter;stroke-width:0.8;"/>
   </g>
   <g id="patch_11">
    <path d="M 1009.570909 115.8624 
L 1658.88 115.8624 
" style="fill:none;stroke:#000000;stroke-linecap:square;stroke-linejoin:miter;stroke-width:0.8;"/>
   </g>
   <g id="text_32">
    <!-- Left Leg Y before calib -->
    <defs>
     <path d="M -0.203125 72.90625 
L 10.40625 72.90625 
L 30.609375 42.921875 
L 50.6875 72.90625 
L 61.28125 72.90625 
L 35.5 34.71875 
L 35.5 0 
L 25.59375 0 
L 25.59375 34.71875 
z
" id="DejaVuSans-59"/>
    </defs>
    <g transform="translate(1267.032955 109.8624)scale(0.12 -0.12)">
     <use xlink:href="#DejaVuSans-4c"/>
     <use x="55.697266" xlink:href="#DejaVuSans-65"/>
     <use x="117.220703" xlink:href="#DejaVuSans-66"/>
     <use x="152.410156" xlink:href="#DejaVuSans-74"/>
     <use x="191.619141" xlink:href="#DejaVuSans-20"/>
     <use x="223.40625" xlink:href="#DejaVuSans-4c"/>
     <use x="279.103516" xlink:href="#DejaVuSans-65"/>
     <use x="340.626953" xlink:href="#DejaVuSans-67"/>
     <use x="404.103516" xlink:href="#DejaVuSans-20"/>
     <use x="435.890625" xlink:href="#DejaVuSans-59"/>
     <use x="496.974609" xlink:href="#DejaVuSans-20"/>
     <use x="528.761719" xlink:href="#DejaVuSans-62"/>
     <use x="592.238281" xlink:href="#DejaVuSans-65"/>
     <use x="653.761719" xlink:href="#DejaVuSans-66"/>
     <use x="688.966797" xlink:href="#DejaVuSans-6f"/>
     <use x="750.148438" xlink:href="#DejaVuSans-72"/>
     <use x="791.230469" xlink:href="#DejaVuSans-65"/>
     <use x="852.753906" xlink:href="#DejaVuSans-20"/>
     <use x="884.541016" xlink:href="#DejaVuSans-63"/>
     <use x="939.521484" xlink:href="#DejaVuSans-61"/>
     <use x="1000.800781" xlink:href="#DejaVuSans-6c"/>
     <use x="1028.583984" xlink:href="#DejaVuSans-69"/>
     <use x="1056.367188" xlink:href="#DejaVuSans-62"/>
    </g>
   </g>
  </g>
  <g id="axes_3">
   <g id="patch_12">
    <path d="M 230.4 859.3128 
L 879.709091 859.3128 
L 879.709091 521.3808 
L 230.4 521.3808 
z
" style="fill:#ffffff;"/>
   </g>
   <g id="matplotlib.axis_5">
    <g id="xtick_19">
     <g id="line2d_35">
      <g>
       <use style="stroke:#000000;stroke-width:0.8;" x="259.91405" xlink:href="#m1c3a2cb512" y="859.3128"/>
      </g>
     </g>
     <g id="text_33">
      <!-- −100 -->
      <g transform="translate(246.180456 873.911237)scale(0.1 -0.1)">
       <use xlink:href="#DejaVuSans-2212"/>
       <use x="83.789062" xlink:href="#DejaVuSans-31"/>
       <use x="147.412109" xlink:href="#DejaVuSans-30"/>
       <use x="211.035156" xlink:href="#DejaVuSans-30"/>
      </g>
     </g>
    </g>
    <g id="xtick_20">
     <g id="line2d_36">
      <g>
       <use style="stroke:#000000;stroke-width:0.8;" x="333.699174" xlink:href="#m1c3a2cb512" y="859.3128"/>
      </g>
     </g>
     <g id="text_34">
      <!-- −75 -->
      <g transform="translate(323.14683 873.911237)scale(0.1 -0.1)">
       <use xlink:href="#DejaVuSans-2212"/>
       <use x="83.789062" xlink:href="#DejaVuSans-37"/>
       <use x="147.412109" xlink:href="#DejaVuSans-35"/>
      </g>
     </g>
    </g>
    <g id="xtick_21">
     <g id="line2d_37">
      <g>
       <use style="stroke:#000000;stroke-width:0.8;" x="407.484298" xlink:href="#m1c3a2cb512" y="859.3128"/>
      </g>
     </g>
     <g id="text_35">
      <!-- −50 -->
      <g transform="translate(396.931954 873.911237)scale(0.1 -0.1)">
       <use xlink:href="#DejaVuSans-2212"/>
       <use x="83.789062" xlink:href="#DejaVuSans-35"/>
       <use x="147.412109" xlink:href="#DejaVuSans-30"/>
      </g>
     </g>
    </g>
    <g id="xtick_22">
     <g id="line2d_38">
      <g>
       <use style="stroke:#000000;stroke-width:0.8;" x="481.269421" xlink:href="#m1c3a2cb512" y="859.3128"/>
      </g>
     </g>
     <g id="text_36">
      <!-- −25 -->
      <g transform="translate(470.717078 873.911237)scale(0.1 -0.1)">
       <use xlink:href="#DejaVuSans-2212"/>
       <use x="83.789062" xlink:href="#DejaVuSans-32"/>
       <use x="147.412109" xlink:href="#DejaVuSans-35"/>
      </g>
     </g>
    </g>
    <g id="xtick_23">
     <g id="line2d_39">
      <g>
       <use style="stroke:#000000;stroke-width:0.8;" x="555.054545" xlink:href="#m1c3a2cb512" y="859.3128"/>
      </g>
     </g>
     <g id="text_37">
      <!-- 0 -->
      <g transform="translate(551.873295 873.911237)scale(0.1 -0.1)">
       <use xlink:href="#DejaVuSans-30"/>
      </g>
     </g>
    </g>
    <g id="xtick_24">
     <g id="line2d_40">
      <g>
       <use style="stroke:#000000;stroke-width:0.8;" x="628.839669" xlink:href="#m1c3a2cb512" y="859.3128"/>
      </g>
     </g>
     <g id="text_38">
      <!-- 25 -->
      <g transform="translate(622.477169 873.911237)scale(0.1 -0.1)">
       <use xlink:href="#DejaVuSans-32"/>
       <use x="63.623047" xlink:href="#DejaVuSans-35"/>
      </g>
     </g>
    </g>
    <g id="xtick_25">
     <g id="line2d_41">
      <g>
       <use style="stroke:#000000;stroke-width:0.8;" x="702.624793" xlink:href="#m1c3a2cb512" y="859.3128"/>
      </g>
     </g>
     <g id="text_39">
      <!-- 50 -->
      <g transform="translate(696.262293 873.911237)scale(0.1 -0.1)">
       <use xlink:href="#DejaVuSans-35"/>
       <use x="63.623047" xlink:href="#DejaVuSans-30"/>
      </g>
     </g>
    </g>
    <g id="xtick_26">
     <g id="line2d_42">
      <g>
       <use style="stroke:#000000;stroke-width:0.8;" x="776.409917" xlink:href="#m1c3a2cb512" y="859.3128"/>
      </g>
     </g>
     <g id="text_40">
      <!-- 75 -->
      <g transform="translate(770.047417 873.911237)scale(0.1 -0.1)">
       <use xlink:href="#DejaVuSans-37"/>
       <use x="63.623047" xlink:href="#DejaVuSans-35"/>
      </g>
     </g>
    </g>
    <g id="xtick_27">
     <g id="line2d_43">
      <g>
       <use style="stroke:#000000;stroke-width:0.8;" x="850.195041" xlink:href="#m1c3a2cb512" y="859.3128"/>
      </g>
     </g>
     <g id="text_41">
      <!-- 100 -->
      <g transform="translate(840.651291 873.911237)scale(0.1 -0.1)">
       <use xlink:href="#DejaVuSans-31"/>
       <use x="63.623047" xlink:href="#DejaVuSans-30"/>
       <use x="127.246094" xlink:href="#DejaVuSans-30"/>
      </g>
     </g>
    </g>
   </g>
   <g id="matplotlib.axis_6">
    <g id="ytick_13">
     <g id="line2d_44">
      <g>
       <use style="stroke:#000000;stroke-width:0.8;" x="230.4" xlink:href="#m2db3a01a81" y="843.952296"/>
      </g>
     </g>
     <g id="text_42">
      <!-- 0.0 -->
      <g transform="translate(207.496875 847.751515)scale(0.1 -0.1)">
       <use xlink:href="#DejaVuSans-30"/>
       <use x="63.623047" xlink:href="#DejaVuSans-2e"/>
       <use x="95.410156" xlink:href="#DejaVuSans-30"/>
      </g>
     </g>
    </g>
    <g id="ytick_14">
     <g id="line2d_45">
      <g>
       <use style="stroke:#000000;stroke-width:0.8;" x="230.4" xlink:href="#m2db3a01a81" y="782.510106"/>
      </g>
     </g>
     <g id="text_43">
      <!-- 0.2 -->
      <g transform="translate(207.496875 786.309325)scale(0.1 -0.1)">
       <use xlink:href="#DejaVuSans-30"/>
       <use x="63.623047" xlink:href="#DejaVuSans-2e"/>
       <use x="95.410156" xlink:href="#DejaVuSans-32"/>
      </g>
     </g>
    </g>
    <g id="ytick_15">
     <g id="line2d_46">
      <g>
       <use style="stroke:#000000;stroke-width:0.8;" x="230.4" xlink:href="#m2db3a01a81" y="721.067916"/>
      </g>
     </g>
     <g id="text_44">
      <!-- 0.4 -->
      <g transform="translate(207.496875 724.867135)scale(0.1 -0.1)">
       <use xlink:href="#DejaVuSans-30"/>
       <use x="63.623047" xlink:href="#DejaVuSans-2e"/>
       <use x="95.410156" xlink:href="#DejaVuSans-34"/>
      </g>
     </g>
    </g>
    <g id="ytick_16">
     <g id="line2d_47">
      <g>
       <use style="stroke:#000000;stroke-width:0.8;" x="230.4" xlink:href="#m2db3a01a81" y="659.625726"/>
      </g>
     </g>
     <g id="text_45">
      <!-- 0.6 -->
      <g transform="translate(207.496875 663.424944)scale(0.1 -0.1)">
       <use xlink:href="#DejaVuSans-30"/>
       <use x="63.623047" xlink:href="#DejaVuSans-2e"/>
       <use x="95.410156" xlink:href="#DejaVuSans-36"/>
      </g>
     </g>
    </g>
    <g id="ytick_17">
     <g id="line2d_48">
      <g>
       <use style="stroke:#000000;stroke-width:0.8;" x="230.4" xlink:href="#m2db3a01a81" y="598.183536"/>
      </g>
     </g>
     <g id="text_46">
      <!-- 0.8 -->
      <g transform="translate(207.496875 601.982754)scale(0.1 -0.1)">
       <use xlink:href="#DejaVuSans-30"/>
       <use x="63.623047" xlink:href="#DejaVuSans-2e"/>
       <use x="95.410156" xlink:href="#DejaVuSans-38"/>
      </g>
     </g>
    </g>
    <g id="ytick_18">
     <g id="line2d_49">
      <g>
       <use style="stroke:#000000;stroke-width:0.8;" x="230.4" xlink:href="#m2db3a01a81" y="536.741345"/>
      </g>
     </g>
     <g id="text_47">
      <!-- 1.0 -->
      <g transform="translate(207.496875 540.540564)scale(0.1 -0.1)">
       <use xlink:href="#DejaVuSans-31"/>
       <use x="63.623047" xlink:href="#DejaVuSans-2e"/>
       <use x="95.410156" xlink:href="#DejaVuSans-30"/>
      </g>
     </g>
    </g>
   </g>
   <g id="line2d_50">
    <path clip-path="url(#pdc6ba64d2e)" d="M 259.91405 817.34153 
L 261.096973 843.945773 
L 280.023742 843.935801 
L 293.035897 843.942449 
L 320.243423 843.939125 
L 359.279886 843.939083 
L 369.926194 843.922422 
L 553.280149 843.872895 
L 554.463081 788.422995 
L 555.64601 740.344174 
L 556.828942 837.102014 
L 559.194776 832.955619 
L 560.377699 837.01664 
L 561.560652 842.010062 
L 562.743575 843.804587 
L 565.109421 843.94839 
L 571.024066 843.925663 
L 589.950777 843.925746 
L 849.012118 843.922837 
L 850.195041 768.891752 
L 850.195041 768.891752 
" style="fill:none;stroke:#1f77b4;stroke-linecap:square;stroke-width:1.5;"/>
   </g>
   <g id="line2d_51">
    <path clip-path="url(#pdc6ba64d2e)" d="M 555.054545 536.741345 
" style="fill:none;stroke:#ff7f0e;stroke-linecap:square;stroke-width:1.5;"/>
   </g>
   <g id="patch_13">
    <path d="M 230.4 859.3128 
L 230.4 521.3808 
" style="fill:none;stroke:#000000;stroke-linecap:square;stroke-linejoin:miter;stroke-width:0.8;"/>
   </g>
   <g id="patch_14">
    <path d="M 879.709091 859.3128 
L 879.709091 521.3808 
" style="fill:none;stroke:#000000;stroke-linecap:square;stroke-linejoin:miter;stroke-width:0.8;"/>
   </g>
   <g id="patch_15">
    <path d="M 230.4 859.3128 
L 879.709091 859.3128 
" style="fill:none;stroke:#000000;stroke-linecap:square;stroke-linejoin:miter;stroke-width:0.8;"/>
   </g>
   <g id="patch_16">
    <path d="M 230.4 521.3808 
L 879.709091 521.3808 
" style="fill:none;stroke:#000000;stroke-linecap:square;stroke-linejoin:miter;stroke-width:0.8;"/>
   </g>
   <g id="text_48">
    <!-- Left Leg after calib -->
    <g transform="translate(498.575795 515.3808)scale(0.12 -0.12)">
     <use xlink:href="#DejaVuSans-4c"/>
     <use x="55.697266" xlink:href="#DejaVuSans-65"/>
     <use x="117.220703" xlink:href="#DejaVuSans-66"/>
     <use x="152.410156" xlink:href="#DejaVuSans-74"/>
     <use x="191.619141" xlink:href="#DejaVuSans-20"/>
     <use x="223.40625" xlink:href="#DejaVuSans-4c"/>
     <use x="279.103516" xlink:href="#DejaVuSans-65"/>
     <use x="340.626953" xlink:href="#DejaVuSans-67"/>
     <use x="404.103516" xlink:href="#DejaVuSans-20"/>
     <use x="435.890625" xlink:href="#DejaVuSans-61"/>
     <use x="497.169922" xlink:href="#DejaVuSans-66"/>
     <use x="532.359375" xlink:href="#DejaVuSans-74"/>
     <use x="571.568359" xlink:href="#DejaVuSans-65"/>
     <use x="633.091797" xlink:href="#DejaVuSans-72"/>
     <use x="674.205078" xlink:href="#DejaVuSans-20"/>
     <use x="705.992188" xlink:href="#DejaVuSans-63"/>
     <use x="760.972656" xlink:href="#DejaVuSans-61"/>
     <use x="822.251953" xlink:href="#DejaVuSans-6c"/>
     <use x="850.035156" xlink:href="#DejaVuSans-69"/>
     <use x="877.818359" xlink:href="#DejaVuSans-62"/>
    </g>
   </g>
  </g>
  <g id="axes_4">
   <g id="patch_17">
    <path d="M 1009.570909 859.3128 
L 1658.88 859.3128 
L 1658.88 521.3808 
L 1009.570909 521.3808 
z
" style="fill:#ffffff;"/>
   </g>
   <g id="matplotlib.axis_7">
    <g id="xtick_28">
     <g id="line2d_52">
      <g>
       <use style="stroke:#000000;stroke-width:0.8;" x="1039.084959" xlink:href="#m1c3a2cb512" y="859.3128"/>
      </g>
     </g>
     <g id="text_49">
      <!-- −100 -->
      <g transform="translate(1025.351365 873.911237)scale(0.1 -0.1)">
       <use xlink:href="#DejaVuSans-2212"/>
       <use x="83.789062" xlink:href="#DejaVuSans-31"/>
       <use x="147.412109" xlink:href="#DejaVuSans-30"/>
       <use x="211.035156" xlink:href="#DejaVuSans-30"/>
      </g>
     </g>
    </g>
    <g id="xtick_29">
     <g id="line2d_53">
      <g>
       <use style="stroke:#000000;stroke-width:0.8;" x="1112.870083" xlink:href="#m1c3a2cb512" y="859.3128"/>
      </g>
     </g>
     <g id="text_50">
      <!-- −75 -->
      <g transform="translate(1102.317739 873.911237)scale(0.1 -0.1)">
       <use xlink:href="#DejaVuSans-2212"/>
       <use x="83.789062" xlink:href="#DejaVuSans-37"/>
       <use x="147.412109" xlink:href="#DejaVuSans-35"/>
      </g>
     </g>
    </g>
    <g id="xtick_30">
     <g id="line2d_54">
      <g>
       <use style="stroke:#000000;stroke-width:0.8;" x="1186.655207" xlink:href="#m1c3a2cb512" y="859.3128"/>
      </g>
     </g>
     <g id="text_51">
      <!-- −50 -->
      <g transform="translate(1176.102863 873.911237)scale(0.1 -0.1)">
       <use xlink:href="#DejaVuSans-2212"/>
       <use x="83.789062" xlink:href="#DejaVuSans-35"/>
       <use x="147.412109" xlink:href="#DejaVuSans-30"/>
      </g>
     </g>
    </g>
    <g id="xtick_31">
     <g id="line2d_55">
      <g>
       <use style="stroke:#000000;stroke-width:0.8;" x="1260.440331" xlink:href="#m1c3a2cb512" y="859.3128"/>
      </g>
     </g>
     <g id="text_52">
      <!-- −25 -->
      <g transform="translate(1249.887987 873.911237)scale(0.1 -0.1)">
       <use xlink:href="#DejaVuSans-2212"/>
       <use x="83.789062" xlink:href="#DejaVuSans-32"/>
       <use x="147.412109" xlink:href="#DejaVuSans-35"/>
      </g>
     </g>
    </g>
    <g id="xtick_32">
     <g id="line2d_56">
      <g>
       <use style="stroke:#000000;stroke-width:0.8;" x="1334.225455" xlink:href="#m1c3a2cb512" y="859.3128"/>
      </g>
     </g>
     <g id="text_53">
      <!-- 0 -->
      <g transform="translate(1331.044205 873.911237)scale(0.1 -0.1)">
       <use xlink:href="#DejaVuSans-30"/>
      </g>
     </g>
    </g>
    <g id="xtick_33">
     <g id="line2d_57">
      <g>
       <use style="stroke:#000000;stroke-width:0.8;" x="1408.010579" xlink:href="#m1c3a2cb512" y="859.3128"/>
      </g>
     </g>
     <g id="text_54">
      <!-- 25 -->
      <g transform="translate(1401.648079 873.911237)scale(0.1 -0.1)">
       <use xlink:href="#DejaVuSans-32"/>
       <use x="63.623047" xlink:href="#DejaVuSans-35"/>
      </g>
     </g>
    </g>
    <g id="xtick_34">
     <g id="line2d_58">
      <g>
       <use style="stroke:#000000;stroke-width:0.8;" x="1481.795702" xlink:href="#m1c3a2cb512" y="859.3128"/>
      </g>
     </g>
     <g id="text_55">
      <!-- 50 -->
      <g transform="translate(1475.433202 873.911237)scale(0.1 -0.1)">
       <use xlink:href="#DejaVuSans-35"/>
       <use x="63.623047" xlink:href="#DejaVuSans-30"/>
      </g>
     </g>
    </g>
    <g id="xtick_35">
     <g id="line2d_59">
      <g>
       <use style="stroke:#000000;stroke-width:0.8;" x="1555.580826" xlink:href="#m1c3a2cb512" y="859.3128"/>
      </g>
     </g>
     <g id="text_56">
      <!-- 75 -->
      <g transform="translate(1549.218326 873.911237)scale(0.1 -0.1)">
       <use xlink:href="#DejaVuSans-37"/>
       <use x="63.623047" xlink:href="#DejaVuSans-35"/>
      </g>
     </g>
    </g>
    <g id="xtick_36">
     <g id="line2d_60">
      <g>
       <use style="stroke:#000000;stroke-width:0.8;" x="1629.36595" xlink:href="#m1c3a2cb512" y="859.3128"/>
      </g>
     </g>
     <g id="text_57">
      <!-- 100 -->
      <g transform="translate(1619.8222 873.911237)scale(0.1 -0.1)">
       <use xlink:href="#DejaVuSans-31"/>
       <use x="63.623047" xlink:href="#DejaVuSans-30"/>
       <use x="127.246094" xlink:href="#DejaVuSans-30"/>
      </g>
     </g>
    </g>
   </g>
   <g id="matplotlib.axis_8">
    <g id="ytick_19">
     <g id="line2d_61">
      <g>
       <use style="stroke:#000000;stroke-width:0.8;" x="1009.570909" xlink:href="#m2db3a01a81" y="843.952338"/>
      </g>
     </g>
     <g id="text_58">
      <!-- 0.0 -->
      <g transform="translate(986.667784 847.751556)scale(0.1 -0.1)">
       <use xlink:href="#DejaVuSans-30"/>
       <use x="63.623047" xlink:href="#DejaVuSans-2e"/>
       <use x="95.410156" xlink:href="#DejaVuSans-30"/>
      </g>
     </g>
    </g>
    <g id="ytick_20">
     <g id="line2d_62">
      <g>
       <use style="stroke:#000000;stroke-width:0.8;" x="1009.570909" xlink:href="#m2db3a01a81" y="782.510139"/>
      </g>
     </g>
     <g id="text_59">
      <!-- 0.2 -->
      <g transform="translate(986.667784 786.309358)scale(0.1 -0.1)">
       <use xlink:href="#DejaVuSans-30"/>
       <use x="63.623047" xlink:href="#DejaVuSans-2e"/>
       <use x="95.410156" xlink:href="#DejaVuSans-32"/>
      </g>
     </g>
    </g>
    <g id="ytick_21">
     <g id="line2d_63">
      <g>
       <use style="stroke:#000000;stroke-width:0.8;" x="1009.570909" xlink:href="#m2db3a01a81" y="721.067941"/>
      </g>
     </g>
     <g id="text_60">
      <!-- 0.4 -->
      <g transform="translate(986.667784 724.86716)scale(0.1 -0.1)">
       <use xlink:href="#DejaVuSans-30"/>
       <use x="63.623047" xlink:href="#DejaVuSans-2e"/>
       <use x="95.410156" xlink:href="#DejaVuSans-34"/>
      </g>
     </g>
    </g>
    <g id="ytick_22">
     <g id="line2d_64">
      <g>
       <use style="stroke:#000000;stroke-width:0.8;" x="1009.570909" xlink:href="#m2db3a01a81" y="659.625742"/>
      </g>
     </g>
     <g id="text_61">
      <!-- 0.6 -->
      <g transform="translate(986.667784 663.424961)scale(0.1 -0.1)">
       <use xlink:href="#DejaVuSans-30"/>
       <use x="63.623047" xlink:href="#DejaVuSans-2e"/>
       <use x="95.410156" xlink:href="#DejaVuSans-36"/>
      </g>
     </g>
    </g>
    <g id="ytick_23">
     <g id="line2d_65">
      <g>
       <use style="stroke:#000000;stroke-width:0.8;" x="1009.570909" xlink:href="#m2db3a01a81" y="598.183544"/>
      </g>
     </g>
     <g id="text_62">
      <!-- 0.8 -->
      <g transform="translate(986.667784 601.982763)scale(0.1 -0.1)">
       <use xlink:href="#DejaVuSans-30"/>
       <use x="63.623047" xlink:href="#DejaVuSans-2e"/>
       <use x="95.410156" xlink:href="#DejaVuSans-38"/>
      </g>
     </g>
    </g>
    <g id="ytick_24">
     <g id="line2d_66">
      <g>
       <use style="stroke:#000000;stroke-width:0.8;" x="1009.570909" xlink:href="#m2db3a01a81" y="536.741345"/>
      </g>
     </g>
     <g id="text_63">
      <!-- 1.0 -->
      <g transform="translate(986.667784 540.540564)scale(0.1 -0.1)">
       <use xlink:href="#DejaVuSans-31"/>
       <use x="63.623047" xlink:href="#DejaVuSans-2e"/>
       <use x="95.410156" xlink:href="#DejaVuSans-30"/>
      </g>
     </g>
    </g>
   </g>
   <g id="line2d_67">
    <path clip-path="url(#p6265ad2312)" d="M 1039.084959 812.720039 
L 1040.267882 843.885858 
L 1053.280036 843.90576 
L 1056.828805 843.909126 
L 1067.475113 843.889182 
L 1075.75587 843.882534 
L 1085.219255 843.852577 
L 1089.950947 843.884363 
L 1095.865563 843.865915 
L 1130.170333 843.875845 
L 1132.536179 843.845971 
L 1134.902026 843.879169 
L 1137.267872 843.859267 
L 1141.999564 843.899154 
L 1151.463244 843.919098 
L 1168.024168 843.91245 
L 1177.487553 843.915691 
L 1211.792323 843.91245 
L 1216.524015 843.91245 
L 1225.987695 843.909126 
L 1266.207081 843.904306 
L 1281.585081 843.902437 
L 1287.499697 843.902437 
L 1332.451058 843.852577 
L 1333.63399 784.238201 
L 1334.816919 739.897517 
L 1335.999851 838.288012 
L 1337.182792 835.70661 
L 1338.365685 834.928752 
L 1340.731561 841.668897 
L 1341.914484 843.51698 
L 1343.097407 843.884529 
L 1349.012052 843.915566 
L 1356.109621 843.915442 
L 1380.951212 843.916771 
L 1390.414597 843.928945 
L 1430.633983 843.935344 
L 1442.463214 843.92558 
L 1460.207356 843.9272 
L 1490.963357 843.940745 
L 1496.877972 843.916023 
L 1501.609665 843.941202 
L 1508.707203 843.913946 
L 1519.353511 843.930399 
L 1561.939038 843.937297 
L 1572.585346 843.912949 
L 1580.865808 843.923295 
L 1612.805027 843.942116 
L 1628.183027 843.93738 
L 1629.36595 782.859131 
L 1629.36595 782.859131 
" style="fill:none;stroke:#1f77b4;stroke-linecap:square;stroke-width:1.5;"/>
   </g>
   <g id="line2d_68">
    <path clip-path="url(#p6265ad2312)" d="M 1334.225455 536.741345 
" style="fill:none;stroke:#ff7f0e;stroke-linecap:square;stroke-width:1.5;"/>
   </g>
   <g id="patch_18">
    <path d="M 1009.570909 859.3128 
L 1009.570909 521.3808 
" style="fill:none;stroke:#000000;stroke-linecap:square;stroke-linejoin:miter;stroke-width:0.8;"/>
   </g>
   <g id="patch_19">
    <path d="M 1658.88 859.3128 
L 1658.88 521.3808 
" style="fill:none;stroke:#000000;stroke-linecap:square;stroke-linejoin:miter;stroke-width:0.8;"/>
   </g>
   <g id="patch_20">
    <path d="M 1009.570909 859.3128 
L 1658.88 859.3128 
" style="fill:none;stroke:#000000;stroke-linecap:square;stroke-linejoin:miter;stroke-width:0.8;"/>
   </g>
   <g id="patch_21">
    <path d="M 1009.570909 521.3808 
L 1658.88 521.3808 
" style="fill:none;stroke:#000000;stroke-linecap:square;stroke-linejoin:miter;stroke-width:0.8;"/>
   </g>
   <g id="text_64">
    <!-- Left Leg Y after calib -->
    <g transform="translate(1272.175142 515.3808)scale(0.12 -0.12)">
     <use xlink:href="#DejaVuSans-4c"/>
     <use x="55.697266" xlink:href="#DejaVuSans-65"/>
     <use x="117.220703" xlink:href="#DejaVuSans-66"/>
     <use x="152.410156" xlink:href="#DejaVuSans-74"/>
     <use x="191.619141" xlink:href="#DejaVuSans-20"/>
     <use x="223.40625" xlink:href="#DejaVuSans-4c"/>
     <use x="279.103516" xlink:href="#DejaVuSans-65"/>
     <use x="340.626953" xlink:href="#DejaVuSans-67"/>
     <use x="404.103516" xlink:href="#DejaVuSans-20"/>
     <use x="435.890625" xlink:href="#DejaVuSans-59"/>
     <use x="496.974609" xlink:href="#DejaVuSans-20"/>
     <use x="528.761719" xlink:href="#DejaVuSans-61"/>
     <use x="590.041016" xlink:href="#DejaVuSans-66"/>
     <use x="625.230469" xlink:href="#DejaVuSans-74"/>
     <use x="664.439453" xlink:href="#DejaVuSans-65"/>
     <use x="725.962891" xlink:href="#DejaVuSans-72"/>
     <use x="767.076172" xlink:href="#DejaVuSans-20"/>
     <use x="798.863281" xlink:href="#DejaVuSans-63"/>
     <use x="853.84375" xlink:href="#DejaVuSans-61"/>
     <use x="915.123047" xlink:href="#DejaVuSans-6c"/>
     <use x="942.90625" xlink:href="#DejaVuSans-69"/>
     <use x="970.689453" xlink:href="#DejaVuSans-62"/>
    </g>
   </g>
  </g>
 </g>
 <defs>
  <clipPath id="pc80e5031eb">
   <rect height="337.932" width="649.309091" x="230.4" y="115.8624"/>
  </clipPath>
  <clipPath id="p8d759b26a2">
   <rect height="337.932" width="649.309091" x="1009.570909" y="115.8624"/>
  </clipPath>
  <clipPath id="pdc6ba64d2e">
   <rect height="337.932" width="649.309091" x="230.4" y="521.3808"/>
  </clipPath>
  <clipPath id="p6265ad2312">
   <rect height="337.932" width="649.309091" x="1009.570909" y="521.3808"/>
  </clipPath>
 </defs>
</svg>
