<?xml version="1.0" encoding="utf-8" standalone="no"?>
<!DOCTYPE svg PUBLIC "-//W3C//DTD SVG 1.1//EN"
  "http://www.w3.org/Graphics/SVG/1.1/DTD/svg11.dtd">
<!-- Created with matplotlib (http://matplotlib.org/) -->
<svg height="579pt" version="1.1" viewBox="0 0 1152 579" width="1152pt" xmlns="http://www.w3.org/2000/svg" xmlns:xlink="http://www.w3.org/1999/xlink">
 <defs>
  <style type="text/css">
*{stroke-linecap:butt;stroke-linejoin:round;}
  </style>
 </defs>
 <g id="figure_1">
  <g id="patch_1">
   <path d="M 0 579.6 
L 1152 579.6 
L 1152 0 
L 0 0 
z
" style="fill:#ffffff;"/>
  </g>
  <g id="axes_1">
   <g id="patch_2">
    <path d="M 144 272.412 
L 406.588235 272.412 
L 406.588235 69.552 
L 144 69.552 
z
" style="fill:#ffffff;"/>
   </g>
   <g id="matplotlib.axis_1">
    <g id="xtick_1">
     <g id="line2d_1">
      <defs>
       <path d="M 0 0 
L 0 3.5 
" id="m75d480286b" style="stroke:#000000;stroke-width:0.8;"/>
      </defs>
      <g>
       <use style="stroke:#000000;stroke-width:0.8;" x="155.935829" xlink:href="#m75d480286b" y="272.412"/>
      </g>
     </g>
     <g id="text_1">
      <!-- −1500 -->
      <defs>
       <path d="M 10.59375 35.5 
L 73.1875 35.5 
L 73.1875 27.203125 
L 10.59375 27.203125 
z
" id="DejaVuSans-2212"/>
       <path d="M 12.40625 8.296875 
L 28.515625 8.296875 
L 28.515625 63.921875 
L 10.984375 60.40625 
L 10.984375 69.390625 
L 28.421875 72.90625 
L 38.28125 72.90625 
L 38.28125 8.296875 
L 54.390625 8.296875 
L 54.390625 0 
L 12.40625 0 
z
" id="DejaVuSans-31"/>
       <path d="M 10.796875 72.90625 
L 49.515625 72.90625 
L 49.515625 64.59375 
L 19.828125 64.59375 
L 19.828125 46.734375 
Q 21.96875 47.46875 24.109375 47.828125 
Q 26.265625 48.1875 28.421875 48.1875 
Q 40.625 48.1875 47.75 41.5 
Q 54.890625 34.8125 54.890625 23.390625 
Q 54.890625 11.625 47.5625 5.09375 
Q 40.234375 -1.421875 26.90625 -1.421875 
Q 22.3125 -1.421875 17.546875 -0.640625 
Q 12.796875 0.140625 7.71875 1.703125 
L 7.71875 11.625 
Q 12.109375 9.234375 16.796875 8.0625 
Q 21.484375 6.890625 26.703125 6.890625 
Q 35.15625 6.890625 40.078125 11.328125 
Q 45.015625 15.765625 45.015625 23.390625 
Q 45.015625 31 40.078125 35.4375 
Q 35.15625 39.890625 26.703125 39.890625 
Q 22.75 39.890625 18.8125 39.015625 
Q 14.890625 38.140625 10.796875 36.28125 
z
" id="DejaVuSans-35"/>
       <path d="M 31.78125 66.40625 
Q 24.171875 66.40625 20.328125 58.90625 
Q 16.5 51.421875 16.5 36.375 
Q 16.5 21.390625 20.328125 13.890625 
Q 24.171875 6.390625 31.78125 6.390625 
Q 39.453125 6.390625 43.28125 13.890625 
Q 47.125 21.390625 47.125 36.375 
Q 47.125 51.421875 43.28125 58.90625 
Q 39.453125 66.40625 31.78125 66.40625 
z
M 31.78125 74.21875 
Q 44.046875 74.21875 50.515625 64.515625 
Q 56.984375 54.828125 56.984375 36.375 
Q 56.984375 17.96875 50.515625 8.265625 
Q 44.046875 -1.421875 31.78125 -1.421875 
Q 19.53125 -1.421875 13.0625 8.265625 
Q 6.59375 17.96875 6.59375 36.375 
Q 6.59375 54.828125 13.0625 64.515625 
Q 19.53125 74.21875 31.78125 74.21875 
z
" id="DejaVuSans-30"/>
      </defs>
      <g transform="translate(139.020985 287.010437)scale(0.1 -0.1)">
       <use xlink:href="#DejaVuSans-2212"/>
       <use x="83.789062" xlink:href="#DejaVuSans-31"/>
       <use x="147.412109" xlink:href="#DejaVuSans-35"/>
       <use x="211.035156" xlink:href="#DejaVuSans-30"/>
       <use x="274.658203" xlink:href="#DejaVuSans-30"/>
      </g>
     </g>
    </g>
    <g id="xtick_2">
     <g id="line2d_2">
      <g>
       <use style="stroke:#000000;stroke-width:0.8;" x="195.721925" xlink:href="#m75d480286b" y="272.412"/>
      </g>
     </g>
     <g id="text_2">
      <!-- −1000 -->
      <g transform="translate(178.807081 287.010437)scale(0.1 -0.1)">
       <use xlink:href="#DejaVuSans-2212"/>
       <use x="83.789062" xlink:href="#DejaVuSans-31"/>
       <use x="147.412109" xlink:href="#DejaVuSans-30"/>
       <use x="211.035156" xlink:href="#DejaVuSans-30"/>
       <use x="274.658203" xlink:href="#DejaVuSans-30"/>
      </g>
     </g>
    </g>
    <g id="xtick_3">
     <g id="line2d_3">
      <g>
       <use style="stroke:#000000;stroke-width:0.8;" x="235.508021" xlink:href="#m75d480286b" y="272.412"/>
      </g>
     </g>
     <g id="text_3">
      <!-- −500 -->
      <g transform="translate(221.774428 287.010437)scale(0.1 -0.1)">
       <use xlink:href="#DejaVuSans-2212"/>
       <use x="83.789062" xlink:href="#DejaVuSans-35"/>
       <use x="147.412109" xlink:href="#DejaVuSans-30"/>
       <use x="211.035156" xlink:href="#DejaVuSans-30"/>
      </g>
     </g>
    </g>
    <g id="xtick_4">
     <g id="line2d_4">
      <g>
       <use style="stroke:#000000;stroke-width:0.8;" x="275.294118" xlink:href="#m75d480286b" y="272.412"/>
      </g>
     </g>
     <g id="text_4">
      <!-- 0 -->
      <g transform="translate(272.112868 287.010437)scale(0.1 -0.1)">
       <use xlink:href="#DejaVuSans-30"/>
      </g>
     </g>
    </g>
    <g id="xtick_5">
     <g id="line2d_5">
      <g>
       <use style="stroke:#000000;stroke-width:0.8;" x="315.080214" xlink:href="#m75d480286b" y="272.412"/>
      </g>
     </g>
     <g id="text_5">
      <!-- 500 -->
      <g transform="translate(305.536464 287.010437)scale(0.1 -0.1)">
       <use xlink:href="#DejaVuSans-35"/>
       <use x="63.623047" xlink:href="#DejaVuSans-30"/>
       <use x="127.246094" xlink:href="#DejaVuSans-30"/>
      </g>
     </g>
    </g>
    <g id="xtick_6">
     <g id="line2d_6">
      <g>
       <use style="stroke:#000000;stroke-width:0.8;" x="354.86631" xlink:href="#m75d480286b" y="272.412"/>
      </g>
     </g>
     <g id="text_6">
      <!-- 1000 -->
      <g transform="translate(342.14131 287.010437)scale(0.1 -0.1)">
       <use xlink:href="#DejaVuSans-31"/>
       <use x="63.623047" xlink:href="#DejaVuSans-30"/>
       <use x="127.246094" xlink:href="#DejaVuSans-30"/>
       <use x="190.869141" xlink:href="#DejaVuSans-30"/>
      </g>
     </g>
    </g>
    <g id="xtick_7">
     <g id="line2d_7">
      <g>
       <use style="stroke:#000000;stroke-width:0.8;" x="394.652406" xlink:href="#m75d480286b" y="272.412"/>
      </g>
     </g>
     <g id="text_7">
      <!-- 1500 -->
      <g transform="translate(381.927406 287.010437)scale(0.1 -0.1)">
       <use xlink:href="#DejaVuSans-31"/>
       <use x="63.623047" xlink:href="#DejaVuSans-35"/>
       <use x="127.246094" xlink:href="#DejaVuSans-30"/>
       <use x="190.869141" xlink:href="#DejaVuSans-30"/>
      </g>
     </g>
    </g>
   </g>
   <g id="matplotlib.axis_2">
    <g id="ytick_1">
     <g id="line2d_8">
      <defs>
       <path d="M 0 0 
L -3.5 0 
" id="mc00d9d86c3" style="stroke:#000000;stroke-width:0.8;"/>
      </defs>
      <g>
       <use style="stroke:#000000;stroke-width:0.8;" x="144" xlink:href="#mc00d9d86c3" y="263.191091"/>
      </g>
     </g>
     <g id="text_8">
      <!-- 0.0 -->
      <defs>
       <path d="M 10.6875 12.40625 
L 21 12.40625 
L 21 0 
L 10.6875 0 
z
" id="DejaVuSans-2e"/>
      </defs>
      <g transform="translate(121.096875 266.99031)scale(0.1 -0.1)">
       <use xlink:href="#DejaVuSans-30"/>
       <use x="63.623047" xlink:href="#DejaVuSans-2e"/>
       <use x="95.410156" xlink:href="#DejaVuSans-30"/>
      </g>
     </g>
    </g>
    <g id="ytick_2">
     <g id="line2d_9">
      <g>
       <use style="stroke:#000000;stroke-width:0.8;" x="144" xlink:href="#mc00d9d86c3" y="226.307455"/>
      </g>
     </g>
     <g id="text_9">
      <!-- 0.2 -->
      <defs>
       <path d="M 19.1875 8.296875 
L 53.609375 8.296875 
L 53.609375 0 
L 7.328125 0 
L 7.328125 8.296875 
Q 12.9375 14.109375 22.625 23.890625 
Q 32.328125 33.6875 34.8125 36.53125 
Q 39.546875 41.84375 41.421875 45.53125 
Q 43.3125 49.21875 43.3125 52.78125 
Q 43.3125 58.59375 39.234375 62.25 
Q 35.15625 65.921875 28.609375 65.921875 
Q 23.96875 65.921875 18.8125 64.3125 
Q 13.671875 62.703125 7.8125 59.421875 
L 7.8125 69.390625 
Q 13.765625 71.78125 18.9375 73 
Q 24.125 74.21875 28.421875 74.21875 
Q 39.75 74.21875 46.484375 68.546875 
Q 53.21875 62.890625 53.21875 53.421875 
Q 53.21875 48.921875 51.53125 44.890625 
Q 49.859375 40.875 45.40625 35.40625 
Q 44.1875 33.984375 37.640625 27.21875 
Q 31.109375 20.453125 19.1875 8.296875 
z
" id="DejaVuSans-32"/>
      </defs>
      <g transform="translate(121.096875 230.106673)scale(0.1 -0.1)">
       <use xlink:href="#DejaVuSans-30"/>
       <use x="63.623047" xlink:href="#DejaVuSans-2e"/>
       <use x="95.410156" xlink:href="#DejaVuSans-32"/>
      </g>
     </g>
    </g>
    <g id="ytick_3">
     <g id="line2d_10">
      <g>
       <use style="stroke:#000000;stroke-width:0.8;" x="144" xlink:href="#mc00d9d86c3" y="189.423818"/>
      </g>
     </g>
     <g id="text_10">
      <!-- 0.4 -->
      <defs>
       <path d="M 37.796875 64.3125 
L 12.890625 25.390625 
L 37.796875 25.390625 
z
M 35.203125 72.90625 
L 47.609375 72.90625 
L 47.609375 25.390625 
L 58.015625 25.390625 
L 58.015625 17.1875 
L 47.609375 17.1875 
L 47.609375 0 
L 37.796875 0 
L 37.796875 17.1875 
L 4.890625 17.1875 
L 4.890625 26.703125 
z
" id="DejaVuSans-34"/>
      </defs>
      <g transform="translate(121.096875 193.223037)scale(0.1 -0.1)">
       <use xlink:href="#DejaVuSans-30"/>
       <use x="63.623047" xlink:href="#DejaVuSans-2e"/>
       <use x="95.410156" xlink:href="#DejaVuSans-34"/>
      </g>
     </g>
    </g>
    <g id="ytick_4">
     <g id="line2d_11">
      <g>
       <use style="stroke:#000000;stroke-width:0.8;" x="144" xlink:href="#mc00d9d86c3" y="152.540182"/>
      </g>
     </g>
     <g id="text_11">
      <!-- 0.6 -->
      <defs>
       <path d="M 33.015625 40.375 
Q 26.375 40.375 22.484375 35.828125 
Q 18.609375 31.296875 18.609375 23.390625 
Q 18.609375 15.53125 22.484375 10.953125 
Q 26.375 6.390625 33.015625 6.390625 
Q 39.65625 6.390625 43.53125 10.953125 
Q 47.40625 15.53125 47.40625 23.390625 
Q 47.40625 31.296875 43.53125 35.828125 
Q 39.65625 40.375 33.015625 40.375 
z
M 52.59375 71.296875 
L 52.59375 62.3125 
Q 48.875 64.0625 45.09375 64.984375 
Q 41.3125 65.921875 37.59375 65.921875 
Q 27.828125 65.921875 22.671875 59.328125 
Q 17.53125 52.734375 16.796875 39.40625 
Q 19.671875 43.65625 24.015625 45.921875 
Q 28.375 48.1875 33.59375 48.1875 
Q 44.578125 48.1875 50.953125 41.515625 
Q 57.328125 34.859375 57.328125 23.390625 
Q 57.328125 12.15625 50.6875 5.359375 
Q 44.046875 -1.421875 33.015625 -1.421875 
Q 20.359375 -1.421875 13.671875 8.265625 
Q 6.984375 17.96875 6.984375 36.375 
Q 6.984375 53.65625 15.1875 63.9375 
Q 23.390625 74.21875 37.203125 74.21875 
Q 40.921875 74.21875 44.703125 73.484375 
Q 48.484375 72.75 52.59375 71.296875 
z
" id="DejaVuSans-36"/>
      </defs>
      <g transform="translate(121.096875 156.339401)scale(0.1 -0.1)">
       <use xlink:href="#DejaVuSans-30"/>
       <use x="63.623047" xlink:href="#DejaVuSans-2e"/>
       <use x="95.410156" xlink:href="#DejaVuSans-36"/>
      </g>
     </g>
    </g>
    <g id="ytick_5">
     <g id="line2d_12">
      <g>
       <use style="stroke:#000000;stroke-width:0.8;" x="144" xlink:href="#mc00d9d86c3" y="115.656545"/>
      </g>
     </g>
     <g id="text_12">
      <!-- 0.8 -->
      <defs>
       <path d="M 31.78125 34.625 
Q 24.75 34.625 20.71875 30.859375 
Q 16.703125 27.09375 16.703125 20.515625 
Q 16.703125 13.921875 20.71875 10.15625 
Q 24.75 6.390625 31.78125 6.390625 
Q 38.8125 6.390625 42.859375 10.171875 
Q 46.921875 13.96875 46.921875 20.515625 
Q 46.921875 27.09375 42.890625 30.859375 
Q 38.875 34.625 31.78125 34.625 
z
M 21.921875 38.8125 
Q 15.578125 40.375 12.03125 44.71875 
Q 8.5 49.078125 8.5 55.328125 
Q 8.5 64.0625 14.71875 69.140625 
Q 20.953125 74.21875 31.78125 74.21875 
Q 42.671875 74.21875 48.875 69.140625 
Q 55.078125 64.0625 55.078125 55.328125 
Q 55.078125 49.078125 51.53125 44.71875 
Q 48 40.375 41.703125 38.8125 
Q 48.828125 37.15625 52.796875 32.3125 
Q 56.78125 27.484375 56.78125 20.515625 
Q 56.78125 9.90625 50.3125 4.234375 
Q 43.84375 -1.421875 31.78125 -1.421875 
Q 19.734375 -1.421875 13.25 4.234375 
Q 6.78125 9.90625 6.78125 20.515625 
Q 6.78125 27.484375 10.78125 32.3125 
Q 14.796875 37.15625 21.921875 38.8125 
z
M 18.3125 54.390625 
Q 18.3125 48.734375 21.84375 45.5625 
Q 25.390625 42.390625 31.78125 42.390625 
Q 38.140625 42.390625 41.71875 45.5625 
Q 45.3125 48.734375 45.3125 54.390625 
Q 45.3125 60.0625 41.71875 63.234375 
Q 38.140625 66.40625 31.78125 66.40625 
Q 25.390625 66.40625 21.84375 63.234375 
Q 18.3125 60.0625 18.3125 54.390625 
z
" id="DejaVuSans-38"/>
      </defs>
      <g transform="translate(121.096875 119.455764)scale(0.1 -0.1)">
       <use xlink:href="#DejaVuSans-30"/>
       <use x="63.623047" xlink:href="#DejaVuSans-2e"/>
       <use x="95.410156" xlink:href="#DejaVuSans-38"/>
      </g>
     </g>
    </g>
    <g id="ytick_6">
     <g id="line2d_13">
      <g>
       <use style="stroke:#000000;stroke-width:0.8;" x="144" xlink:href="#mc00d9d86c3" y="78.772909"/>
      </g>
     </g>
     <g id="text_13">
      <!-- 1.0 -->
      <g transform="translate(121.096875 82.572128)scale(0.1 -0.1)">
       <use xlink:href="#DejaVuSans-31"/>
       <use x="63.623047" xlink:href="#DejaVuSans-2e"/>
       <use x="95.410156" xlink:href="#DejaVuSans-30"/>
      </g>
     </g>
    </g>
   </g>
   <g id="line2d_14">
    <path clip-path="url(#p9ada963467)" d="M 155.935829 263.191091 
L 268.647624 263.083529 
L 270.319197 262.770395 
L 272.388764 262.034272 
L 273.025554 261.841118 
L 273.26435 261.650449 
L 273.90114 261.404947 
L 274.378732 261.232618 
L 275.413516 261.215997 
L 276.687095 261.357184 
L 276.925892 261.414882 
L 277.164688 261.398642 
L 277.323885 261.378582 
L 277.403484 261.339989 
L 277.64228 261.524736 
L 279.154656 262.304419 
L 279.871044 262.578961 
L 280.587433 262.824653 
L 281.701815 263.0329 
L 282.816197 263.141226 
L 286.955331 263.189562 
L 302.158687 263.191091 
L 394.652406 263.191091 
L 394.652406 263.191091 
" style="fill:none;stroke:#1f77b4;stroke-linecap:square;stroke-width:1.5;"/>
   </g>
   <g id="line2d_15">
    <path clip-path="url(#p9ada963467)" d="M 275.294118 78.772909 
" style="fill:none;stroke:#ff7f0e;stroke-linecap:square;stroke-width:1.5;"/>
   </g>
   <g id="patch_3">
    <path d="M 144 272.412 
L 144 69.552 
" style="fill:none;stroke:#000000;stroke-linecap:square;stroke-linejoin:miter;stroke-width:0.8;"/>
   </g>
   <g id="patch_4">
    <path d="M 406.588235 272.412 
L 406.588235 69.552 
" style="fill:none;stroke:#000000;stroke-linecap:square;stroke-linejoin:miter;stroke-width:0.8;"/>
   </g>
   <g id="patch_5">
    <path d="M 144 272.412 
L 406.588235 272.412 
" style="fill:none;stroke:#000000;stroke-linecap:square;stroke-linejoin:miter;stroke-width:0.8;"/>
   </g>
   <g id="patch_6">
    <path d="M 144 69.552 
L 406.588235 69.552 
" style="fill:none;stroke:#000000;stroke-linecap:square;stroke-linejoin:miter;stroke-width:0.8;"/>
   </g>
   <g id="text_14">
    <!-- Left Leg X error distribution before calib -->
    <defs>
     <path d="M 9.8125 72.90625 
L 19.671875 72.90625 
L 19.671875 8.296875 
L 55.171875 8.296875 
L 55.171875 0 
L 9.8125 0 
z
" id="DejaVuSans-4c"/>
     <path d="M 56.203125 29.59375 
L 56.203125 25.203125 
L 14.890625 25.203125 
Q 15.484375 15.921875 20.484375 11.0625 
Q 25.484375 6.203125 34.421875 6.203125 
Q 39.59375 6.203125 44.453125 7.46875 
Q 49.3125 8.734375 54.109375 11.28125 
L 54.109375 2.78125 
Q 49.265625 0.734375 44.1875 -0.34375 
Q 39.109375 -1.421875 33.890625 -1.421875 
Q 20.796875 -1.421875 13.15625 6.1875 
Q 5.515625 13.8125 5.515625 26.8125 
Q 5.515625 40.234375 12.765625 48.109375 
Q 20.015625 56 32.328125 56 
Q 43.359375 56 49.78125 48.890625 
Q 56.203125 41.796875 56.203125 29.59375 
z
M 47.21875 32.234375 
Q 47.125 39.59375 43.09375 43.984375 
Q 39.0625 48.390625 32.421875 48.390625 
Q 24.90625 48.390625 20.390625 44.140625 
Q 15.875 39.890625 15.1875 32.171875 
z
" id="DejaVuSans-65"/>
     <path d="M 37.109375 75.984375 
L 37.109375 68.5 
L 28.515625 68.5 
Q 23.6875 68.5 21.796875 66.546875 
Q 19.921875 64.59375 19.921875 59.515625 
L 19.921875 54.6875 
L 34.71875 54.6875 
L 34.71875 47.703125 
L 19.921875 47.703125 
L 19.921875 0 
L 10.890625 0 
L 10.890625 47.703125 
L 2.296875 47.703125 
L 2.296875 54.6875 
L 10.890625 54.6875 
L 10.890625 58.5 
Q 10.890625 67.625 15.140625 71.796875 
Q 19.390625 75.984375 28.609375 75.984375 
z
" id="DejaVuSans-66"/>
     <path d="M 18.3125 70.21875 
L 18.3125 54.6875 
L 36.8125 54.6875 
L 36.8125 47.703125 
L 18.3125 47.703125 
L 18.3125 18.015625 
Q 18.3125 11.328125 20.140625 9.421875 
Q 21.96875 7.515625 27.59375 7.515625 
L 36.8125 7.515625 
L 36.8125 0 
L 27.59375 0 
Q 17.1875 0 13.234375 3.875 
Q 9.28125 7.765625 9.28125 18.015625 
L 9.28125 47.703125 
L 2.6875 47.703125 
L 2.6875 54.6875 
L 9.28125 54.6875 
L 9.28125 70.21875 
z
" id="DejaVuSans-74"/>
     <path id="DejaVuSans-20"/>
     <path d="M 45.40625 27.984375 
Q 45.40625 37.75 41.375 43.109375 
Q 37.359375 48.484375 30.078125 48.484375 
Q 22.859375 48.484375 18.828125 43.109375 
Q 14.796875 37.75 14.796875 27.984375 
Q 14.796875 18.265625 18.828125 12.890625 
Q 22.859375 7.515625 30.078125 7.515625 
Q 37.359375 7.515625 41.375 12.890625 
Q 45.40625 18.265625 45.40625 27.984375 
z
M 54.390625 6.78125 
Q 54.390625 -7.171875 48.1875 -13.984375 
Q 42 -20.796875 29.203125 -20.796875 
Q 24.46875 -20.796875 20.265625 -20.09375 
Q 16.0625 -19.390625 12.109375 -17.921875 
L 12.109375 -9.1875 
Q 16.0625 -11.328125 19.921875 -12.34375 
Q 23.78125 -13.375 27.78125 -13.375 
Q 36.625 -13.375 41.015625 -8.765625 
Q 45.40625 -4.15625 45.40625 5.171875 
L 45.40625 9.625 
Q 42.625 4.78125 38.28125 2.390625 
Q 33.9375 0 27.875 0 
Q 17.828125 0 11.671875 7.65625 
Q 5.515625 15.328125 5.515625 27.984375 
Q 5.515625 40.671875 11.671875 48.328125 
Q 17.828125 56 27.875 56 
Q 33.9375 56 38.28125 53.609375 
Q 42.625 51.21875 45.40625 46.390625 
L 45.40625 54.6875 
L 54.390625 54.6875 
z
" id="DejaVuSans-67"/>
     <path d="M 6.296875 72.90625 
L 16.890625 72.90625 
L 35.015625 45.796875 
L 53.21875 72.90625 
L 63.8125 72.90625 
L 40.375 37.890625 
L 65.375 0 
L 54.78125 0 
L 34.28125 31 
L 13.625 0 
L 2.984375 0 
L 29 38.921875 
z
" id="DejaVuSans-58"/>
     <path d="M 41.109375 46.296875 
Q 39.59375 47.171875 37.8125 47.578125 
Q 36.03125 48 33.890625 48 
Q 26.265625 48 22.1875 43.046875 
Q 18.109375 38.09375 18.109375 28.8125 
L 18.109375 0 
L 9.078125 0 
L 9.078125 54.6875 
L 18.109375 54.6875 
L 18.109375 46.1875 
Q 20.953125 51.171875 25.484375 53.578125 
Q 30.03125 56 36.53125 56 
Q 37.453125 56 38.578125 55.875 
Q 39.703125 55.765625 41.0625 55.515625 
z
" id="DejaVuSans-72"/>
     <path d="M 30.609375 48.390625 
Q 23.390625 48.390625 19.1875 42.75 
Q 14.984375 37.109375 14.984375 27.296875 
Q 14.984375 17.484375 19.15625 11.84375 
Q 23.34375 6.203125 30.609375 6.203125 
Q 37.796875 6.203125 41.984375 11.859375 
Q 46.1875 17.53125 46.1875 27.296875 
Q 46.1875 37.015625 41.984375 42.703125 
Q 37.796875 48.390625 30.609375 48.390625 
z
M 30.609375 56 
Q 42.328125 56 49.015625 48.375 
Q 55.71875 40.765625 55.71875 27.296875 
Q 55.71875 13.875 49.015625 6.21875 
Q 42.328125 -1.421875 30.609375 -1.421875 
Q 18.84375 -1.421875 12.171875 6.21875 
Q 5.515625 13.875 5.515625 27.296875 
Q 5.515625 40.765625 12.171875 48.375 
Q 18.84375 56 30.609375 56 
z
" id="DejaVuSans-6f"/>
     <path d="M 45.40625 46.390625 
L 45.40625 75.984375 
L 54.390625 75.984375 
L 54.390625 0 
L 45.40625 0 
L 45.40625 8.203125 
Q 42.578125 3.328125 38.25 0.953125 
Q 33.9375 -1.421875 27.875 -1.421875 
Q 17.96875 -1.421875 11.734375 6.484375 
Q 5.515625 14.40625 5.515625 27.296875 
Q 5.515625 40.1875 11.734375 48.09375 
Q 17.96875 56 27.875 56 
Q 33.9375 56 38.25 53.625 
Q 42.578125 51.265625 45.40625 46.390625 
z
M 14.796875 27.296875 
Q 14.796875 17.390625 18.875 11.75 
Q 22.953125 6.109375 30.078125 6.109375 
Q 37.203125 6.109375 41.296875 11.75 
Q 45.40625 17.390625 45.40625 27.296875 
Q 45.40625 37.203125 41.296875 42.84375 
Q 37.203125 48.484375 30.078125 48.484375 
Q 22.953125 48.484375 18.875 42.84375 
Q 14.796875 37.203125 14.796875 27.296875 
z
" id="DejaVuSans-64"/>
     <path d="M 9.421875 54.6875 
L 18.40625 54.6875 
L 18.40625 0 
L 9.421875 0 
z
M 9.421875 75.984375 
L 18.40625 75.984375 
L 18.40625 64.59375 
L 9.421875 64.59375 
z
" id="DejaVuSans-69"/>
     <path d="M 44.28125 53.078125 
L 44.28125 44.578125 
Q 40.484375 46.53125 36.375 47.5 
Q 32.28125 48.484375 27.875 48.484375 
Q 21.1875 48.484375 17.84375 46.4375 
Q 14.5 44.390625 14.5 40.28125 
Q 14.5 37.15625 16.890625 35.375 
Q 19.28125 33.59375 26.515625 31.984375 
L 29.59375 31.296875 
Q 39.15625 29.25 43.1875 25.515625 
Q 47.21875 21.78125 47.21875 15.09375 
Q 47.21875 7.46875 41.1875 3.015625 
Q 35.15625 -1.421875 24.609375 -1.421875 
Q 20.21875 -1.421875 15.453125 -0.5625 
Q 10.6875 0.296875 5.421875 2 
L 5.421875 11.28125 
Q 10.40625 8.6875 15.234375 7.390625 
Q 20.0625 6.109375 24.8125 6.109375 
Q 31.15625 6.109375 34.5625 8.28125 
Q 37.984375 10.453125 37.984375 14.40625 
Q 37.984375 18.0625 35.515625 20.015625 
Q 33.0625 21.96875 24.703125 23.78125 
L 21.578125 24.515625 
Q 13.234375 26.265625 9.515625 29.90625 
Q 5.8125 33.546875 5.8125 39.890625 
Q 5.8125 47.609375 11.28125 51.796875 
Q 16.75 56 26.8125 56 
Q 31.78125 56 36.171875 55.265625 
Q 40.578125 54.546875 44.28125 53.078125 
z
" id="DejaVuSans-73"/>
     <path d="M 48.6875 27.296875 
Q 48.6875 37.203125 44.609375 42.84375 
Q 40.53125 48.484375 33.40625 48.484375 
Q 26.265625 48.484375 22.1875 42.84375 
Q 18.109375 37.203125 18.109375 27.296875 
Q 18.109375 17.390625 22.1875 11.75 
Q 26.265625 6.109375 33.40625 6.109375 
Q 40.53125 6.109375 44.609375 11.75 
Q 48.6875 17.390625 48.6875 27.296875 
z
M 18.109375 46.390625 
Q 20.953125 51.265625 25.265625 53.625 
Q 29.59375 56 35.59375 56 
Q 45.5625 56 51.78125 48.09375 
Q 58.015625 40.1875 58.015625 27.296875 
Q 58.015625 14.40625 51.78125 6.484375 
Q 45.5625 -1.421875 35.59375 -1.421875 
Q 29.59375 -1.421875 25.265625 0.953125 
Q 20.953125 3.328125 18.109375 8.203125 
L 18.109375 0 
L 9.078125 0 
L 9.078125 75.984375 
L 18.109375 75.984375 
z
" id="DejaVuSans-62"/>
     <path d="M 8.5 21.578125 
L 8.5 54.6875 
L 17.484375 54.6875 
L 17.484375 21.921875 
Q 17.484375 14.15625 20.5 10.265625 
Q 23.53125 6.390625 29.59375 6.390625 
Q 36.859375 6.390625 41.078125 11.03125 
Q 45.3125 15.671875 45.3125 23.6875 
L 45.3125 54.6875 
L 54.296875 54.6875 
L 54.296875 0 
L 45.3125 0 
L 45.3125 8.40625 
Q 42.046875 3.421875 37.71875 1 
Q 33.40625 -1.421875 27.6875 -1.421875 
Q 18.265625 -1.421875 13.375 4.4375 
Q 8.5 10.296875 8.5 21.578125 
z
M 31.109375 56 
z
" id="DejaVuSans-75"/>
     <path d="M 54.890625 33.015625 
L 54.890625 0 
L 45.90625 0 
L 45.90625 32.71875 
Q 45.90625 40.484375 42.875 44.328125 
Q 39.84375 48.1875 33.796875 48.1875 
Q 26.515625 48.1875 22.3125 43.546875 
Q 18.109375 38.921875 18.109375 30.90625 
L 18.109375 0 
L 9.078125 0 
L 9.078125 54.6875 
L 18.109375 54.6875 
L 18.109375 46.1875 
Q 21.34375 51.125 25.703125 53.5625 
Q 30.078125 56 35.796875 56 
Q 45.21875 56 50.046875 50.171875 
Q 54.890625 44.34375 54.890625 33.015625 
z
" id="DejaVuSans-6e"/>
     <path d="M 48.78125 52.59375 
L 48.78125 44.1875 
Q 44.96875 46.296875 41.140625 47.34375 
Q 37.3125 48.390625 33.40625 48.390625 
Q 24.65625 48.390625 19.8125 42.84375 
Q 14.984375 37.3125 14.984375 27.296875 
Q 14.984375 17.28125 19.8125 11.734375 
Q 24.65625 6.203125 33.40625 6.203125 
Q 37.3125 6.203125 41.140625 7.25 
Q 44.96875 8.296875 48.78125 10.40625 
L 48.78125 2.09375 
Q 45.015625 0.34375 40.984375 -0.53125 
Q 36.96875 -1.421875 32.421875 -1.421875 
Q 20.0625 -1.421875 12.78125 6.34375 
Q 5.515625 14.109375 5.515625 27.296875 
Q 5.515625 40.671875 12.859375 48.328125 
Q 20.21875 56 33.015625 56 
Q 37.15625 56 41.109375 55.140625 
Q 45.0625 54.296875 48.78125 52.59375 
z
" id="DejaVuSans-63"/>
     <path d="M 34.28125 27.484375 
Q 23.390625 27.484375 19.1875 25 
Q 14.984375 22.515625 14.984375 16.5 
Q 14.984375 11.71875 18.140625 8.90625 
Q 21.296875 6.109375 26.703125 6.109375 
Q 34.1875 6.109375 38.703125 11.40625 
Q 43.21875 16.703125 43.21875 25.484375 
L 43.21875 27.484375 
z
M 52.203125 31.203125 
L 52.203125 0 
L 43.21875 0 
L 43.21875 8.296875 
Q 40.140625 3.328125 35.546875 0.953125 
Q 30.953125 -1.421875 24.3125 -1.421875 
Q 15.921875 -1.421875 10.953125 3.296875 
Q 6 8.015625 6 15.921875 
Q 6 25.140625 12.171875 29.828125 
Q 18.359375 34.515625 30.609375 34.515625 
L 43.21875 34.515625 
L 43.21875 35.40625 
Q 43.21875 41.609375 39.140625 45 
Q 35.0625 48.390625 27.6875 48.390625 
Q 23 48.390625 18.546875 47.265625 
Q 14.109375 46.140625 10.015625 43.890625 
L 10.015625 52.203125 
Q 14.9375 54.109375 19.578125 55.046875 
Q 24.21875 56 28.609375 56 
Q 40.484375 56 46.34375 49.84375 
Q 52.203125 43.703125 52.203125 31.203125 
z
" id="DejaVuSans-61"/>
     <path d="M 9.421875 75.984375 
L 18.40625 75.984375 
L 18.40625 0 
L 9.421875 0 
z
" id="DejaVuSans-6c"/>
    </defs>
    <g transform="translate(154.890993 63.552)scale(0.12 -0.12)">
     <use xlink:href="#DejaVuSans-4c"/>
     <use x="55.697266" xlink:href="#DejaVuSans-65"/>
     <use x="117.220703" xlink:href="#DejaVuSans-66"/>
     <use x="152.410156" xlink:href="#DejaVuSans-74"/>
     <use x="191.619141" xlink:href="#DejaVuSans-20"/>
     <use x="223.40625" xlink:href="#DejaVuSans-4c"/>
     <use x="279.103516" xlink:href="#DejaVuSans-65"/>
     <use x="340.626953" xlink:href="#DejaVuSans-67"/>
     <use x="404.103516" xlink:href="#DejaVuSans-20"/>
     <use x="435.890625" xlink:href="#DejaVuSans-58"/>
     <use x="504.396484" xlink:href="#DejaVuSans-20"/>
     <use x="536.183594" xlink:href="#DejaVuSans-65"/>
     <use x="597.707031" xlink:href="#DejaVuSans-72"/>
     <use x="638.804688" xlink:href="#DejaVuSans-72"/>
     <use x="679.886719" xlink:href="#DejaVuSans-6f"/>
     <use x="741.068359" xlink:href="#DejaVuSans-72"/>
     <use x="782.181641" xlink:href="#DejaVuSans-20"/>
     <use x="813.96875" xlink:href="#DejaVuSans-64"/>
     <use x="877.445312" xlink:href="#DejaVuSans-69"/>
     <use x="905.228516" xlink:href="#DejaVuSans-73"/>
     <use x="957.328125" xlink:href="#DejaVuSans-74"/>
     <use x="996.537109" xlink:href="#DejaVuSans-72"/>
     <use x="1037.650391" xlink:href="#DejaVuSans-69"/>
     <use x="1065.433594" xlink:href="#DejaVuSans-62"/>
     <use x="1128.910156" xlink:href="#DejaVuSans-75"/>
     <use x="1192.289062" xlink:href="#DejaVuSans-74"/>
     <use x="1231.498047" xlink:href="#DejaVuSans-69"/>
     <use x="1259.28125" xlink:href="#DejaVuSans-6f"/>
     <use x="1320.462891" xlink:href="#DejaVuSans-6e"/>
     <use x="1383.841797" xlink:href="#DejaVuSans-20"/>
     <use x="1415.628906" xlink:href="#DejaVuSans-62"/>
     <use x="1479.105469" xlink:href="#DejaVuSans-65"/>
     <use x="1540.628906" xlink:href="#DejaVuSans-66"/>
     <use x="1575.833984" xlink:href="#DejaVuSans-6f"/>
     <use x="1637.015625" xlink:href="#DejaVuSans-72"/>
     <use x="1678.097656" xlink:href="#DejaVuSans-65"/>
     <use x="1739.621094" xlink:href="#DejaVuSans-20"/>
     <use x="1771.408203" xlink:href="#DejaVuSans-63"/>
     <use x="1826.388672" xlink:href="#DejaVuSans-61"/>
     <use x="1887.667969" xlink:href="#DejaVuSans-6c"/>
     <use x="1915.451172" xlink:href="#DejaVuSans-69"/>
     <use x="1943.234375" xlink:href="#DejaVuSans-62"/>
    </g>
   </g>
  </g>
  <g id="axes_2">
   <g id="patch_7">
    <path d="M 459.105882 272.412 
L 721.694118 272.412 
L 721.694118 69.552 
L 459.105882 69.552 
z
" style="fill:#ffffff;"/>
   </g>
   <g id="matplotlib.axis_3">
    <g id="xtick_8">
     <g id="line2d_16">
      <g>
       <use style="stroke:#000000;stroke-width:0.8;" x="471.041711" xlink:href="#m75d480286b" y="272.412"/>
      </g>
     </g>
     <g id="text_15">
      <!-- −1500 -->
      <g transform="translate(454.126867 287.010437)scale(0.1 -0.1)">
       <use xlink:href="#DejaVuSans-2212"/>
       <use x="83.789062" xlink:href="#DejaVuSans-31"/>
       <use x="147.412109" xlink:href="#DejaVuSans-35"/>
       <use x="211.035156" xlink:href="#DejaVuSans-30"/>
       <use x="274.658203" xlink:href="#DejaVuSans-30"/>
      </g>
     </g>
    </g>
    <g id="xtick_9">
     <g id="line2d_17">
      <g>
       <use style="stroke:#000000;stroke-width:0.8;" x="510.827807" xlink:href="#m75d480286b" y="272.412"/>
      </g>
     </g>
     <g id="text_16">
      <!-- −1000 -->
      <g transform="translate(493.912964 287.010437)scale(0.1 -0.1)">
       <use xlink:href="#DejaVuSans-2212"/>
       <use x="83.789062" xlink:href="#DejaVuSans-31"/>
       <use x="147.412109" xlink:href="#DejaVuSans-30"/>
       <use x="211.035156" xlink:href="#DejaVuSans-30"/>
       <use x="274.658203" xlink:href="#DejaVuSans-30"/>
      </g>
     </g>
    </g>
    <g id="xtick_10">
     <g id="line2d_18">
      <g>
       <use style="stroke:#000000;stroke-width:0.8;" x="550.613904" xlink:href="#m75d480286b" y="272.412"/>
      </g>
     </g>
     <g id="text_17">
      <!-- −500 -->
      <g transform="translate(536.88031 287.010437)scale(0.1 -0.1)">
       <use xlink:href="#DejaVuSans-2212"/>
       <use x="83.789062" xlink:href="#DejaVuSans-35"/>
       <use x="147.412109" xlink:href="#DejaVuSans-30"/>
       <use x="211.035156" xlink:href="#DejaVuSans-30"/>
      </g>
     </g>
    </g>
    <g id="xtick_11">
     <g id="line2d_19">
      <g>
       <use style="stroke:#000000;stroke-width:0.8;" x="590.4" xlink:href="#m75d480286b" y="272.412"/>
      </g>
     </g>
     <g id="text_18">
      <!-- 0 -->
      <g transform="translate(587.21875 287.010437)scale(0.1 -0.1)">
       <use xlink:href="#DejaVuSans-30"/>
      </g>
     </g>
    </g>
    <g id="xtick_12">
     <g id="line2d_20">
      <g>
       <use style="stroke:#000000;stroke-width:0.8;" x="630.186096" xlink:href="#m75d480286b" y="272.412"/>
      </g>
     </g>
     <g id="text_19">
      <!-- 500 -->
      <g transform="translate(620.642346 287.010437)scale(0.1 -0.1)">
       <use xlink:href="#DejaVuSans-35"/>
       <use x="63.623047" xlink:href="#DejaVuSans-30"/>
       <use x="127.246094" xlink:href="#DejaVuSans-30"/>
      </g>
     </g>
    </g>
    <g id="xtick_13">
     <g id="line2d_21">
      <g>
       <use style="stroke:#000000;stroke-width:0.8;" x="669.972193" xlink:href="#m75d480286b" y="272.412"/>
      </g>
     </g>
     <g id="text_20">
      <!-- 1000 -->
      <g transform="translate(657.247193 287.010437)scale(0.1 -0.1)">
       <use xlink:href="#DejaVuSans-31"/>
       <use x="63.623047" xlink:href="#DejaVuSans-30"/>
       <use x="127.246094" xlink:href="#DejaVuSans-30"/>
       <use x="190.869141" xlink:href="#DejaVuSans-30"/>
      </g>
     </g>
    </g>
    <g id="xtick_14">
     <g id="line2d_22">
      <g>
       <use style="stroke:#000000;stroke-width:0.8;" x="709.758289" xlink:href="#m75d480286b" y="272.412"/>
      </g>
     </g>
     <g id="text_21">
      <!-- 1500 -->
      <g transform="translate(697.033289 287.010437)scale(0.1 -0.1)">
       <use xlink:href="#DejaVuSans-31"/>
       <use x="63.623047" xlink:href="#DejaVuSans-35"/>
       <use x="127.246094" xlink:href="#DejaVuSans-30"/>
       <use x="190.869141" xlink:href="#DejaVuSans-30"/>
      </g>
     </g>
    </g>
   </g>
   <g id="matplotlib.axis_4">
    <g id="ytick_7">
     <g id="line2d_23">
      <g>
       <use style="stroke:#000000;stroke-width:0.8;" x="459.105882" xlink:href="#mc00d9d86c3" y="263.191091"/>
      </g>
     </g>
     <g id="text_22">
      <!-- 0.0 -->
      <g transform="translate(436.202757 266.99031)scale(0.1 -0.1)">
       <use xlink:href="#DejaVuSans-30"/>
       <use x="63.623047" xlink:href="#DejaVuSans-2e"/>
       <use x="95.410156" xlink:href="#DejaVuSans-30"/>
      </g>
     </g>
    </g>
    <g id="ytick_8">
     <g id="line2d_24">
      <g>
       <use style="stroke:#000000;stroke-width:0.8;" x="459.105882" xlink:href="#mc00d9d86c3" y="226.307455"/>
      </g>
     </g>
     <g id="text_23">
      <!-- 0.2 -->
      <g transform="translate(436.202757 230.106673)scale(0.1 -0.1)">
       <use xlink:href="#DejaVuSans-30"/>
       <use x="63.623047" xlink:href="#DejaVuSans-2e"/>
       <use x="95.410156" xlink:href="#DejaVuSans-32"/>
      </g>
     </g>
    </g>
    <g id="ytick_9">
     <g id="line2d_25">
      <g>
       <use style="stroke:#000000;stroke-width:0.8;" x="459.105882" xlink:href="#mc00d9d86c3" y="189.423818"/>
      </g>
     </g>
     <g id="text_24">
      <!-- 0.4 -->
      <g transform="translate(436.202757 193.223037)scale(0.1 -0.1)">
       <use xlink:href="#DejaVuSans-30"/>
       <use x="63.623047" xlink:href="#DejaVuSans-2e"/>
       <use x="95.410156" xlink:href="#DejaVuSans-34"/>
      </g>
     </g>
    </g>
    <g id="ytick_10">
     <g id="line2d_26">
      <g>
       <use style="stroke:#000000;stroke-width:0.8;" x="459.105882" xlink:href="#mc00d9d86c3" y="152.540182"/>
      </g>
     </g>
     <g id="text_25">
      <!-- 0.6 -->
      <g transform="translate(436.202757 156.339401)scale(0.1 -0.1)">
       <use xlink:href="#DejaVuSans-30"/>
       <use x="63.623047" xlink:href="#DejaVuSans-2e"/>
       <use x="95.410156" xlink:href="#DejaVuSans-36"/>
      </g>
     </g>
    </g>
    <g id="ytick_11">
     <g id="line2d_27">
      <g>
       <use style="stroke:#000000;stroke-width:0.8;" x="459.105882" xlink:href="#mc00d9d86c3" y="115.656545"/>
      </g>
     </g>
     <g id="text_26">
      <!-- 0.8 -->
      <g transform="translate(436.202757 119.455764)scale(0.1 -0.1)">
       <use xlink:href="#DejaVuSans-30"/>
       <use x="63.623047" xlink:href="#DejaVuSans-2e"/>
       <use x="95.410156" xlink:href="#DejaVuSans-38"/>
      </g>
     </g>
    </g>
    <g id="ytick_12">
     <g id="line2d_28">
      <g>
       <use style="stroke:#000000;stroke-width:0.8;" x="459.105882" xlink:href="#mc00d9d86c3" y="78.772909"/>
      </g>
     </g>
     <g id="text_27">
      <!-- 1.0 -->
      <g transform="translate(436.202757 82.572128)scale(0.1 -0.1)">
       <use xlink:href="#DejaVuSans-31"/>
       <use x="63.623047" xlink:href="#DejaVuSans-2e"/>
       <use x="95.410156" xlink:href="#DejaVuSans-30"/>
      </g>
     </g>
    </g>
   </g>
   <g id="line2d_29">
    <path clip-path="url(#padef78ce40)" d="M 471.041711 263.191091 
L 585.186283 263.093463 
L 587.972239 262.277863 
L 588.927424 261.778644 
L 589.564213 261.493786 
L 589.882608 261.301588 
L 590.678596 260.923305 
L 590.917392 261.104995 
L 591.156188 261.097544 
L 591.474583 261.229561 
L 591.792978 261.227651 
L 592.190971 261.348395 
L 593.782946 261.666306 
L 594.419736 261.959188 
L 594.817729 262.19552 
L 595.295322 262.388673 
L 596.170908 262.677926 
L 596.409704 262.696649 
L 597.046494 262.862482 
L 603.732787 263.187652 
L 607.792322 263.191091 
L 654.039181 263.191091 
L 709.758289 263.191091 
L 709.758289 263.191091 
" style="fill:none;stroke:#1f77b4;stroke-linecap:square;stroke-width:1.5;"/>
   </g>
   <g id="line2d_30">
    <path clip-path="url(#padef78ce40)" d="M 590.4 78.772909 
" style="fill:none;stroke:#ff7f0e;stroke-linecap:square;stroke-width:1.5;"/>
   </g>
   <g id="patch_8">
    <path d="M 459.105882 272.412 
L 459.105882 69.552 
" style="fill:none;stroke:#000000;stroke-linecap:square;stroke-linejoin:miter;stroke-width:0.8;"/>
   </g>
   <g id="patch_9">
    <path d="M 721.694118 272.412 
L 721.694118 69.552 
" style="fill:none;stroke:#000000;stroke-linecap:square;stroke-linejoin:miter;stroke-width:0.8;"/>
   </g>
   <g id="patch_10">
    <path d="M 459.105882 272.412 
L 721.694118 272.412 
" style="fill:none;stroke:#000000;stroke-linecap:square;stroke-linejoin:miter;stroke-width:0.8;"/>
   </g>
   <g id="patch_11">
    <path d="M 459.105882 69.552 
L 721.694118 69.552 
" style="fill:none;stroke:#000000;stroke-linecap:square;stroke-linejoin:miter;stroke-width:0.8;"/>
   </g>
   <g id="text_28">
    <!-- Left Leg Y error distribution before calib -->
    <defs>
     <path d="M -0.203125 72.90625 
L 10.40625 72.90625 
L 30.609375 42.921875 
L 50.6875 72.90625 
L 61.28125 72.90625 
L 35.5 34.71875 
L 35.5 0 
L 25.59375 0 
L 25.59375 34.71875 
z
" id="DejaVuSans-59"/>
    </defs>
    <g transform="translate(470.442188 63.552)scale(0.12 -0.12)">
     <use xlink:href="#DejaVuSans-4c"/>
     <use x="55.697266" xlink:href="#DejaVuSans-65"/>
     <use x="117.220703" xlink:href="#DejaVuSans-66"/>
     <use x="152.410156" xlink:href="#DejaVuSans-74"/>
     <use x="191.619141" xlink:href="#DejaVuSans-20"/>
     <use x="223.40625" xlink:href="#DejaVuSans-4c"/>
     <use x="279.103516" xlink:href="#DejaVuSans-65"/>
     <use x="340.626953" xlink:href="#DejaVuSans-67"/>
     <use x="404.103516" xlink:href="#DejaVuSans-20"/>
     <use x="435.890625" xlink:href="#DejaVuSans-59"/>
     <use x="496.974609" xlink:href="#DejaVuSans-20"/>
     <use x="528.761719" xlink:href="#DejaVuSans-65"/>
     <use x="590.285156" xlink:href="#DejaVuSans-72"/>
     <use x="631.382812" xlink:href="#DejaVuSans-72"/>
     <use x="672.464844" xlink:href="#DejaVuSans-6f"/>
     <use x="733.646484" xlink:href="#DejaVuSans-72"/>
     <use x="774.759766" xlink:href="#DejaVuSans-20"/>
     <use x="806.546875" xlink:href="#DejaVuSans-64"/>
     <use x="870.023438" xlink:href="#DejaVuSans-69"/>
     <use x="897.806641" xlink:href="#DejaVuSans-73"/>
     <use x="949.90625" xlink:href="#DejaVuSans-74"/>
     <use x="989.115234" xlink:href="#DejaVuSans-72"/>
     <use x="1030.228516" xlink:href="#DejaVuSans-69"/>
     <use x="1058.011719" xlink:href="#DejaVuSans-62"/>
     <use x="1121.488281" xlink:href="#DejaVuSans-75"/>
     <use x="1184.867188" xlink:href="#DejaVuSans-74"/>
     <use x="1224.076172" xlink:href="#DejaVuSans-69"/>
     <use x="1251.859375" xlink:href="#DejaVuSans-6f"/>
     <use x="1313.041016" xlink:href="#DejaVuSans-6e"/>
     <use x="1376.419922" xlink:href="#DejaVuSans-20"/>
     <use x="1408.207031" xlink:href="#DejaVuSans-62"/>
     <use x="1471.683594" xlink:href="#DejaVuSans-65"/>
     <use x="1533.207031" xlink:href="#DejaVuSans-66"/>
     <use x="1568.412109" xlink:href="#DejaVuSans-6f"/>
     <use x="1629.59375" xlink:href="#DejaVuSans-72"/>
     <use x="1670.675781" xlink:href="#DejaVuSans-65"/>
     <use x="1732.199219" xlink:href="#DejaVuSans-20"/>
     <use x="1763.986328" xlink:href="#DejaVuSans-63"/>
     <use x="1818.966797" xlink:href="#DejaVuSans-61"/>
     <use x="1880.246094" xlink:href="#DejaVuSans-6c"/>
     <use x="1908.029297" xlink:href="#DejaVuSans-69"/>
     <use x="1935.8125" xlink:href="#DejaVuSans-62"/>
    </g>
   </g>
  </g>
  <g id="axes_3">
   <g id="patch_12">
    <path d="M 774.211765 272.412 
L 1036.8 272.412 
L 1036.8 69.552 
L 774.211765 69.552 
z
" style="fill:#ffffff;"/>
   </g>
   <g id="matplotlib.axis_5">
    <g id="xtick_15">
     <g id="line2d_31">
      <g>
       <use style="stroke:#000000;stroke-width:0.8;" x="774.211765" xlink:href="#m75d480286b" y="272.412"/>
      </g>
     </g>
     <g id="text_29">
      <!-- 0.0 -->
      <g transform="translate(766.260202 287.010437)scale(0.1 -0.1)">
       <use xlink:href="#DejaVuSans-30"/>
       <use x="63.623047" xlink:href="#DejaVuSans-2e"/>
       <use x="95.410156" xlink:href="#DejaVuSans-30"/>
      </g>
     </g>
    </g>
    <g id="xtick_16">
     <g id="line2d_32">
      <g>
       <use style="stroke:#000000;stroke-width:0.8;" x="826.729412" xlink:href="#m75d480286b" y="272.412"/>
      </g>
     </g>
     <g id="text_30">
      <!-- 0.2 -->
      <g transform="translate(818.777849 287.010437)scale(0.1 -0.1)">
       <use xlink:href="#DejaVuSans-30"/>
       <use x="63.623047" xlink:href="#DejaVuSans-2e"/>
       <use x="95.410156" xlink:href="#DejaVuSans-32"/>
      </g>
     </g>
    </g>
    <g id="xtick_17">
     <g id="line2d_33">
      <g>
       <use style="stroke:#000000;stroke-width:0.8;" x="879.247059" xlink:href="#m75d480286b" y="272.412"/>
      </g>
     </g>
     <g id="text_31">
      <!-- 0.4 -->
      <g transform="translate(871.295496 287.010437)scale(0.1 -0.1)">
       <use xlink:href="#DejaVuSans-30"/>
       <use x="63.623047" xlink:href="#DejaVuSans-2e"/>
       <use x="95.410156" xlink:href="#DejaVuSans-34"/>
      </g>
     </g>
    </g>
    <g id="xtick_18">
     <g id="line2d_34">
      <g>
       <use style="stroke:#000000;stroke-width:0.8;" x="931.764706" xlink:href="#m75d480286b" y="272.412"/>
      </g>
     </g>
     <g id="text_32">
      <!-- 0.6 -->
      <g transform="translate(923.813143 287.010437)scale(0.1 -0.1)">
       <use xlink:href="#DejaVuSans-30"/>
       <use x="63.623047" xlink:href="#DejaVuSans-2e"/>
       <use x="95.410156" xlink:href="#DejaVuSans-36"/>
      </g>
     </g>
    </g>
    <g id="xtick_19">
     <g id="line2d_35">
      <g>
       <use style="stroke:#000000;stroke-width:0.8;" x="984.282353" xlink:href="#m75d480286b" y="272.412"/>
      </g>
     </g>
     <g id="text_33">
      <!-- 0.8 -->
      <g transform="translate(976.33079 287.010437)scale(0.1 -0.1)">
       <use xlink:href="#DejaVuSans-30"/>
       <use x="63.623047" xlink:href="#DejaVuSans-2e"/>
       <use x="95.410156" xlink:href="#DejaVuSans-38"/>
      </g>
     </g>
    </g>
    <g id="xtick_20">
     <g id="line2d_36">
      <g>
       <use style="stroke:#000000;stroke-width:0.8;" x="1036.8" xlink:href="#m75d480286b" y="272.412"/>
      </g>
     </g>
     <g id="text_34">
      <!-- 1.0 -->
      <g transform="translate(1028.848438 287.010437)scale(0.1 -0.1)">
       <use xlink:href="#DejaVuSans-31"/>
       <use x="63.623047" xlink:href="#DejaVuSans-2e"/>
       <use x="95.410156" xlink:href="#DejaVuSans-30"/>
      </g>
     </g>
    </g>
   </g>
   <g id="matplotlib.axis_6">
    <g id="ytick_13">
     <g id="line2d_37">
      <g>
       <use style="stroke:#000000;stroke-width:0.8;" x="774.211765" xlink:href="#mc00d9d86c3" y="272.412"/>
      </g>
     </g>
     <g id="text_35">
      <!-- 0.0 -->
      <g transform="translate(751.30864 276.211219)scale(0.1 -0.1)">
       <use xlink:href="#DejaVuSans-30"/>
       <use x="63.623047" xlink:href="#DejaVuSans-2e"/>
       <use x="95.410156" xlink:href="#DejaVuSans-30"/>
      </g>
     </g>
    </g>
    <g id="ytick_14">
     <g id="line2d_38">
      <g>
       <use style="stroke:#000000;stroke-width:0.8;" x="774.211765" xlink:href="#mc00d9d86c3" y="231.84"/>
      </g>
     </g>
     <g id="text_36">
      <!-- 0.2 -->
      <g transform="translate(751.30864 235.639219)scale(0.1 -0.1)">
       <use xlink:href="#DejaVuSans-30"/>
       <use x="63.623047" xlink:href="#DejaVuSans-2e"/>
       <use x="95.410156" xlink:href="#DejaVuSans-32"/>
      </g>
     </g>
    </g>
    <g id="ytick_15">
     <g id="line2d_39">
      <g>
       <use style="stroke:#000000;stroke-width:0.8;" x="774.211765" xlink:href="#mc00d9d86c3" y="191.268"/>
      </g>
     </g>
     <g id="text_37">
      <!-- 0.4 -->
      <g transform="translate(751.30864 195.067219)scale(0.1 -0.1)">
       <use xlink:href="#DejaVuSans-30"/>
       <use x="63.623047" xlink:href="#DejaVuSans-2e"/>
       <use x="95.410156" xlink:href="#DejaVuSans-34"/>
      </g>
     </g>
    </g>
    <g id="ytick_16">
     <g id="line2d_40">
      <g>
       <use style="stroke:#000000;stroke-width:0.8;" x="774.211765" xlink:href="#mc00d9d86c3" y="150.696"/>
      </g>
     </g>
     <g id="text_38">
      <!-- 0.6 -->
      <g transform="translate(751.30864 154.495219)scale(0.1 -0.1)">
       <use xlink:href="#DejaVuSans-30"/>
       <use x="63.623047" xlink:href="#DejaVuSans-2e"/>
       <use x="95.410156" xlink:href="#DejaVuSans-36"/>
      </g>
     </g>
    </g>
    <g id="ytick_17">
     <g id="line2d_41">
      <g>
       <use style="stroke:#000000;stroke-width:0.8;" x="774.211765" xlink:href="#mc00d9d86c3" y="110.124"/>
      </g>
     </g>
     <g id="text_39">
      <!-- 0.8 -->
      <g transform="translate(751.30864 113.923219)scale(0.1 -0.1)">
       <use xlink:href="#DejaVuSans-30"/>
       <use x="63.623047" xlink:href="#DejaVuSans-2e"/>
       <use x="95.410156" xlink:href="#DejaVuSans-38"/>
      </g>
     </g>
    </g>
    <g id="ytick_18">
     <g id="line2d_42">
      <g>
       <use style="stroke:#000000;stroke-width:0.8;" x="774.211765" xlink:href="#mc00d9d86c3" y="69.552"/>
      </g>
     </g>
     <g id="text_40">
      <!-- 1.0 -->
      <g transform="translate(751.30864 73.351219)scale(0.1 -0.1)">
       <use xlink:href="#DejaVuSans-31"/>
       <use x="63.623047" xlink:href="#DejaVuSans-2e"/>
       <use x="95.410156" xlink:href="#DejaVuSans-30"/>
      </g>
     </g>
    </g>
   </g>
   <g id="patch_13">
    <path d="M 774.211765 272.412 
L 774.211765 69.552 
" style="fill:none;stroke:#000000;stroke-linecap:square;stroke-linejoin:miter;stroke-width:0.8;"/>
   </g>
   <g id="patch_14">
    <path d="M 1036.8 272.412 
L 1036.8 69.552 
" style="fill:none;stroke:#000000;stroke-linecap:square;stroke-linejoin:miter;stroke-width:0.8;"/>
   </g>
   <g id="patch_15">
    <path d="M 774.211765 272.412 
L 1036.8 272.412 
" style="fill:none;stroke:#000000;stroke-linecap:square;stroke-linejoin:miter;stroke-width:0.8;"/>
   </g>
   <g id="patch_16">
    <path d="M 774.211765 69.552 
L 1036.8 69.552 
" style="fill:none;stroke:#000000;stroke-linecap:square;stroke-linejoin:miter;stroke-width:0.8;"/>
   </g>
   <g id="text_41">
    <!-- Joint error distribution before calib -->
    <defs>
     <path d="M 9.8125 72.90625 
L 19.671875 72.90625 
L 19.671875 5.078125 
Q 19.671875 -8.109375 14.671875 -14.0625 
Q 9.671875 -20.015625 -1.421875 -20.015625 
L -5.171875 -20.015625 
L -5.171875 -11.71875 
L -2.09375 -11.71875 
Q 4.4375 -11.71875 7.125 -8.046875 
Q 9.8125 -4.390625 9.8125 5.078125 
z
" id="DejaVuSans-4a"/>
    </defs>
    <g transform="translate(802.10432 63.552)scale(0.12 -0.12)">
     <use xlink:href="#DejaVuSans-4a"/>
     <use x="29.492188" xlink:href="#DejaVuSans-6f"/>
     <use x="90.673828" xlink:href="#DejaVuSans-69"/>
     <use x="118.457031" xlink:href="#DejaVuSans-6e"/>
     <use x="181.835938" xlink:href="#DejaVuSans-74"/>
     <use x="221.044922" xlink:href="#DejaVuSans-20"/>
     <use x="252.832031" xlink:href="#DejaVuSans-65"/>
     <use x="314.355469" xlink:href="#DejaVuSans-72"/>
     <use x="355.453125" xlink:href="#DejaVuSans-72"/>
     <use x="396.535156" xlink:href="#DejaVuSans-6f"/>
     <use x="457.716797" xlink:href="#DejaVuSans-72"/>
     <use x="498.830078" xlink:href="#DejaVuSans-20"/>
     <use x="530.617188" xlink:href="#DejaVuSans-64"/>
     <use x="594.09375" xlink:href="#DejaVuSans-69"/>
     <use x="621.876953" xlink:href="#DejaVuSans-73"/>
     <use x="673.976562" xlink:href="#DejaVuSans-74"/>
     <use x="713.185547" xlink:href="#DejaVuSans-72"/>
     <use x="754.298828" xlink:href="#DejaVuSans-69"/>
     <use x="782.082031" xlink:href="#DejaVuSans-62"/>
     <use x="845.558594" xlink:href="#DejaVuSans-75"/>
     <use x="908.9375" xlink:href="#DejaVuSans-74"/>
     <use x="948.146484" xlink:href="#DejaVuSans-69"/>
     <use x="975.929688" xlink:href="#DejaVuSans-6f"/>
     <use x="1037.111328" xlink:href="#DejaVuSans-6e"/>
     <use x="1100.490234" xlink:href="#DejaVuSans-20"/>
     <use x="1132.277344" xlink:href="#DejaVuSans-62"/>
     <use x="1195.753906" xlink:href="#DejaVuSans-65"/>
     <use x="1257.277344" xlink:href="#DejaVuSans-66"/>
     <use x="1292.482422" xlink:href="#DejaVuSans-6f"/>
     <use x="1353.664062" xlink:href="#DejaVuSans-72"/>
     <use x="1394.746094" xlink:href="#DejaVuSans-65"/>
     <use x="1456.269531" xlink:href="#DejaVuSans-20"/>
     <use x="1488.056641" xlink:href="#DejaVuSans-63"/>
     <use x="1543.037109" xlink:href="#DejaVuSans-61"/>
     <use x="1604.316406" xlink:href="#DejaVuSans-6c"/>
     <use x="1632.099609" xlink:href="#DejaVuSans-69"/>
     <use x="1659.882812" xlink:href="#DejaVuSans-62"/>
    </g>
   </g>
  </g>
  <g id="axes_4">
   <g id="patch_17">
    <path d="M 144 515.844 
L 406.588235 515.844 
L 406.588235 312.984 
L 144 312.984 
z
" style="fill:#ffffff;"/>
   </g>
   <g id="matplotlib.axis_7">
    <g id="xtick_21">
     <g id="line2d_43">
      <g>
       <use style="stroke:#000000;stroke-width:0.8;" x="159.256104" xlink:href="#m75d480286b" y="515.844"/>
      </g>
     </g>
     <g id="text_42">
      <!-- −7.5 -->
      <defs>
       <path d="M 8.203125 72.90625 
L 55.078125 72.90625 
L 55.078125 68.703125 
L 28.609375 0 
L 18.3125 0 
L 43.21875 64.59375 
L 8.203125 64.59375 
z
" id="DejaVuSans-37"/>
      </defs>
      <g transform="translate(147.114698 530.442437)scale(0.1 -0.1)">
       <use xlink:href="#DejaVuSans-2212"/>
       <use x="83.789062" xlink:href="#DejaVuSans-37"/>
       <use x="147.412109" xlink:href="#DejaVuSans-2e"/>
       <use x="179.199219" xlink:href="#DejaVuSans-35"/>
      </g>
     </g>
    </g>
    <g id="xtick_22">
     <g id="line2d_44">
      <g>
       <use style="stroke:#000000;stroke-width:0.8;" x="197.935442" xlink:href="#m75d480286b" y="515.844"/>
      </g>
     </g>
     <g id="text_43">
      <!-- −5.0 -->
      <g transform="translate(185.794036 530.442437)scale(0.1 -0.1)">
       <use xlink:href="#DejaVuSans-2212"/>
       <use x="83.789062" xlink:href="#DejaVuSans-35"/>
       <use x="147.412109" xlink:href="#DejaVuSans-2e"/>
       <use x="179.199219" xlink:href="#DejaVuSans-30"/>
      </g>
     </g>
    </g>
    <g id="xtick_23">
     <g id="line2d_45">
      <g>
       <use style="stroke:#000000;stroke-width:0.8;" x="236.61478" xlink:href="#m75d480286b" y="515.844"/>
      </g>
     </g>
     <g id="text_44">
      <!-- −2.5 -->
      <g transform="translate(224.473374 530.442437)scale(0.1 -0.1)">
       <use xlink:href="#DejaVuSans-2212"/>
       <use x="83.789062" xlink:href="#DejaVuSans-32"/>
       <use x="147.412109" xlink:href="#DejaVuSans-2e"/>
       <use x="179.199219" xlink:href="#DejaVuSans-35"/>
      </g>
     </g>
    </g>
    <g id="xtick_24">
     <g id="line2d_46">
      <g>
       <use style="stroke:#000000;stroke-width:0.8;" x="275.294118" xlink:href="#m75d480286b" y="515.844"/>
      </g>
     </g>
     <g id="text_45">
      <!-- 0.0 -->
      <g transform="translate(267.342555 530.442437)scale(0.1 -0.1)">
       <use xlink:href="#DejaVuSans-30"/>
       <use x="63.623047" xlink:href="#DejaVuSans-2e"/>
       <use x="95.410156" xlink:href="#DejaVuSans-30"/>
      </g>
     </g>
    </g>
    <g id="xtick_25">
     <g id="line2d_47">
      <g>
       <use style="stroke:#000000;stroke-width:0.8;" x="313.973455" xlink:href="#m75d480286b" y="515.844"/>
      </g>
     </g>
     <g id="text_46">
      <!-- 2.5 -->
      <g transform="translate(306.021893 530.442437)scale(0.1 -0.1)">
       <use xlink:href="#DejaVuSans-32"/>
       <use x="63.623047" xlink:href="#DejaVuSans-2e"/>
       <use x="95.410156" xlink:href="#DejaVuSans-35"/>
      </g>
     </g>
    </g>
    <g id="xtick_26">
     <g id="line2d_48">
      <g>
       <use style="stroke:#000000;stroke-width:0.8;" x="352.652793" xlink:href="#m75d480286b" y="515.844"/>
      </g>
     </g>
     <g id="text_47">
      <!-- 5.0 -->
      <g transform="translate(344.701231 530.442437)scale(0.1 -0.1)">
       <use xlink:href="#DejaVuSans-35"/>
       <use x="63.623047" xlink:href="#DejaVuSans-2e"/>
       <use x="95.410156" xlink:href="#DejaVuSans-30"/>
      </g>
     </g>
    </g>
    <g id="xtick_27">
     <g id="line2d_49">
      <g>
       <use style="stroke:#000000;stroke-width:0.8;" x="391.332131" xlink:href="#m75d480286b" y="515.844"/>
      </g>
     </g>
     <g id="text_48">
      <!-- 7.5 -->
      <g transform="translate(383.380568 530.442437)scale(0.1 -0.1)">
       <use xlink:href="#DejaVuSans-37"/>
       <use x="63.623047" xlink:href="#DejaVuSans-2e"/>
       <use x="95.410156" xlink:href="#DejaVuSans-35"/>
      </g>
     </g>
    </g>
   </g>
   <g id="matplotlib.axis_8">
    <g id="ytick_19">
     <g id="line2d_50">
      <g>
       <use style="stroke:#000000;stroke-width:0.8;" x="144" xlink:href="#mc00d9d86c3" y="506.900184"/>
      </g>
     </g>
     <g id="text_49">
      <!-- 0.0 -->
      <g transform="translate(121.096875 510.699403)scale(0.1 -0.1)">
       <use xlink:href="#DejaVuSans-30"/>
       <use x="63.623047" xlink:href="#DejaVuSans-2e"/>
       <use x="95.410156" xlink:href="#DejaVuSans-30"/>
      </g>
     </g>
    </g>
    <g id="ytick_20">
     <g id="line2d_51">
      <g>
       <use style="stroke:#000000;stroke-width:0.8;" x="144" xlink:href="#mc00d9d86c3" y="462.181103"/>
      </g>
     </g>
     <g id="text_50">
      <!-- 0.1 -->
      <g transform="translate(121.096875 465.980322)scale(0.1 -0.1)">
       <use xlink:href="#DejaVuSans-30"/>
       <use x="63.623047" xlink:href="#DejaVuSans-2e"/>
       <use x="95.410156" xlink:href="#DejaVuSans-31"/>
      </g>
     </g>
    </g>
    <g id="ytick_21">
     <g id="line2d_52">
      <g>
       <use style="stroke:#000000;stroke-width:0.8;" x="144" xlink:href="#mc00d9d86c3" y="417.462022"/>
      </g>
     </g>
     <g id="text_51">
      <!-- 0.2 -->
      <g transform="translate(121.096875 421.261241)scale(0.1 -0.1)">
       <use xlink:href="#DejaVuSans-30"/>
       <use x="63.623047" xlink:href="#DejaVuSans-2e"/>
       <use x="95.410156" xlink:href="#DejaVuSans-32"/>
      </g>
     </g>
    </g>
    <g id="ytick_22">
     <g id="line2d_53">
      <g>
       <use style="stroke:#000000;stroke-width:0.8;" x="144" xlink:href="#mc00d9d86c3" y="372.742942"/>
      </g>
     </g>
     <g id="text_52">
      <!-- 0.3 -->
      <defs>
       <path d="M 40.578125 39.3125 
Q 47.65625 37.796875 51.625 33 
Q 55.609375 28.21875 55.609375 21.1875 
Q 55.609375 10.40625 48.1875 4.484375 
Q 40.765625 -1.421875 27.09375 -1.421875 
Q 22.515625 -1.421875 17.65625 -0.515625 
Q 12.796875 0.390625 7.625 2.203125 
L 7.625 11.71875 
Q 11.71875 9.328125 16.59375 8.109375 
Q 21.484375 6.890625 26.8125 6.890625 
Q 36.078125 6.890625 40.9375 10.546875 
Q 45.796875 14.203125 45.796875 21.1875 
Q 45.796875 27.640625 41.28125 31.265625 
Q 36.765625 34.90625 28.71875 34.90625 
L 20.21875 34.90625 
L 20.21875 43.015625 
L 29.109375 43.015625 
Q 36.375 43.015625 40.234375 45.921875 
Q 44.09375 48.828125 44.09375 54.296875 
Q 44.09375 59.90625 40.109375 62.90625 
Q 36.140625 65.921875 28.71875 65.921875 
Q 24.65625 65.921875 20.015625 65.03125 
Q 15.375 64.15625 9.8125 62.3125 
L 9.8125 71.09375 
Q 15.4375 72.65625 20.34375 73.4375 
Q 25.25 74.21875 29.59375 74.21875 
Q 40.828125 74.21875 47.359375 69.109375 
Q 53.90625 64.015625 53.90625 55.328125 
Q 53.90625 49.265625 50.4375 45.09375 
Q 46.96875 40.921875 40.578125 39.3125 
z
" id="DejaVuSans-33"/>
      </defs>
      <g transform="translate(121.096875 376.542161)scale(0.1 -0.1)">
       <use xlink:href="#DejaVuSans-30"/>
       <use x="63.623047" xlink:href="#DejaVuSans-2e"/>
       <use x="95.410156" xlink:href="#DejaVuSans-33"/>
      </g>
     </g>
    </g>
    <g id="ytick_23">
     <g id="line2d_54">
      <g>
       <use style="stroke:#000000;stroke-width:0.8;" x="144" xlink:href="#mc00d9d86c3" y="328.023861"/>
      </g>
     </g>
     <g id="text_53">
      <!-- 0.4 -->
      <g transform="translate(121.096875 331.82308)scale(0.1 -0.1)">
       <use xlink:href="#DejaVuSans-30"/>
       <use x="63.623047" xlink:href="#DejaVuSans-2e"/>
       <use x="95.410156" xlink:href="#DejaVuSans-34"/>
      </g>
     </g>
    </g>
   </g>
   <g id="line2d_55">
    <path clip-path="url(#p07e2266425)" d="M 155.935829 506.900184 
L 158.347107 506.900184 
L 160.758386 506.900184 
L 163.169665 506.900184 
L 165.580943 506.900184 
L 167.992222 506.900184 
L 170.4035 506.900184 
L 172.814779 506.900184 
L 175.226057 506.900184 
L 177.637336 506.900184 
L 180.048614 506.900184 
L 182.459893 506.900184 
L 184.871172 506.900184 
L 187.28245 506.900184 
L 189.693729 506.900184 
L 192.105007 506.900184 
L 194.516286 506.900184 
L 196.927564 506.899721 
L 199.338843 506.900184 
L 201.750122 506.899257 
L 204.1614 506.899721 
L 206.572679 506.898794 
L 208.983957 506.899257 
L 211.395236 506.897867 
L 213.806514 506.893698 
L 216.217793 506.893698 
L 218.629071 506.893235 
L 221.04035 506.885359 
L 223.451629 506.87563 
L 225.862907 506.864975 
L 228.274186 506.84598 
L 230.685464 506.82328 
L 233.096743 506.790387 
L 235.508021 506.727845 
L 237.9193 506.678738 
L 240.330579 506.598127 
L 242.741857 506.529099 
L 245.153136 506.442466 
L 247.564414 506.303947 
L 249.975693 506.144116 
L 252.386971 505.819823 
L 254.79825 505.203665 
L 257.209528 504.458252 
L 259.620807 503.643812 
L 262.032086 502.240084 
L 264.443364 500.30544 
L 266.854643 497.642989 
L 269.265921 492.875408 
L 271.6772 480.653242 
L 274.088478 377.366629 
L 276.499757 333.814449 
L 278.911035 480.771841 
L 281.322314 493.015318 
L 283.733593 498.088198 
L 286.144871 500.584796 
L 288.55615 501.988061 
L 290.967428 503.269484 
L 293.378707 504.397563 
L 295.789985 505.18328 
L 298.201264 505.696128 
L 300.612543 506.096399 
L 303.023821 506.348421 
L 305.4351 506.477212 
L 307.846378 506.562918 
L 310.257657 506.666692 
L 312.668935 506.719043 
L 315.080214 506.760274 
L 317.491492 506.81911 
L 319.902771 506.846444 
L 322.31405 506.857099 
L 324.725328 506.863585 
L 327.136607 506.876557 
L 329.547885 506.87702 
L 331.959164 506.891382 
L 334.370442 506.888602 
L 336.781721 506.893235 
L 339.193 506.894625 
L 341.604278 506.895088 
L 344.015557 506.896941 
L 346.426835 506.896478 
L 348.838114 506.898331 
L 351.249392 506.898331 
L 353.660671 506.898794 
L 356.071949 506.899257 
L 358.483228 506.899257 
L 360.894507 506.899721 
L 363.305785 506.899257 
L 365.717064 506.900184 
L 368.128342 506.899721 
L 370.539621 506.899721 
L 372.950899 506.899721 
L 375.362178 506.900184 
L 377.773456 506.900184 
L 380.184735 506.900184 
L 382.596014 506.900184 
L 385.007292 506.899721 
L 387.418571 506.900184 
L 389.829849 506.900184 
L 392.241128 506.900184 
L 394.652406 506.900184 
" style="fill:none;stroke:#1f77b4;stroke-linecap:square;stroke-width:1.5;"/>
   </g>
   <g id="line2d_56">
    <path clip-path="url(#p07e2266425)" d="M 275.294118 59.709377 
" style="fill:none;stroke:#ff7f0e;stroke-linecap:square;stroke-width:1.5;"/>
   </g>
   <g id="patch_18">
    <path d="M 144 515.844 
L 144 312.984 
" style="fill:none;stroke:#000000;stroke-linecap:square;stroke-linejoin:miter;stroke-width:0.8;"/>
   </g>
   <g id="patch_19">
    <path d="M 406.588235 515.844 
L 406.588235 312.984 
" style="fill:none;stroke:#000000;stroke-linecap:square;stroke-linejoin:miter;stroke-width:0.8;"/>
   </g>
   <g id="patch_20">
    <path d="M 144 515.844 
L 406.588235 515.844 
" style="fill:none;stroke:#000000;stroke-linecap:square;stroke-linejoin:miter;stroke-width:0.8;"/>
   </g>
   <g id="patch_21">
    <path d="M 144 312.984 
L 406.588235 312.984 
" style="fill:none;stroke:#000000;stroke-linecap:square;stroke-linejoin:miter;stroke-width:0.8;"/>
   </g>
   <g id="text_54">
    <!-- Left Leg X error distribution after calib -->
    <g transform="translate(160.03318 306.984)scale(0.12 -0.12)">
     <use xlink:href="#DejaVuSans-4c"/>
     <use x="55.697266" xlink:href="#DejaVuSans-65"/>
     <use x="117.220703" xlink:href="#DejaVuSans-66"/>
     <use x="152.410156" xlink:href="#DejaVuSans-74"/>
     <use x="191.619141" xlink:href="#DejaVuSans-20"/>
     <use x="223.40625" xlink:href="#DejaVuSans-4c"/>
     <use x="279.103516" xlink:href="#DejaVuSans-65"/>
     <use x="340.626953" xlink:href="#DejaVuSans-67"/>
     <use x="404.103516" xlink:href="#DejaVuSans-20"/>
     <use x="435.890625" xlink:href="#DejaVuSans-58"/>
     <use x="504.396484" xlink:href="#DejaVuSans-20"/>
     <use x="536.183594" xlink:href="#DejaVuSans-65"/>
     <use x="597.707031" xlink:href="#DejaVuSans-72"/>
     <use x="638.804688" xlink:href="#DejaVuSans-72"/>
     <use x="679.886719" xlink:href="#DejaVuSans-6f"/>
     <use x="741.068359" xlink:href="#DejaVuSans-72"/>
     <use x="782.181641" xlink:href="#DejaVuSans-20"/>
     <use x="813.96875" xlink:href="#DejaVuSans-64"/>
     <use x="877.445312" xlink:href="#DejaVuSans-69"/>
     <use x="905.228516" xlink:href="#DejaVuSans-73"/>
     <use x="957.328125" xlink:href="#DejaVuSans-74"/>
     <use x="996.537109" xlink:href="#DejaVuSans-72"/>
     <use x="1037.650391" xlink:href="#DejaVuSans-69"/>
     <use x="1065.433594" xlink:href="#DejaVuSans-62"/>
     <use x="1128.910156" xlink:href="#DejaVuSans-75"/>
     <use x="1192.289062" xlink:href="#DejaVuSans-74"/>
     <use x="1231.498047" xlink:href="#DejaVuSans-69"/>
     <use x="1259.28125" xlink:href="#DejaVuSans-6f"/>
     <use x="1320.462891" xlink:href="#DejaVuSans-6e"/>
     <use x="1383.841797" xlink:href="#DejaVuSans-20"/>
     <use x="1415.628906" xlink:href="#DejaVuSans-61"/>
     <use x="1476.908203" xlink:href="#DejaVuSans-66"/>
     <use x="1512.097656" xlink:href="#DejaVuSans-74"/>
     <use x="1551.306641" xlink:href="#DejaVuSans-65"/>
     <use x="1612.830078" xlink:href="#DejaVuSans-72"/>
     <use x="1653.943359" xlink:href="#DejaVuSans-20"/>
     <use x="1685.730469" xlink:href="#DejaVuSans-63"/>
     <use x="1740.710938" xlink:href="#DejaVuSans-61"/>
     <use x="1801.990234" xlink:href="#DejaVuSans-6c"/>
     <use x="1829.773438" xlink:href="#DejaVuSans-69"/>
     <use x="1857.556641" xlink:href="#DejaVuSans-62"/>
    </g>
   </g>
  </g>
  <g id="axes_5">
   <g id="patch_22">
    <path d="M 459.105882 515.844 
L 721.694118 515.844 
L 721.694118 312.984 
L 459.105882 312.984 
z
" style="fill:#ffffff;"/>
   </g>
   <g id="matplotlib.axis_9">
    <g id="xtick_28">
     <g id="line2d_57">
      <g>
       <use style="stroke:#000000;stroke-width:0.8;" x="474.361987" xlink:href="#m75d480286b" y="515.844"/>
      </g>
     </g>
     <g id="text_55">
      <!-- −7.5 -->
      <g transform="translate(462.220581 530.442437)scale(0.1 -0.1)">
       <use xlink:href="#DejaVuSans-2212"/>
       <use x="83.789062" xlink:href="#DejaVuSans-37"/>
       <use x="147.412109" xlink:href="#DejaVuSans-2e"/>
       <use x="179.199219" xlink:href="#DejaVuSans-35"/>
      </g>
     </g>
    </g>
    <g id="xtick_29">
     <g id="line2d_58">
      <g>
       <use style="stroke:#000000;stroke-width:0.8;" x="513.041325" xlink:href="#m75d480286b" y="515.844"/>
      </g>
     </g>
     <g id="text_56">
      <!-- −5.0 -->
      <g transform="translate(500.899918 530.442437)scale(0.1 -0.1)">
       <use xlink:href="#DejaVuSans-2212"/>
       <use x="83.789062" xlink:href="#DejaVuSans-35"/>
       <use x="147.412109" xlink:href="#DejaVuSans-2e"/>
       <use x="179.199219" xlink:href="#DejaVuSans-30"/>
      </g>
     </g>
    </g>
    <g id="xtick_30">
     <g id="line2d_59">
      <g>
       <use style="stroke:#000000;stroke-width:0.8;" x="551.720662" xlink:href="#m75d480286b" y="515.844"/>
      </g>
     </g>
     <g id="text_57">
      <!-- −2.5 -->
      <g transform="translate(539.579256 530.442437)scale(0.1 -0.1)">
       <use xlink:href="#DejaVuSans-2212"/>
       <use x="83.789062" xlink:href="#DejaVuSans-32"/>
       <use x="147.412109" xlink:href="#DejaVuSans-2e"/>
       <use x="179.199219" xlink:href="#DejaVuSans-35"/>
      </g>
     </g>
    </g>
    <g id="xtick_31">
     <g id="line2d_60">
      <g>
       <use style="stroke:#000000;stroke-width:0.8;" x="590.4" xlink:href="#m75d480286b" y="515.844"/>
      </g>
     </g>
     <g id="text_58">
      <!-- 0.0 -->
      <g transform="translate(582.448438 530.442437)scale(0.1 -0.1)">
       <use xlink:href="#DejaVuSans-30"/>
       <use x="63.623047" xlink:href="#DejaVuSans-2e"/>
       <use x="95.410156" xlink:href="#DejaVuSans-30"/>
      </g>
     </g>
    </g>
    <g id="xtick_32">
     <g id="line2d_61">
      <g>
       <use style="stroke:#000000;stroke-width:0.8;" x="629.079338" xlink:href="#m75d480286b" y="515.844"/>
      </g>
     </g>
     <g id="text_59">
      <!-- 2.5 -->
      <g transform="translate(621.127775 530.442437)scale(0.1 -0.1)">
       <use xlink:href="#DejaVuSans-32"/>
       <use x="63.623047" xlink:href="#DejaVuSans-2e"/>
       <use x="95.410156" xlink:href="#DejaVuSans-35"/>
      </g>
     </g>
    </g>
    <g id="xtick_33">
     <g id="line2d_62">
      <g>
       <use style="stroke:#000000;stroke-width:0.8;" x="667.758675" xlink:href="#m75d480286b" y="515.844"/>
      </g>
     </g>
     <g id="text_60">
      <!-- 5.0 -->
      <g transform="translate(659.807113 530.442437)scale(0.1 -0.1)">
       <use xlink:href="#DejaVuSans-35"/>
       <use x="63.623047" xlink:href="#DejaVuSans-2e"/>
       <use x="95.410156" xlink:href="#DejaVuSans-30"/>
      </g>
     </g>
    </g>
    <g id="xtick_34">
     <g id="line2d_63">
      <g>
       <use style="stroke:#000000;stroke-width:0.8;" x="706.438013" xlink:href="#m75d480286b" y="515.844"/>
      </g>
     </g>
     <g id="text_61">
      <!-- 7.5 -->
      <g transform="translate(698.486451 530.442437)scale(0.1 -0.1)">
       <use xlink:href="#DejaVuSans-37"/>
       <use x="63.623047" xlink:href="#DejaVuSans-2e"/>
       <use x="95.410156" xlink:href="#DejaVuSans-35"/>
      </g>
     </g>
    </g>
   </g>
   <g id="matplotlib.axis_10">
    <g id="ytick_24">
     <g id="line2d_64">
      <g>
       <use style="stroke:#000000;stroke-width:0.8;" x="459.105882" xlink:href="#mc00d9d86c3" y="506.900184"/>
      </g>
     </g>
     <g id="text_62">
      <!-- 0.0 -->
      <g transform="translate(436.202757 510.699403)scale(0.1 -0.1)">
       <use xlink:href="#DejaVuSans-30"/>
       <use x="63.623047" xlink:href="#DejaVuSans-2e"/>
       <use x="95.410156" xlink:href="#DejaVuSans-30"/>
      </g>
     </g>
    </g>
    <g id="ytick_25">
     <g id="line2d_65">
      <g>
       <use style="stroke:#000000;stroke-width:0.8;" x="459.105882" xlink:href="#mc00d9d86c3" y="462.181103"/>
      </g>
     </g>
     <g id="text_63">
      <!-- 0.1 -->
      <g transform="translate(436.202757 465.980322)scale(0.1 -0.1)">
       <use xlink:href="#DejaVuSans-30"/>
       <use x="63.623047" xlink:href="#DejaVuSans-2e"/>
       <use x="95.410156" xlink:href="#DejaVuSans-31"/>
      </g>
     </g>
    </g>
    <g id="ytick_26">
     <g id="line2d_66">
      <g>
       <use style="stroke:#000000;stroke-width:0.8;" x="459.105882" xlink:href="#mc00d9d86c3" y="417.462022"/>
      </g>
     </g>
     <g id="text_64">
      <!-- 0.2 -->
      <g transform="translate(436.202757 421.261241)scale(0.1 -0.1)">
       <use xlink:href="#DejaVuSans-30"/>
       <use x="63.623047" xlink:href="#DejaVuSans-2e"/>
       <use x="95.410156" xlink:href="#DejaVuSans-32"/>
      </g>
     </g>
    </g>
    <g id="ytick_27">
     <g id="line2d_67">
      <g>
       <use style="stroke:#000000;stroke-width:0.8;" x="459.105882" xlink:href="#mc00d9d86c3" y="372.742942"/>
      </g>
     </g>
     <g id="text_65">
      <!-- 0.3 -->
      <g transform="translate(436.202757 376.542161)scale(0.1 -0.1)">
       <use xlink:href="#DejaVuSans-30"/>
       <use x="63.623047" xlink:href="#DejaVuSans-2e"/>
       <use x="95.410156" xlink:href="#DejaVuSans-33"/>
      </g>
     </g>
    </g>
    <g id="ytick_28">
     <g id="line2d_68">
      <g>
       <use style="stroke:#000000;stroke-width:0.8;" x="459.105882" xlink:href="#mc00d9d86c3" y="328.023861"/>
      </g>
     </g>
     <g id="text_66">
      <!-- 0.4 -->
      <g transform="translate(436.202757 331.82308)scale(0.1 -0.1)">
       <use xlink:href="#DejaVuSans-30"/>
       <use x="63.623047" xlink:href="#DejaVuSans-2e"/>
       <use x="95.410156" xlink:href="#DejaVuSans-34"/>
      </g>
     </g>
    </g>
   </g>
   <g id="line2d_69">
    <path clip-path="url(#pd80a3fb809)" d="M 471.041711 506.900184 
L 473.45299 506.900184 
L 475.864268 506.900184 
L 478.275547 506.900184 
L 480.686825 506.900184 
L 483.098104 506.900184 
L 485.509383 506.900184 
L 487.920661 506.900184 
L 490.33194 506.900184 
L 492.743218 506.900184 
L 495.154497 506.900184 
L 497.565775 506.900184 
L 499.977054 506.900184 
L 502.388333 506.900184 
L 504.799611 506.900184 
L 507.21089 506.900184 
L 509.622168 506.900184 
L 512.033447 506.900184 
L 514.444725 506.899721 
L 516.856004 506.899721 
L 519.267282 506.899721 
L 521.678561 506.899721 
L 524.08984 506.899721 
L 526.501118 506.898331 
L 528.912397 506.897867 
L 531.323675 506.899257 
L 533.734954 506.892771 
L 536.146232 506.895551 
L 538.557511 506.894625 
L 540.968789 506.885822 
L 543.380068 506.888602 
L 545.791347 506.88119 
L 548.202625 506.882116 
L 550.613904 506.871461 
L 553.025182 506.863122 
L 555.436461 506.834862 
L 557.847739 506.807529 
L 560.259018 506.764907 
L 562.670297 506.691709 
L 565.081575 506.560602 
L 567.492854 506.316455 
L 569.904132 505.850862 
L 572.315411 505.233314 
L 574.726689 504.325292 
L 577.137968 503.200456 
L 579.549246 501.42101 
L 581.960525 497.911689 
L 584.371804 492.927295 
L 586.783082 481.0234 
L 589.194361 367.296846 
L 591.605639 330.612744 
L 594.016918 479.638203 
L 596.428196 492.649793 
L 598.839475 498.300842 
L 601.250754 501.163892 
L 603.662032 503.206942 
L 606.073311 504.388298 
L 608.484589 505.249066 
L 610.895868 505.770252 
L 613.307146 506.228433 
L 615.718425 506.567551 
L 618.129703 506.722286 
L 620.540982 506.789461 
L 622.952261 506.830229 
L 625.363539 506.845054 
L 627.774818 506.864512 
L 630.186096 506.876093 
L 632.597375 506.885359 
L 635.008653 506.885822 
L 637.419932 506.888139 
L 639.831211 506.892308 
L 642.242489 506.890455 
L 644.653768 506.887212 
L 647.065046 506.892308 
L 649.476325 506.894161 
L 651.887603 506.895551 
L 654.298882 506.897404 
L 656.71016 506.897404 
L 659.121439 506.899257 
L 661.532718 506.898331 
L 663.943996 506.900184 
L 666.355275 506.898794 
L 668.766553 506.900184 
L 671.177832 506.899257 
L 673.58911 506.900184 
L 676.000389 506.900184 
L 678.411667 506.900184 
L 680.822946 506.900184 
L 683.234225 506.900184 
L 685.645503 506.900184 
L 688.056782 506.900184 
L 690.46806 506.900184 
L 692.879339 506.900184 
L 695.290617 506.900184 
L 697.701896 506.900184 
L 700.113175 506.900184 
L 702.524453 506.900184 
L 704.935732 506.900184 
L 707.34701 506.900184 
L 709.758289 506.900184 
" style="fill:none;stroke:#1f77b4;stroke-linecap:square;stroke-width:1.5;"/>
   </g>
   <g id="line2d_70">
    <path clip-path="url(#pd80a3fb809)" d="M 590.4 59.709377 
" style="fill:none;stroke:#ff7f0e;stroke-linecap:square;stroke-width:1.5;"/>
   </g>
   <g id="patch_23">
    <path d="M 459.105882 515.844 
L 459.105882 312.984 
" style="fill:none;stroke:#000000;stroke-linecap:square;stroke-linejoin:miter;stroke-width:0.8;"/>
   </g>
   <g id="patch_24">
    <path d="M 721.694118 515.844 
L 721.694118 312.984 
" style="fill:none;stroke:#000000;stroke-linecap:square;stroke-linejoin:miter;stroke-width:0.8;"/>
   </g>
   <g id="patch_25">
    <path d="M 459.105882 515.844 
L 721.694118 515.844 
" style="fill:none;stroke:#000000;stroke-linecap:square;stroke-linejoin:miter;stroke-width:0.8;"/>
   </g>
   <g id="patch_26">
    <path d="M 459.105882 312.984 
L 721.694118 312.984 
" style="fill:none;stroke:#000000;stroke-linecap:square;stroke-linejoin:miter;stroke-width:0.8;"/>
   </g>
   <g id="text_67">
    <!-- Left Leg Y error distribution after calib -->
    <g transform="translate(475.584375 306.984)scale(0.12 -0.12)">
     <use xlink:href="#DejaVuSans-4c"/>
     <use x="55.697266" xlink:href="#DejaVuSans-65"/>
     <use x="117.220703" xlink:href="#DejaVuSans-66"/>
     <use x="152.410156" xlink:href="#DejaVuSans-74"/>
     <use x="191.619141" xlink:href="#DejaVuSans-20"/>
     <use x="223.40625" xlink:href="#DejaVuSans-4c"/>
     <use x="279.103516" xlink:href="#DejaVuSans-65"/>
     <use x="340.626953" xlink:href="#DejaVuSans-67"/>
     <use x="404.103516" xlink:href="#DejaVuSans-20"/>
     <use x="435.890625" xlink:href="#DejaVuSans-59"/>
     <use x="496.974609" xlink:href="#DejaVuSans-20"/>
     <use x="528.761719" xlink:href="#DejaVuSans-65"/>
     <use x="590.285156" xlink:href="#DejaVuSans-72"/>
     <use x="631.382812" xlink:href="#DejaVuSans-72"/>
     <use x="672.464844" xlink:href="#DejaVuSans-6f"/>
     <use x="733.646484" xlink:href="#DejaVuSans-72"/>
     <use x="774.759766" xlink:href="#DejaVuSans-20"/>
     <use x="806.546875" xlink:href="#DejaVuSans-64"/>
     <use x="870.023438" xlink:href="#DejaVuSans-69"/>
     <use x="897.806641" xlink:href="#DejaVuSans-73"/>
     <use x="949.90625" xlink:href="#DejaVuSans-74"/>
     <use x="989.115234" xlink:href="#DejaVuSans-72"/>
     <use x="1030.228516" xlink:href="#DejaVuSans-69"/>
     <use x="1058.011719" xlink:href="#DejaVuSans-62"/>
     <use x="1121.488281" xlink:href="#DejaVuSans-75"/>
     <use x="1184.867188" xlink:href="#DejaVuSans-74"/>
     <use x="1224.076172" xlink:href="#DejaVuSans-69"/>
     <use x="1251.859375" xlink:href="#DejaVuSans-6f"/>
     <use x="1313.041016" xlink:href="#DejaVuSans-6e"/>
     <use x="1376.419922" xlink:href="#DejaVuSans-20"/>
     <use x="1408.207031" xlink:href="#DejaVuSans-61"/>
     <use x="1469.486328" xlink:href="#DejaVuSans-66"/>
     <use x="1504.675781" xlink:href="#DejaVuSans-74"/>
     <use x="1543.884766" xlink:href="#DejaVuSans-65"/>
     <use x="1605.408203" xlink:href="#DejaVuSans-72"/>
     <use x="1646.521484" xlink:href="#DejaVuSans-20"/>
     <use x="1678.308594" xlink:href="#DejaVuSans-63"/>
     <use x="1733.289062" xlink:href="#DejaVuSans-61"/>
     <use x="1794.568359" xlink:href="#DejaVuSans-6c"/>
     <use x="1822.351562" xlink:href="#DejaVuSans-69"/>
     <use x="1850.134766" xlink:href="#DejaVuSans-62"/>
    </g>
   </g>
  </g>
  <g id="axes_6">
   <g id="patch_27">
    <path d="M 774.211765 515.844 
L 1036.8 515.844 
L 1036.8 312.984 
L 774.211765 312.984 
z
" style="fill:#ffffff;"/>
   </g>
   <g id="matplotlib.axis_11">
    <g id="xtick_35">
     <g id="line2d_71">
      <g>
       <use style="stroke:#000000;stroke-width:0.8;" x="786.63569" xlink:href="#m75d480286b" y="515.844"/>
      </g>
     </g>
     <g id="text_68">
      <!-- −0.75 -->
      <g transform="translate(771.313034 530.442437)scale(0.1 -0.1)">
       <use xlink:href="#DejaVuSans-2212"/>
       <use x="83.789062" xlink:href="#DejaVuSans-30"/>
       <use x="147.412109" xlink:href="#DejaVuSans-2e"/>
       <use x="179.199219" xlink:href="#DejaVuSans-37"/>
       <use x="242.822266" xlink:href="#DejaVuSans-35"/>
      </g>
     </g>
    </g>
    <g id="xtick_36">
     <g id="line2d_72">
      <g>
       <use style="stroke:#000000;stroke-width:0.8;" x="825.433078" xlink:href="#m75d480286b" y="515.844"/>
      </g>
     </g>
     <g id="text_69">
      <!-- −0.50 -->
      <g transform="translate(810.110422 530.442437)scale(0.1 -0.1)">
       <use xlink:href="#DejaVuSans-2212"/>
       <use x="83.789062" xlink:href="#DejaVuSans-30"/>
       <use x="147.412109" xlink:href="#DejaVuSans-2e"/>
       <use x="179.199219" xlink:href="#DejaVuSans-35"/>
       <use x="242.822266" xlink:href="#DejaVuSans-30"/>
      </g>
     </g>
    </g>
    <g id="xtick_37">
     <g id="line2d_73">
      <g>
       <use style="stroke:#000000;stroke-width:0.8;" x="864.230467" xlink:href="#m75d480286b" y="515.844"/>
      </g>
     </g>
     <g id="text_70">
      <!-- −0.25 -->
      <g transform="translate(848.907811 530.442437)scale(0.1 -0.1)">
       <use xlink:href="#DejaVuSans-2212"/>
       <use x="83.789062" xlink:href="#DejaVuSans-30"/>
       <use x="147.412109" xlink:href="#DejaVuSans-2e"/>
       <use x="179.199219" xlink:href="#DejaVuSans-32"/>
       <use x="242.822266" xlink:href="#DejaVuSans-35"/>
      </g>
     </g>
    </g>
    <g id="xtick_38">
     <g id="line2d_74">
      <g>
       <use style="stroke:#000000;stroke-width:0.8;" x="903.027856" xlink:href="#m75d480286b" y="515.844"/>
      </g>
     </g>
     <g id="text_71">
      <!-- 0.00 -->
      <g transform="translate(891.895043 530.442437)scale(0.1 -0.1)">
       <use xlink:href="#DejaVuSans-30"/>
       <use x="63.623047" xlink:href="#DejaVuSans-2e"/>
       <use x="95.410156" xlink:href="#DejaVuSans-30"/>
       <use x="159.033203" xlink:href="#DejaVuSans-30"/>
      </g>
     </g>
    </g>
    <g id="xtick_39">
     <g id="line2d_75">
      <g>
       <use style="stroke:#000000;stroke-width:0.8;" x="941.825244" xlink:href="#m75d480286b" y="515.844"/>
      </g>
     </g>
     <g id="text_72">
      <!-- 0.25 -->
      <g transform="translate(930.692432 530.442437)scale(0.1 -0.1)">
       <use xlink:href="#DejaVuSans-30"/>
       <use x="63.623047" xlink:href="#DejaVuSans-2e"/>
       <use x="95.410156" xlink:href="#DejaVuSans-32"/>
       <use x="159.033203" xlink:href="#DejaVuSans-35"/>
      </g>
     </g>
    </g>
    <g id="xtick_40">
     <g id="line2d_76">
      <g>
       <use style="stroke:#000000;stroke-width:0.8;" x="980.622633" xlink:href="#m75d480286b" y="515.844"/>
      </g>
     </g>
     <g id="text_73">
      <!-- 0.50 -->
      <g transform="translate(969.48982 530.442437)scale(0.1 -0.1)">
       <use xlink:href="#DejaVuSans-30"/>
       <use x="63.623047" xlink:href="#DejaVuSans-2e"/>
       <use x="95.410156" xlink:href="#DejaVuSans-35"/>
       <use x="159.033203" xlink:href="#DejaVuSans-30"/>
      </g>
     </g>
    </g>
    <g id="xtick_41">
     <g id="line2d_77">
      <g>
       <use style="stroke:#000000;stroke-width:0.8;" x="1019.420021" xlink:href="#m75d480286b" y="515.844"/>
      </g>
     </g>
     <g id="text_74">
      <!-- 0.75 -->
      <g transform="translate(1008.287209 530.442437)scale(0.1 -0.1)">
       <use xlink:href="#DejaVuSans-30"/>
       <use x="63.623047" xlink:href="#DejaVuSans-2e"/>
       <use x="95.410156" xlink:href="#DejaVuSans-37"/>
       <use x="159.033203" xlink:href="#DejaVuSans-35"/>
      </g>
     </g>
    </g>
   </g>
   <g id="matplotlib.axis_12">
    <g id="ytick_29">
     <g id="line2d_78">
      <g>
       <use style="stroke:#000000;stroke-width:0.8;" x="774.211765" xlink:href="#mc00d9d86c3" y="512.631437"/>
      </g>
     </g>
     <g id="text_75">
      <!-- 0.0 -->
      <g transform="translate(751.30864 516.430655)scale(0.1 -0.1)">
       <use xlink:href="#DejaVuSans-30"/>
       <use x="63.623047" xlink:href="#DejaVuSans-2e"/>
       <use x="95.410156" xlink:href="#DejaVuSans-30"/>
      </g>
     </g>
    </g>
    <g id="ytick_30">
     <g id="line2d_79">
      <g>
       <use style="stroke:#000000;stroke-width:0.8;" x="774.211765" xlink:href="#mc00d9d86c3" y="487.671251"/>
      </g>
     </g>
     <g id="text_76">
      <!-- 0.1 -->
      <g transform="translate(751.30864 491.47047)scale(0.1 -0.1)">
       <use xlink:href="#DejaVuSans-30"/>
       <use x="63.623047" xlink:href="#DejaVuSans-2e"/>
       <use x="95.410156" xlink:href="#DejaVuSans-31"/>
      </g>
     </g>
    </g>
    <g id="ytick_31">
     <g id="line2d_80">
      <g>
       <use style="stroke:#000000;stroke-width:0.8;" x="774.211765" xlink:href="#mc00d9d86c3" y="462.711065"/>
      </g>
     </g>
     <g id="text_77">
      <!-- 0.2 -->
      <g transform="translate(751.30864 466.510284)scale(0.1 -0.1)">
       <use xlink:href="#DejaVuSans-30"/>
       <use x="63.623047" xlink:href="#DejaVuSans-2e"/>
       <use x="95.410156" xlink:href="#DejaVuSans-32"/>
      </g>
     </g>
    </g>
    <g id="ytick_32">
     <g id="line2d_81">
      <g>
       <use style="stroke:#000000;stroke-width:0.8;" x="774.211765" xlink:href="#mc00d9d86c3" y="437.750879"/>
      </g>
     </g>
     <g id="text_78">
      <!-- 0.3 -->
      <g transform="translate(751.30864 441.550098)scale(0.1 -0.1)">
       <use xlink:href="#DejaVuSans-30"/>
       <use x="63.623047" xlink:href="#DejaVuSans-2e"/>
       <use x="95.410156" xlink:href="#DejaVuSans-33"/>
      </g>
     </g>
    </g>
    <g id="ytick_33">
     <g id="line2d_82">
      <g>
       <use style="stroke:#000000;stroke-width:0.8;" x="774.211765" xlink:href="#mc00d9d86c3" y="412.790694"/>
      </g>
     </g>
     <g id="text_79">
      <!-- 0.4 -->
      <g transform="translate(751.30864 416.589912)scale(0.1 -0.1)">
       <use xlink:href="#DejaVuSans-30"/>
       <use x="63.623047" xlink:href="#DejaVuSans-2e"/>
       <use x="95.410156" xlink:href="#DejaVuSans-34"/>
      </g>
     </g>
    </g>
    <g id="ytick_34">
     <g id="line2d_83">
      <g>
       <use style="stroke:#000000;stroke-width:0.8;" x="774.211765" xlink:href="#mc00d9d86c3" y="387.830508"/>
      </g>
     </g>
     <g id="text_80">
      <!-- 0.5 -->
      <g transform="translate(751.30864 391.629727)scale(0.1 -0.1)">
       <use xlink:href="#DejaVuSans-30"/>
       <use x="63.623047" xlink:href="#DejaVuSans-2e"/>
       <use x="95.410156" xlink:href="#DejaVuSans-35"/>
      </g>
     </g>
    </g>
    <g id="ytick_35">
     <g id="line2d_84">
      <g>
       <use style="stroke:#000000;stroke-width:0.8;" x="774.211765" xlink:href="#mc00d9d86c3" y="362.870322"/>
      </g>
     </g>
     <g id="text_81">
      <!-- 0.6 -->
      <g transform="translate(751.30864 366.669541)scale(0.1 -0.1)">
       <use xlink:href="#DejaVuSans-30"/>
       <use x="63.623047" xlink:href="#DejaVuSans-2e"/>
       <use x="95.410156" xlink:href="#DejaVuSans-36"/>
      </g>
     </g>
    </g>
    <g id="ytick_36">
     <g id="line2d_85">
      <g>
       <use style="stroke:#000000;stroke-width:0.8;" x="774.211765" xlink:href="#mc00d9d86c3" y="337.910136"/>
      </g>
     </g>
     <g id="text_82">
      <!-- 0.7 -->
      <g transform="translate(751.30864 341.709355)scale(0.1 -0.1)">
       <use xlink:href="#DejaVuSans-30"/>
       <use x="63.623047" xlink:href="#DejaVuSans-2e"/>
       <use x="95.410156" xlink:href="#DejaVuSans-37"/>
      </g>
     </g>
    </g>
    <g id="ytick_37">
     <g id="line2d_86">
      <g>
       <use style="stroke:#000000;stroke-width:0.8;" x="774.211765" xlink:href="#mc00d9d86c3" y="312.94995"/>
      </g>
     </g>
     <g id="text_83">
      <!-- 0.8 -->
      <g transform="translate(751.30864 316.749169)scale(0.1 -0.1)">
       <use xlink:href="#DejaVuSans-30"/>
       <use x="63.623047" xlink:href="#DejaVuSans-2e"/>
       <use x="95.410156" xlink:href="#DejaVuSans-38"/>
      </g>
     </g>
    </g>
   </g>
   <g id="line2d_87">
    <path clip-path="url(#p3f4b9d08ef)" d="M 771.072749 512.487435 
L 776.247459 512.516236 
L 781.422169 512.506636 
L 786.596879 512.516236 
L 791.771589 512.468235 
L 796.9463 512.468235 
L 802.12101 512.468235 
L 807.29572 512.468235 
L 812.47043 512.381835 
L 817.64514 512.506636 
L 822.81985 512.343434 
L 827.99456 512.218633 
L 833.16927 512.276234 
L 838.34398 512.314634 
L 843.51869 512.237834 
L 848.6934 512.141833 
L 853.86811 512.065032 
L 859.04282 512.036232 
L 864.21753 511.71943 
L 869.39224 511.364227 
L 874.56695 511.277826 
L 879.74166 510.865023 
L 884.91637 510.154618 
L 890.09108 509.329012 
L 895.265791 508.551406 
L 900.440501 499.796141 
L 905.615211 321.186812 
L 910.789921 508.397805 
L 915.964631 508.916209 
L 921.139341 509.703415 
L 926.314051 510.778623 
L 931.488761 511.373827 
L 936.663471 511.527428 
L 941.838181 511.921031 
L 947.012891 511.921031 
L 952.187601 512.266634 
L 957.362311 512.189833 
L 962.537021 512.199433 
L 967.711731 512.132233 
L 972.886441 512.420235 
L 978.061151 512.362635 
L 983.235861 512.401035 
L 988.410571 512.257034 
L 993.585281 512.362635 
L 998.759992 512.381835 
L 1003.934702 512.372235 
L 1009.109412 512.343434 
L 1014.284122 512.477835 
L 1019.458832 512.497036 
L 1024.633542 512.516236 
L 1029.808252 512.458635 
L 1034.982962 512.439435 
L 1040.157672 512.554636 
" style="fill:none;stroke:#1f77b4;stroke-linecap:square;stroke-width:1.5;"/>
   </g>
   <g id="line2d_88">
    <path clip-path="url(#p3f4b9d08ef)" d="M 903.027856 263.029579 
" style="fill:none;stroke:#ff7f0e;stroke-linecap:square;stroke-width:1.5;"/>
   </g>
   <g id="patch_28">
    <path d="M 774.211765 515.844 
L 774.211765 312.984 
" style="fill:none;stroke:#000000;stroke-linecap:square;stroke-linejoin:miter;stroke-width:0.8;"/>
   </g>
   <g id="patch_29">
    <path d="M 1036.8 515.844 
L 1036.8 312.984 
" style="fill:none;stroke:#000000;stroke-linecap:square;stroke-linejoin:miter;stroke-width:0.8;"/>
   </g>
   <g id="patch_30">
    <path d="M 774.211765 515.844 
L 1036.8 515.844 
" style="fill:none;stroke:#000000;stroke-linecap:square;stroke-linejoin:miter;stroke-width:0.8;"/>
   </g>
   <g id="patch_31">
    <path d="M 774.211765 312.984 
L 1036.8 312.984 
" style="fill:none;stroke:#000000;stroke-linecap:square;stroke-linejoin:miter;stroke-width:0.8;"/>
   </g>
   <g id="text_84">
    <!-- Joint error distribution after calib -->
    <g transform="translate(807.246507 306.984)scale(0.12 -0.12)">
     <use xlink:href="#DejaVuSans-4a"/>
     <use x="29.492188" xlink:href="#DejaVuSans-6f"/>
     <use x="90.673828" xlink:href="#DejaVuSans-69"/>
     <use x="118.457031" xlink:href="#DejaVuSans-6e"/>
     <use x="181.835938" xlink:href="#DejaVuSans-74"/>
     <use x="221.044922" xlink:href="#DejaVuSans-20"/>
     <use x="252.832031" xlink:href="#DejaVuSans-65"/>
     <use x="314.355469" xlink:href="#DejaVuSans-72"/>
     <use x="355.453125" xlink:href="#DejaVuSans-72"/>
     <use x="396.535156" xlink:href="#DejaVuSans-6f"/>
     <use x="457.716797" xlink:href="#DejaVuSans-72"/>
     <use x="498.830078" xlink:href="#DejaVuSans-20"/>
     <use x="530.617188" xlink:href="#DejaVuSans-64"/>
     <use x="594.09375" xlink:href="#DejaVuSans-69"/>
     <use x="621.876953" xlink:href="#DejaVuSans-73"/>
     <use x="673.976562" xlink:href="#DejaVuSans-74"/>
     <use x="713.185547" xlink:href="#DejaVuSans-72"/>
     <use x="754.298828" xlink:href="#DejaVuSans-69"/>
     <use x="782.082031" xlink:href="#DejaVuSans-62"/>
     <use x="845.558594" xlink:href="#DejaVuSans-75"/>
     <use x="908.9375" xlink:href="#DejaVuSans-74"/>
     <use x="948.146484" xlink:href="#DejaVuSans-69"/>
     <use x="975.929688" xlink:href="#DejaVuSans-6f"/>
     <use x="1037.111328" xlink:href="#DejaVuSans-6e"/>
     <use x="1100.490234" xlink:href="#DejaVuSans-20"/>
     <use x="1132.277344" xlink:href="#DejaVuSans-61"/>
     <use x="1193.556641" xlink:href="#DejaVuSans-66"/>
     <use x="1228.746094" xlink:href="#DejaVuSans-74"/>
     <use x="1267.955078" xlink:href="#DejaVuSans-65"/>
     <use x="1329.478516" xlink:href="#DejaVuSans-72"/>
     <use x="1370.591797" xlink:href="#DejaVuSans-20"/>
     <use x="1402.378906" xlink:href="#DejaVuSans-63"/>
     <use x="1457.359375" xlink:href="#DejaVuSans-61"/>
     <use x="1518.638672" xlink:href="#DejaVuSans-6c"/>
     <use x="1546.421875" xlink:href="#DejaVuSans-69"/>
     <use x="1574.205078" xlink:href="#DejaVuSans-62"/>
    </g>
   </g>
  </g>
 </g>
 <defs>
  <clipPath id="p9ada963467">
   <rect height="202.86" width="262.588235" x="144" y="69.552"/>
  </clipPath>
  <clipPath id="padef78ce40">
   <rect height="202.86" width="262.588235" x="459.105882" y="69.552"/>
  </clipPath>
  <clipPath id="p07e2266425">
   <rect height="202.86" width="262.588235" x="144" y="312.984"/>
  </clipPath>
  <clipPath id="pd80a3fb809">
   <rect height="202.86" width="262.588235" x="459.105882" y="312.984"/>
  </clipPath>
  <clipPath id="p3f4b9d08ef">
   <rect height="202.86" width="262.588235" x="774.211765" y="312.984"/>
  </clipPath>
 </defs>
</svg>
