<?xml version="1.0" encoding="UTF-8"?>
<!-- Generator: Adobe Illustrator 16.0.0, SVG Export Plug-In . SVG Version: 6.00 Build 0)  -->
<!DOCTYPE svg PUBLIC "-//W3C//DTD SVG 1.1//EN" "http://www.w3.org/Graphics/SVG/1.1/DTD/svg11.dtd">
<svg version="1.1" id="Ebene_1" xmlns="http://www.w3.org/2000/svg" xmlns:xlink="http://www.w3.org/1999/xlink" x="0px" y="0px" width="1500px" height="410px" viewBox="0 0 1500 410" enable-background="new 0 0 1500 410" xml:space="preserve">
<g>
	<polygon fill="#004B7C" points="182.189,389.261 189.172,389.261 199.802,338.034 216.567,338.034 217.756,332.503    175.723,332.503 174.535,338.034 192.829,338.034  "/>
	<path fill="#004B7C" d="M240.316,380.33c-6.384,4.003-8.771,4.934-12.51,4.934c-6.219,0-10.464-4.679-10.464-11.574   c0-1.188,0.083-2.294,0.506-5.108h27.571c0.175-2.81,0.258-4.504,0.258-5.784c0-10.293-4.432-15.654-12.851-15.654   c-6.468,0-12.17,3.314-16.684,9.617c-3.397,4.932-5.186,10.459-5.186,16.249c0,10.645,6.125,17.452,15.66,17.452   c3.058,0,6.291-0.774,9.018-2.129c1.87-0.856,2.211-1.021,6.973-3.914L240.316,380.33L240.316,380.33z M218.954,364.241   c1.445-3.567,2.21-5.103,3.573-6.89c2.728-3.662,6.385-5.79,10.041-5.79c4.515,0,7.066,3.326,7.066,9.111   c0,0.594-0.083,2.216-0.176,3.567L218.954,364.241L218.954,364.241z"/>
	<path fill="#004B7C" d="M282.184,381.095c-4.68,3.146-7.996,4.344-11.911,4.344c-5.878,0-10.041-4.685-10.041-11.316   c0-12.257,9.783-21.962,22.127-21.962c1.446,0,2.376,0.083,4.257,0.425l1.869-4.598c-2.893-0.677-4.256-0.847-6.725-0.847   c-15.743,0-28.253,11.827-28.253,26.806c0,9.953,6.126,16.678,15.237,16.678c5.186,0,8.501-1.188,15.825-5.701L282.184,381.095   L282.184,381.095z"/>
	<path fill="#004B7C" d="M292.308,389.261h6.466l5.785-27.818c6.302-5.884,11.498-8.939,15.154-8.939   c2.634,0,4.421,1.703,4.421,4.256c0,1.274-0.341,3.744-0.93,6.554l-5.454,25.949h6.642l5.96-28.501   c0.423-2.045,0.671-4.179,0.671-5.624c0-4.764-3.315-7.995-8.336-7.995c-5.62,0-11.663,3.15-17.023,8.853l5.795-27.747h-6.467   L292.308,389.261L292.308,389.261z"/>
	<path fill="#004B7C" d="M338.606,389.261h6.467l5.867-27.911c6.385-5.873,11.663-8.931,15.154-8.931   c2.717,0,4.421,1.786,4.421,4.592c0,1.104-0.083,1.869-0.258,2.81l-6.125,29.44h6.642l5.95-28.676   c0.341-1.787,0.599-3.827,0.599-5.273c0-5.021-3.315-8.171-8.677-8.171c-5.537,0-10.134,2.469-17.282,9.101l2.222-7.913h-6.466   L338.606,389.261L338.606,389.261z"/>
	<path fill="#004B7C" d="M385.071,389.261h6.715l8.429-40.934h-6.643L385.071,389.261L385.071,389.261z M395.277,339.48h6.983   l1.529-7.236h-6.983L395.277,339.48L395.277,339.48z"/>
	<path fill="#004B7C" d="M404.295,388.155c4.349,1.787,6.725,2.304,10.732,2.304c9.948,0,16.425-4.938,16.425-12.598   c0-4.08-2.386-7.571-6.899-10.128l-4.163-2.387c-2.727-1.528-4.091-3.574-4.091-6.038c0-4.514,3.75-7.406,9.452-7.406   c3.058,0,5.608,0.424,8.677,1.446l1.787-4.504c-3.916-1.193-6.983-1.704-10.464-1.704c-9.535,0-16.001,5.02-16.001,12.509   c0,4.251,2.293,7.908,6.467,10.212l2.975,1.616c4.173,2.387,5.702,4.256,5.702,7.148c0,4.168-3.915,6.978-9.783,6.978   c-2.975,0-5.36-0.506-8.77-1.952L404.295,388.155L404.295,388.155z"/>
	<path fill="#004B7C" d="M469.653,381.095c-4.679,3.146-7.995,4.344-11.91,4.344c-5.867,0-10.041-4.685-10.041-11.316   c0-12.257,9.783-21.962,22.127-21.962c1.446,0,2.376,0.083,4.257,0.425l1.869-4.598c-2.893-0.677-4.256-0.847-6.725-0.847   c-15.743,0-28.252,11.827-28.252,26.806c0,9.953,6.125,16.678,15.236,16.678c5.186,0,8.502-1.188,15.825-5.701L469.653,381.095   L469.653,381.095z"/>
	<path fill="#004B7C" d="M479.777,389.261h6.467l5.785-27.818c6.301-5.884,11.497-8.939,15.154-8.939   c2.634,0,4.421,1.703,4.421,4.256c0,1.274-0.341,3.744-0.93,6.554l-5.454,25.949h6.643l5.96-28.501   c0.424-2.045,0.683-4.179,0.683-5.624c0-4.764-3.327-7.995-8.348-7.995c-5.62,0-11.651,3.15-17.023,8.853l5.795-27.747h-6.467   L479.777,389.261L479.777,389.261z"/>
	<path fill="#004B7C" d="M556.798,380.33c-6.385,4.003-8.771,4.934-12.511,4.934c-6.219,0-10.475-4.679-10.475-11.574   c0-1.188,0.093-2.294,0.517-5.108h27.571c0.165-2.81,0.258-4.504,0.258-5.784c0-10.293-4.432-15.654-12.851-15.654   c-6.467,0-12.169,3.314-16.683,9.617c-3.399,4.932-5.196,10.459-5.196,16.249c0,10.645,6.136,17.452,15.661,17.452   c3.067,0,6.301-0.774,9.027-2.129c1.87-0.856,2.21-1.021,6.974-3.914L556.798,380.33L556.798,380.33z M535.435,364.241   c1.446-3.567,2.21-5.103,3.574-6.89c2.727-3.662,6.384-5.79,10.041-5.79c4.514,0,7.064,3.326,7.064,9.111   c0,0.594-0.093,2.216-0.175,3.567L535.435,364.241L535.435,364.241z"/>
	<path fill="#004B7C" d="M652.475,332.503h-6.891l-7.571,36.507c-2.305,11.062-7.831,16.513-16.767,16.513   c-8.005,0-13.366-4.685-13.366-11.74c0-1.963,0.258-3.92,0.682-6.048l7.324-35.23h-6.983l-7.064,34.208   c-0.59,2.552-0.849,5.107-0.849,7.318c0,10.211,7.49,16.431,19.658,16.431c7.407,0,13.357-2.222,17.448-6.385   c3.397-3.579,5.186-7.412,6.632-14.638L652.475,332.503L652.475,332.503z"/>
	<path fill="#004B7C" d="M655.636,389.261h6.466l5.878-27.911c6.374-5.873,11.652-8.931,15.144-8.931   c2.728,0,4.422,1.786,4.422,4.592c0,1.104-0.083,1.869-0.248,2.81l-6.137,29.44h6.643l5.96-28.676   c0.341-1.787,0.589-3.827,0.589-5.273c0-5.021-3.316-8.171-8.677-8.171c-5.527,0-10.124,2.469-17.272,9.101l2.211-7.913h-6.467   L655.636,389.261L655.636,389.261z"/>
	<path fill="#004B7C" d="M702.1,389.261h6.725l8.419-40.934h-6.632L702.1,389.261L702.1,389.261z M712.316,339.48h6.973l1.529-7.236   h-6.973L712.316,339.48L712.316,339.48z"/>
	<polygon fill="#004B7C" points="734.691,389.261 740.394,389.261 763.378,349.691 757.758,347.311 739.03,381.008 732.232,347.311    725.756,348.845  "/>
	<path fill="#004B7C" d="M794.202,380.33c-6.385,4.003-8.771,4.934-12.51,4.934c-6.209,0-10.465-4.679-10.465-11.574   c0-1.188,0.082-2.294,0.506-5.108h27.571c0.176-2.81,0.259-4.504,0.259-5.784c0-10.293-4.422-15.654-12.853-15.654   c-6.467,0-12.168,3.314-16.683,9.617c-3.397,4.932-5.186,10.459-5.186,16.249c0,10.645,6.126,17.452,15.659,17.452   c3.059,0,6.291-0.774,9.02-2.129c1.869-0.856,2.21-1.021,6.973-3.914L794.202,380.33L794.202,380.33z M772.84,364.241   c1.445-3.567,2.211-5.103,3.573-6.89c2.729-3.662,6.386-5.79,10.041-5.79c4.515,0,7.065,3.326,7.065,9.111   c0,0.594-0.083,2.216-0.175,3.567L772.84,364.241L772.84,364.241z"/>
	<path fill="#004B7C" d="M806.712,389.261h6.384l5.868-28.253c4.688-6.213,6.899-7.742,11.062-7.742c1.281,0,1.963,0.176,3.491,0.6   l1.704-6.214c-1.621-0.341-2.386-0.429-3.398-0.429c-4.688,0-8.77,2.728-12.168,8.254l1.952-7.148h-6.384L806.712,389.261   L806.712,389.261z"/>
	<path fill="#004B7C" d="M833.869,388.155c4.34,1.787,6.726,2.304,10.723,2.304c9.959,0,16.426-4.938,16.426-12.598   c0-4.08-2.387-7.571-6.891-10.128l-4.175-2.387c-2.727-1.528-4.09-3.574-4.09-6.038c0-4.514,3.75-7.406,9.451-7.406   c3.059,0,5.62,0.424,8.678,1.446l1.787-4.504c-3.915-1.193-6.973-1.704-10.465-1.704c-9.534,0-16,5.02-16,12.509   c0,4.251,2.303,7.908,6.466,10.212l2.985,1.616c4.163,2.387,5.69,4.256,5.69,7.148c0,4.168-3.914,6.978-9.781,6.978   c-2.976,0-5.36-0.506-8.761-1.952L833.869,388.155L833.869,388.155z"/>
	<path fill="#004B7C" d="M870.034,389.261h6.726l8.42-40.934h-6.633L870.034,389.261L870.034,389.261z M880.24,339.48h6.983   l1.529-7.236h-6.975L880.24,339.48L880.24,339.48z"/>
	<path fill="#004B7C" d="M893.608,353.009h8.76l-4.245,20.433c-0.939,4.421-1.115,5.526-1.115,7.654   c0,5.614,3.408,9.364,8.513,9.364c3.408,0,4.597-0.435,11.827-4.433l-1.952-3.915c-4.597,2.469-6.126,3.068-8.006,3.068   c-2.376,0-4.08-1.704-4.08-4.086c0-1.446,0.341-3.75,0.856-6.467l4.505-21.62h9.698l0.94-4.681h-9.7l3.398-16.084h-6.385   l-3.314,16.084h-8.771L893.608,353.009L893.608,353.009z"/>
	<path fill="#004B7C" d="M958.543,383.899c-2.47,1.363-2.976,1.622-3.915,1.622c-1.105,0-1.704-0.765-1.704-2.299   c0-1.022,0.093-1.616,0.682-4.598l3.832-18.382c0.424-1.87,0.682-4.003,0.682-5.19c0-5.104-3.314-7.912-9.45-7.912   c-5.527,0-10.89,1.962-17.861,6.466l2.635,3.833c5.949-3.833,10.123-5.537,13.78-5.537c2.975,0,4.771,1.446,4.771,3.832   c0,0.507-0.094,1.105-0.176,1.705l-1.281,6.131c-6.973,0.754-11.312,1.611-15.061,2.976c-7.49,2.635-11.404,7.235-11.404,13.443   c0,5.873,4.598,10.471,10.641,10.471c4.514,0,8.336-2.046,12.51-6.561l-0.083,1.787c0,2.893,1.694,4.772,4.174,4.772   c1.787,0,3.232-0.518,6.384-2.305c0.848-0.423,1.694-0.93,2.458-1.445L958.543,383.899L958.543,383.899z M947.222,379.391   l-2.046,2.128c-2.293,2.474-5.691,4.085-8.502,4.085c-3.656,0-6.384-2.722-6.384-6.378c0-3.068,1.704-5.702,4.938-7.665   c2.975-1.782,6.89-2.805,14.462-4.003L947.222,379.391L947.222,379.391z M937.016,339.057h6.632l1.446-6.812h-6.633   L937.016,339.057L937.016,339.057z M951.137,339.057h6.642l1.364-6.812H952.5L951.137,339.057L951.137,339.057z"/>
	<path fill="#004B7C" d="M969.616,353.009h8.761l-4.257,20.433c-0.93,4.421-1.104,5.526-1.104,7.654   c0,5.614,3.398,9.364,8.512,9.364c3.409,0,4.598-0.435,11.828-4.433l-1.953-3.915c-4.596,2.469-6.125,3.068-7.995,3.068   c-2.386,0-4.091-1.704-4.091-4.086c0-1.446,0.342-3.75,0.849-6.467l4.514-21.62h9.7l0.93-4.681h-9.689l3.398-16.084h-6.374   l-3.326,16.084h-8.77L969.616,353.009L969.616,353.009z"/>
	<polygon fill="#004B7C" points="1028.271,389.261 1035.16,389.261 1040.697,362.454 1070.479,362.454 1064.952,389.261    1071.843,389.261 1083.671,332.503 1076.781,332.503 1071.678,357.099 1041.813,357.099 1046.916,332.503 1040.099,332.503  "/>
	<path fill="#004B7C" d="M1121.138,383.899c-2.47,1.363-2.985,1.622-3.915,1.622c-1.115,0-1.704-0.765-1.704-2.299   c0-1.022,0.082-1.616,0.682-4.598l3.822-18.382c0.434-1.87,0.682-4.003,0.682-5.19c0-5.104-3.315-7.912-9.452-7.912   c-5.525,0-10.888,1.962-17.859,6.466l2.634,3.833c5.961-3.833,10.123-5.537,13.78-5.537c2.984,0,4.771,1.446,4.771,3.832   c0,0.507-0.093,1.105-0.176,1.705l-1.271,6.131c-6.983,0.754-11.321,1.611-15.062,2.976c-7.499,2.635-11.404,7.235-11.404,13.443   c0,5.873,4.587,10.471,10.642,10.471c4.504,0,8.336-2.046,12.499-6.561l-0.083,1.787c0,2.893,1.705,4.772,4.174,4.772   c1.787,0,3.232-0.518,6.384-2.305c0.857-0.423,1.704-0.93,2.469-1.445L1121.138,383.899L1121.138,383.899z M1109.806,379.391   l-2.035,2.128c-2.304,2.474-5.702,4.085-8.512,4.085c-3.657,0-6.384-2.722-6.384-6.378c0-3.068,1.703-5.702,4.938-7.665   c2.985-1.782,6.891-2.805,14.462-4.003L1109.806,379.391L1109.806,379.391z"/>
	<path fill="#004B7C" d="M1129.907,389.261h6.373l5.878-28.588c6.809-5.361,11.487-8.007,14.474-8.007   c2.552,0,4.08,1.446,4.08,3.915c0,1.11,0,1.533-0.176,2.299l-6.291,30.381h6.385l5.866-28.588   c6.643-5.537,11.239-8.171,14.474-8.171c2.293,0,3.903,1.444,3.903,3.397c0,1.11-0.164,2.557-0.506,4.178l-6.043,29.184h6.549   l5.961-28.588c0.342-1.793,0.6-3.915,0.6-5.279c0-5.278-2.811-8.253-7.582-8.253c-5.187,0-10.878,2.975-16.497,8.594v-1.446   c0-4.079-3.068-7.146-7.324-7.146c-4.845,0-9.523,2.386-17.105,8.594l1.787-7.406h-6.302L1129.907,389.261L1129.907,389.261z"/>
	<path fill="#004B7C" d="M1199.118,389.261c6.468,0.176,8.688,0.259,10.642,0.259c6.291,0,10.97-1.188,15.565-3.916   c8.349-5.02,13.708-14.291,13.708-23.914c0-8.589-5.021-14.549-12.179-14.549c-5.444,0-10.123,2.551-14.286,7.83l5.608-26.726   h-6.384L1199.118,389.261L1199.118,389.261z M1211.464,360.674c6.031-6.303,9.266-8.348,13.438-8.348   c4.514,0,7.489,3.832,7.489,9.539c0,6.804-3.15,13.786-8.265,18.124c-3.987,3.487-8.502,5.017-14.368,5.017l-3.409-0.083   L1211.464,360.674L1211.464,360.674z"/>
	<path fill="#004B7C" d="M1254.096,348.328l-5.961,29.018c-0.424,2.046-0.683,3.921-0.683,5.625c0,4.339,3.409,7.489,8.183,7.489   c5.785,0,10.971-3.068,17.014-9.794l-2.128,8.596h6.384l8.512-40.934h-6.384l-5.619,27.147c-6.808,7.153-10.971,9.705-15.401,9.705   c-2.211,0-3.915-1.622-3.915-3.662c0-0.935,0.341-3.058,0.773-5.361l5.785-27.829H1254.096L1254.096,348.328z"/>
	<path fill="#004B7C" d="M1291.365,389.261h6.385l5.878-28.253c4.68-6.213,6.891-7.742,11.062-7.742c1.271,0,1.953,0.176,3.481,0.6   l1.703-6.214c-1.62-0.341-2.386-0.429-3.397-0.429c-4.68,0-8.771,2.728-12.168,8.254l1.952-7.148h-6.384L1291.365,389.261   L1291.365,389.261z"/>
	<path fill="#004B7C" d="M1359.462,348.422l-12.263,0.248c-2.975-1.188-4.504-1.528-7.064-1.528c-4.422,0-8.161,1.363-11.053,3.997   c-3.068,2.81-5.114,7.147-5.114,11.067c0,4.505,1.787,7.572,5.454,9.612l-6.9,3.657c-2.293,1.28-3.739,2.81-3.739,4.173   c0,1.276,0.848,2.299,2.553,3.233c1.362,0.853,2.81,1.192,7.147,2.04c-8.336,3.067-12.851,7.488-12.851,12.598   c0,6.637,6.973,11.398,16.849,11.398c11.486,0,20.35-6.296,20.35-14.55c0-4.768-3.926-8.683-10.566-10.635l-10.454-2.979   c-4.854-1.363-5.537-1.704-5.537-2.728c0-0.683,0.589-1.364,1.705-1.953l4.421-2.551c2.21,0.847,3.315,1.022,5.196,1.022   c8.842,0,15.742-6.391,15.742-14.557c0-3.32-0.939-5.702-2.811-7.571h8.078L1359.462,348.422L1359.462,348.422z M1340.052,350.973   c4.339,0,7.147,3.232,7.147,8.254c0,6.296-4.256,11.316-9.523,11.316c-4.515,0-7.489-3.15-7.489-7.748   C1330.187,356.241,1334.525,350.973,1340.052,350.973L1340.052,350.973z M1336.993,387.814c4.505,1.363,4.505,1.363,5.187,1.705   c2.645,1.271,4.08,3.232,4.08,5.531c0,5.36-5.949,9.699-13.265,9.699c-6.559,0-11.497-3.408-11.497-7.995   c0-3.574,3.151-6.638,10.815-10.388L1336.993,387.814L1336.993,387.814z"/>
	<polygon fill="#57BDC3" points="224.449,1.978 224.449,60.725 304.899,60.725 304.052,285.914 378.976,285.914 379.823,60.725    455.593,60.725 455.593,1.978  "/>
	<path fill="#57BDC3" d="M644.106,1.978l-0.847,158.358c0,34.481-1.705,45.979-7.242,56.19c-6.807,11.062-20.856,18.31-36.609,18.31   c-19.151,0-34.904-9.798-40.866-25.122c-3.832-10.211-4.679-22.984-4.679-59.171l0.423-148.565h-74.924l-0.423,146.867v11.491   c0,54.059,2.128,66.83,15.33,86.841c19.576,29.797,56.185,46.824,100.883,46.824c58.323,0,101.317-24.26,116.213-65.131   c5.537-14.477,6.395-26.815,6.817-68.534l0.424-158.358H644.106L644.106,1.978z"/>
	<polygon fill="#57BDC3" points="988.386,285.914 989.656,1.978 914.742,1.978 914.319,111.807 818.951,111.807 819.387,1.978    744.463,1.978 743.182,285.914 818.105,285.914 818.951,173.11 913.886,173.11 913.462,285.914  "/>
	<polygon fill="#57BDC3" points="1263.288,285.914 1264.569,1.978 1189.656,1.978 1189.223,111.807 1093.865,111.807    1094.288,1.978 1019.365,1.978 1018.095,285.914 1093.019,285.914 1093.865,173.11 1188.799,173.11 1188.375,285.914  "/>
</g>
</svg>